ISO-10303-21;
HEADER;
/* Generated by software containing ST-Developer
 * from STEP Tools, Inc. (www.steptools.com) 
 */

FILE_DESCRIPTION(
/* description */ (''),
/* implementation_level */ '2;1');

FILE_NAME(
/* name */ 'electonics_case_cap.step',
/* time_stamp */ '2026-10-03T22:29:15+03:00',
/* author */ (''),
/* organization */ (''),
/* preprocessor_version */ 'ST-DEVELOPER v20.2',
/* originating_system */ 'Autodesk Translation Framework v15.15.0.0',
/* authorisation */ '');

FILE_SCHEMA (('AUTOMOTIVE_DESIGN { 1 0 10303 214 3 1 1 }'));
ENDSEC;

DATA;
#10=MECHANICAL_DESIGN_GEOMETRIC_PRESENTATION_REPRESENTATION('',(#13),#1627);
#11=SHAPE_REPRESENTATION_RELATIONSHIP('SRR','None',#1634,#12);
#12=ADVANCED_BREP_SHAPE_REPRESENTATION('',(#14),#1626);
#13=STYLED_ITEM('',(#1643),#14);
#14=MANIFOLD_SOLID_BREP('Body1',#1025);
#15=FACE_BOUND('',#73,.T.);
#16=FACE_OUTER_BOUND('',#67,.T.);
#17=FACE_OUTER_BOUND('',#68,.T.);
#18=FACE_OUTER_BOUND('',#69,.T.);
#19=FACE_OUTER_BOUND('',#70,.T.);
#20=FACE_OUTER_BOUND('',#71,.T.);
#21=FACE_OUTER_BOUND('',#72,.T.);
#22=FACE_OUTER_BOUND('',#74,.T.);
#23=FACE_OUTER_BOUND('',#75,.T.);
#24=FACE_OUTER_BOUND('',#76,.T.);
#25=FACE_OUTER_BOUND('',#77,.T.);
#26=FACE_OUTER_BOUND('',#78,.T.);
#27=FACE_OUTER_BOUND('',#79,.T.);
#28=FACE_OUTER_BOUND('',#80,.T.);
#29=FACE_OUTER_BOUND('',#81,.T.);
#30=FACE_OUTER_BOUND('',#82,.T.);
#31=FACE_OUTER_BOUND('',#83,.T.);
#32=FACE_OUTER_BOUND('',#84,.T.);
#33=FACE_OUTER_BOUND('',#85,.T.);
#34=FACE_OUTER_BOUND('',#86,.T.);
#35=FACE_OUTER_BOUND('',#87,.T.);
#36=FACE_OUTER_BOUND('',#88,.T.);
#37=FACE_OUTER_BOUND('',#89,.T.);
#38=FACE_OUTER_BOUND('',#90,.T.);
#39=FACE_OUTER_BOUND('',#91,.T.);
#40=FACE_OUTER_BOUND('',#92,.T.);
#41=FACE_OUTER_BOUND('',#93,.T.);
#42=FACE_OUTER_BOUND('',#94,.T.);
#43=FACE_OUTER_BOUND('',#95,.T.);
#44=FACE_OUTER_BOUND('',#96,.T.);
#45=FACE_OUTER_BOUND('',#97,.T.);
#46=FACE_OUTER_BOUND('',#98,.T.);
#47=FACE_OUTER_BOUND('',#99,.T.);
#48=FACE_OUTER_BOUND('',#100,.T.);
#49=FACE_OUTER_BOUND('',#101,.T.);
#50=FACE_OUTER_BOUND('',#102,.T.);
#51=FACE_OUTER_BOUND('',#103,.T.);
#52=FACE_OUTER_BOUND('',#104,.T.);
#53=FACE_OUTER_BOUND('',#105,.T.);
#54=FACE_OUTER_BOUND('',#106,.T.);
#55=FACE_OUTER_BOUND('',#107,.T.);
#56=FACE_OUTER_BOUND('',#108,.T.);
#57=FACE_OUTER_BOUND('',#109,.T.);
#58=FACE_OUTER_BOUND('',#110,.T.);
#59=FACE_OUTER_BOUND('',#111,.T.);
#60=FACE_OUTER_BOUND('',#112,.T.);
#61=FACE_OUTER_BOUND('',#113,.T.);
#62=FACE_OUTER_BOUND('',#114,.T.);
#63=FACE_OUTER_BOUND('',#115,.T.);
#64=FACE_OUTER_BOUND('',#116,.T.);
#65=FACE_OUTER_BOUND('',#117,.T.);
#66=FACE_OUTER_BOUND('',#118,.T.);
#67=EDGE_LOOP('',(#639,#640,#641,#642));
#68=EDGE_LOOP('',(#643,#644,#645,#646,#647,#648,#649,#650));
#69=EDGE_LOOP('',(#651,#652,#653,#654,#655,#656,#657,#658,#659));
#70=EDGE_LOOP('',(#660,#661,#662,#663));
#71=EDGE_LOOP('',(#664,#665,#666,#667));
#72=EDGE_LOOP('',(#668,#669,#670,#671,#672,#673,#674,#675,#676,#677,#678,
#679,#680,#681));
#73=EDGE_LOOP('',(#682,#683,#684,#685));
#74=EDGE_LOOP('',(#686,#687,#688,#689));
#75=EDGE_LOOP('',(#690,#691,#692,#693));
#76=EDGE_LOOP('',(#694,#695,#696));
#77=EDGE_LOOP('',(#697,#698,#699,#700,#701,#702,#703,#704,#705,#706,#707));
#78=EDGE_LOOP('',(#708,#709,#710,#711,#712,#713));
#79=EDGE_LOOP('',(#714,#715,#716,#717));
#80=EDGE_LOOP('',(#718,#719,#720,#721));
#81=EDGE_LOOP('',(#722,#723,#724,#725));
#82=EDGE_LOOP('',(#726,#727,#728,#729));
#83=EDGE_LOOP('',(#730,#731,#732,#733,#734,#735,#736,#737));
#84=EDGE_LOOP('',(#738,#739,#740,#741,#742,#743));
#85=EDGE_LOOP('',(#744,#745,#746,#747,#748,#749,#750,#751,#752,#753));
#86=EDGE_LOOP('',(#754,#755,#756,#757));
#87=EDGE_LOOP('',(#758,#759,#760,#761));
#88=EDGE_LOOP('',(#762,#763,#764,#765));
#89=EDGE_LOOP('',(#766,#767,#768,#769,#770,#771,#772,#773));
#90=EDGE_LOOP('',(#774,#775,#776,#777,#778,#779));
#91=EDGE_LOOP('',(#780,#781,#782,#783));
#92=EDGE_LOOP('',(#784,#785,#786,#787,#788,#789));
#93=EDGE_LOOP('',(#790,#791,#792,#793,#794));
#94=EDGE_LOOP('',(#795,#796,#797,#798));
#95=EDGE_LOOP('',(#799,#800,#801,#802,#803,#804));
#96=EDGE_LOOP('',(#805,#806,#807,#808));
#97=EDGE_LOOP('',(#809,#810,#811,#812));
#98=EDGE_LOOP('',(#813,#814,#815,#816,#817,#818));
#99=EDGE_LOOP('',(#819,#820,#821,#822));
#100=EDGE_LOOP('',(#823,#824,#825,#826));
#101=EDGE_LOOP('',(#827,#828,#829,#830,#831,#832,#833));
#102=EDGE_LOOP('',(#834,#835,#836,#837));
#103=EDGE_LOOP('',(#838,#839,#840,#841));
#104=EDGE_LOOP('',(#842,#843,#844,#845,#846,#847,#848));
#105=EDGE_LOOP('',(#849,#850,#851,#852));
#106=EDGE_LOOP('',(#853,#854,#855,#856));
#107=EDGE_LOOP('',(#857,#858,#859,#860));
#108=EDGE_LOOP('',(#861,#862,#863,#864,#865));
#109=EDGE_LOOP('',(#866,#867,#868,#869));
#110=EDGE_LOOP('',(#870,#871,#872,#873));
#111=EDGE_LOOP('',(#874,#875,#876,#877));
#112=EDGE_LOOP('',(#878,#879,#880,#881));
#113=EDGE_LOOP('',(#882,#883,#884,#885));
#114=EDGE_LOOP('',(#886,#887,#888,#889));
#115=EDGE_LOOP('',(#890,#891,#892,#893));
#116=EDGE_LOOP('',(#894,#895,#896,#897));
#117=EDGE_LOOP('',(#898,#899,#900,#901));
#118=EDGE_LOOP('',(#902,#903,#904,#905,#906,#907,#908,#909,#910,#911,#912,
#913,#914,#915,#916,#917,#918,#919,#920,#921,#922));
#119=LINE('',#1340,#261);
#120=LINE('',#1342,#262);
#121=LINE('',#1344,#263);
#122=LINE('',#1345,#264);
#123=LINE('',#1348,#265);
#124=LINE('',#1350,#266);
#125=LINE('',#1352,#267);
#126=LINE('',#1354,#268);
#127=LINE('',#1356,#269);
#128=LINE('',#1358,#270);
#129=LINE('',#1359,#271);
#130=LINE('',#1362,#272);
#131=LINE('',#1364,#273);
#132=LINE('',#1366,#274);
#133=LINE('',#1368,#275);
#134=LINE('',#1370,#276);
#135=LINE('',#1372,#277);
#136=LINE('',#1373,#278);
#137=LINE('',#1377,#279);
#138=LINE('',#1379,#280);
#139=LINE('',#1381,#281);
#140=LINE('',#1382,#282);
#141=LINE('',#1385,#283);
#142=LINE('',#1387,#284);
#143=LINE('',#1388,#285);
#144=LINE('',#1391,#286);
#145=LINE('',#1393,#287);
#146=LINE('',#1395,#288);
#147=LINE('',#1397,#289);
#148=LINE('',#1399,#290);
#149=LINE('',#1401,#291);
#150=LINE('',#1403,#292);
#151=LINE('',#1405,#293);
#152=LINE('',#1407,#294);
#153=LINE('',#1409,#295);
#154=LINE('',#1411,#296);
#155=LINE('',#1412,#297);
#156=LINE('',#1415,#298);
#157=LINE('',#1417,#299);
#158=LINE('',#1419,#300);
#159=LINE('',#1420,#301);
#160=LINE('',#1424,#302);
#161=LINE('',#1425,#303);
#162=LINE('',#1426,#304);
#163=LINE('',#1429,#305);
#164=LINE('',#1430,#306);
#165=LINE('',#1433,#307);
#166=LINE('',#1434,#308);
#167=LINE('',#1437,#309);
#168=LINE('',#1439,#310);
#169=LINE('',#1440,#311);
#170=LINE('',#1442,#312);
#171=LINE('',#1444,#313);
#172=LINE('',#1446,#314);
#173=LINE('',#1448,#315);
#174=LINE('',#1450,#316);
#175=LINE('',#1451,#317);
#176=LINE('',#1454,#318);
#177=LINE('',#1455,#319);
#178=LINE('',#1459,#320);
#179=LINE('',#1461,#321);
#180=LINE('',#1463,#322);
#181=LINE('',#1464,#323);
#182=LINE('',#1467,#324);
#183=LINE('',#1469,#325);
#184=LINE('',#1470,#326);
#185=LINE('',#1473,#327);
#186=LINE('',#1475,#328);
#187=LINE('',#1476,#329);
#188=LINE('',#1479,#330);
#189=LINE('',#1481,#331);
#190=LINE('',#1482,#332);
#191=LINE('',#1485,#333);
#192=LINE('',#1487,#334);
#193=LINE('',#1489,#335);
#194=LINE('',#1490,#336);
#195=LINE('',#1493,#337);
#196=LINE('',#1495,#338);
#197=LINE('',#1497,#339);
#198=LINE('',#1498,#340);
#199=LINE('',#1500,#341);
#200=LINE('',#1502,#342);
#201=LINE('',#1503,#343);
#202=LINE('',#1506,#344);
#203=LINE('',#1508,#345);
#204=LINE('',#1509,#346);
#205=LINE('',#1512,#347);
#206=LINE('',#1513,#348);
#207=LINE('',#1516,#349);
#208=LINE('',#1517,#350);
#209=LINE('',#1521,#351);
#210=LINE('',#1522,#352);
#211=LINE('',#1524,#353);
#212=LINE('',#1526,#354);
#213=LINE('',#1527,#355);
#214=LINE('',#1530,#356);
#215=LINE('',#1531,#357);
#216=LINE('',#1535,#358);
#217=LINE('',#1536,#359);
#218=LINE('',#1537,#360);
#219=LINE('',#1540,#361);
#220=LINE('',#1541,#362);
#221=LINE('',#1544,#363);
#222=LINE('',#1545,#364);
#223=LINE('',#1547,#365);
#224=LINE('',#1550,#366);
#225=LINE('',#1551,#367);
#226=LINE('',#1554,#368);
#227=LINE('',#1555,#369);
#228=LINE('',#1557,#370);
#229=LINE('',#1560,#371);
#230=LINE('',#1561,#372);
#231=LINE('',#1562,#373);
#232=LINE('',#1565,#374);
#233=LINE('',#1566,#375);
#234=LINE('',#1568,#376);
#235=LINE('',#1571,#377);
#236=LINE('',#1573,#378);
#237=LINE('',#1575,#379);
#238=LINE('',#1576,#380);
#239=LINE('',#1577,#381);
#240=LINE('',#1580,#382);
#241=LINE('',#1581,#383);
#242=LINE('',#1584,#384);
#243=LINE('',#1585,#385);
#244=LINE('',#1587,#386);
#245=LINE('',#1589,#387);
#246=LINE('',#1593,#388);
#247=LINE('',#1597,#389);
#248=LINE('',#1599,#390);
#249=LINE('',#1601,#391);
#250=LINE('',#1602,#392);
#251=LINE('',#1604,#393);
#252=LINE('',#1605,#394);
#253=LINE('',#1607,#395);
#254=LINE('',#1609,#396);
#255=LINE('',#1612,#397);
#256=LINE('',#1616,#398);
#257=LINE('',#1617,#399);
#258=LINE('',#1618,#400);
#259=LINE('',#1620,#401);
#260=LINE('',#1622,#402);
#261=VECTOR('',#1094,10.);
#262=VECTOR('',#1095,10.);
#263=VECTOR('',#1096,10.);
#264=VECTOR('',#1097,10.);
#265=VECTOR('',#1100,10.);
#266=VECTOR('',#1101,10.);
#267=VECTOR('',#1102,10.);
#268=VECTOR('',#1103,10.);
#269=VECTOR('',#1104,10.);
#270=VECTOR('',#1105,10.);
#271=VECTOR('',#1106,10.);
#272=VECTOR('',#1109,10.);
#273=VECTOR('',#1110,10.);
#274=VECTOR('',#1111,10.);
#275=VECTOR('',#1112,10.);
#276=VECTOR('',#1113,10.);
#277=VECTOR('',#1114,10.);
#278=VECTOR('',#1115,10.);
#279=VECTOR('',#1118,10.);
#280=VECTOR('',#1119,10.);
#281=VECTOR('',#1120,10.);
#282=VECTOR('',#1121,10.);
#283=VECTOR('',#1124,10.);
#284=VECTOR('',#1125,10.);
#285=VECTOR('',#1126,10.);
#286=VECTOR('',#1129,10.);
#287=VECTOR('',#1130,10.);
#288=VECTOR('',#1131,10.);
#289=VECTOR('',#1132,10.);
#290=VECTOR('',#1133,10.);
#291=VECTOR('',#1134,10.);
#292=VECTOR('',#1135,10.);
#293=VECTOR('',#1136,10.);
#294=VECTOR('',#1137,10.);
#295=VECTOR('',#1138,10.);
#296=VECTOR('',#1139,10.);
#297=VECTOR('',#1140,10.);
#298=VECTOR('',#1141,10.);
#299=VECTOR('',#1142,10.);
#300=VECTOR('',#1143,10.);
#301=VECTOR('',#1144,10.);
#302=VECTOR('',#1147,10.);
#303=VECTOR('',#1148,10.);
#304=VECTOR('',#1149,10.);
#305=VECTOR('',#1152,10.);
#306=VECTOR('',#1153,10.);
#307=VECTOR('',#1156,10.);
#308=VECTOR('',#1157,10.);
#309=VECTOR('',#1160,10.);
#310=VECTOR('',#1161,10.);
#311=VECTOR('',#1162,10.);
#312=VECTOR('',#1163,10.);
#313=VECTOR('',#1164,10.);
#314=VECTOR('',#1165,10.);
#315=VECTOR('',#1166,10.);
#316=VECTOR('',#1167,10.);
#317=VECTOR('',#1168,10.);
#318=VECTOR('',#1171,10.);
#319=VECTOR('',#1172,10.);
#320=VECTOR('',#1175,10.);
#321=VECTOR('',#1176,10.);
#322=VECTOR('',#1177,10.);
#323=VECTOR('',#1178,10.);
#324=VECTOR('',#1181,10.);
#325=VECTOR('',#1182,10.);
#326=VECTOR('',#1183,10.);
#327=VECTOR('',#1186,10.);
#328=VECTOR('',#1187,10.);
#329=VECTOR('',#1188,10.);
#330=VECTOR('',#1191,10.);
#331=VECTOR('',#1192,10.);
#332=VECTOR('',#1193,10.);
#333=VECTOR('',#1196,10.);
#334=VECTOR('',#1197,10.);
#335=VECTOR('',#1198,10.);
#336=VECTOR('',#1199,10.);
#337=VECTOR('',#1202,10.);
#338=VECTOR('',#1203,10.);
#339=VECTOR('',#1204,10.);
#340=VECTOR('',#1205,10.);
#341=VECTOR('',#1208,10.);
#342=VECTOR('',#1209,10.);
#343=VECTOR('',#1210,10.);
#344=VECTOR('',#1213,10.);
#345=VECTOR('',#1214,10.);
#346=VECTOR('',#1215,10.);
#347=VECTOR('',#1218,10.);
#348=VECTOR('',#1219,10.);
#349=VECTOR('',#1222,10.);
#350=VECTOR('',#1223,10.);
#351=VECTOR('',#1226,10.);
#352=VECTOR('',#1227,10.);
#353=VECTOR('',#1228,10.);
#354=VECTOR('',#1229,10.);
#355=VECTOR('',#1230,10.);
#356=VECTOR('',#1233,10.);
#357=VECTOR('',#1234,10.);
#358=VECTOR('',#1237,10.);
#359=VECTOR('',#1238,10.);
#360=VECTOR('',#1239,10.);
#361=VECTOR('',#1242,10.);
#362=VECTOR('',#1243,10.);
#363=VECTOR('',#1246,10.);
#364=VECTOR('',#1247,10.);
#365=VECTOR('',#1250,10.);
#366=VECTOR('',#1253,10.);
#367=VECTOR('',#1254,10.);
#368=VECTOR('',#1257,10.);
#369=VECTOR('',#1258,10.);
#370=VECTOR('',#1261,10.);
#371=VECTOR('',#1264,10.);
#372=VECTOR('',#1265,10.);
#373=VECTOR('',#1266,10.);
#374=VECTOR('',#1269,10.);
#375=VECTOR('',#1270,10.);
#376=VECTOR('',#1273,10.);
#377=VECTOR('',#1276,10.);
#378=VECTOR('',#1277,10.);
#379=VECTOR('',#1278,10.);
#380=VECTOR('',#1279,10.);
#381=VECTOR('',#1280,10.);
#382=VECTOR('',#1283,10.);
#383=VECTOR('',#1284,10.);
#384=VECTOR('',#1287,10.);
#385=VECTOR('',#1288,10.);
#386=VECTOR('',#1291,10.);
#387=VECTOR('',#1294,10.);
#388=VECTOR('',#1301,10.);
#389=VECTOR('',#1304,10.);
#390=VECTOR('',#1305,10.);
#391=VECTOR('',#1306,10.);
#392=VECTOR('',#1307,10.);
#393=VECTOR('',#1310,10.);
#394=VECTOR('',#1311,10.);
#395=VECTOR('',#1314,10.);
#396=VECTOR('',#1317,10.);
#397=VECTOR('',#1322,10.);
#398=VECTOR('',#1325,10.);
#399=VECTOR('',#1326,10.);
#400=VECTOR('',#1327,10.);
#401=VECTOR('',#1330,10.);
#402=VECTOR('',#1333,10.);
#403=VERTEX_POINT('',#1338);
#404=VERTEX_POINT('',#1339);
#405=VERTEX_POINT('',#1341);
#406=VERTEX_POINT('',#1343);
#407=VERTEX_POINT('',#1347);
#408=VERTEX_POINT('',#1349);
#409=VERTEX_POINT('',#1351);
#410=VERTEX_POINT('',#1353);
#411=VERTEX_POINT('',#1355);
#412=VERTEX_POINT('',#1357);
#413=VERTEX_POINT('',#1361);
#414=VERTEX_POINT('',#1363);
#415=VERTEX_POINT('',#1365);
#416=VERTEX_POINT('',#1367);
#417=VERTEX_POINT('',#1369);
#418=VERTEX_POINT('',#1371);
#419=VERTEX_POINT('',#1375);
#420=VERTEX_POINT('',#1376);
#421=VERTEX_POINT('',#1378);
#422=VERTEX_POINT('',#1380);
#423=VERTEX_POINT('',#1384);
#424=VERTEX_POINT('',#1386);
#425=VERTEX_POINT('',#1390);
#426=VERTEX_POINT('',#1392);
#427=VERTEX_POINT('',#1394);
#428=VERTEX_POINT('',#1396);
#429=VERTEX_POINT('',#1398);
#430=VERTEX_POINT('',#1400);
#431=VERTEX_POINT('',#1402);
#432=VERTEX_POINT('',#1404);
#433=VERTEX_POINT('',#1406);
#434=VERTEX_POINT('',#1408);
#435=VERTEX_POINT('',#1410);
#436=VERTEX_POINT('',#1413);
#437=VERTEX_POINT('',#1414);
#438=VERTEX_POINT('',#1416);
#439=VERTEX_POINT('',#1418);
#440=VERTEX_POINT('',#1422);
#441=VERTEX_POINT('',#1423);
#442=VERTEX_POINT('',#1428);
#443=VERTEX_POINT('',#1432);
#444=VERTEX_POINT('',#1436);
#445=VERTEX_POINT('',#1438);
#446=VERTEX_POINT('',#1441);
#447=VERTEX_POINT('',#1443);
#448=VERTEX_POINT('',#1445);
#449=VERTEX_POINT('',#1447);
#450=VERTEX_POINT('',#1449);
#451=VERTEX_POINT('',#1453);
#452=VERTEX_POINT('',#1457);
#453=VERTEX_POINT('',#1458);
#454=VERTEX_POINT('',#1460);
#455=VERTEX_POINT('',#1462);
#456=VERTEX_POINT('',#1466);
#457=VERTEX_POINT('',#1468);
#458=VERTEX_POINT('',#1472);
#459=VERTEX_POINT('',#1474);
#460=VERTEX_POINT('',#1478);
#461=VERTEX_POINT('',#1480);
#462=VERTEX_POINT('',#1484);
#463=VERTEX_POINT('',#1486);
#464=VERTEX_POINT('',#1488);
#465=VERTEX_POINT('',#1492);
#466=VERTEX_POINT('',#1494);
#467=VERTEX_POINT('',#1496);
#468=VERTEX_POINT('',#1501);
#469=VERTEX_POINT('',#1505);
#470=VERTEX_POINT('',#1507);
#471=VERTEX_POINT('',#1511);
#472=VERTEX_POINT('',#1515);
#473=VERTEX_POINT('',#1519);
#474=VERTEX_POINT('',#1520);
#475=VERTEX_POINT('',#1523);
#476=VERTEX_POINT('',#1525);
#477=VERTEX_POINT('',#1529);
#478=VERTEX_POINT('',#1533);
#479=VERTEX_POINT('',#1534);
#480=VERTEX_POINT('',#1539);
#481=VERTEX_POINT('',#1543);
#482=VERTEX_POINT('',#1549);
#483=VERTEX_POINT('',#1553);
#484=VERTEX_POINT('',#1559);
#485=VERTEX_POINT('',#1564);
#486=VERTEX_POINT('',#1570);
#487=VERTEX_POINT('',#1572);
#488=VERTEX_POINT('',#1574);
#489=VERTEX_POINT('',#1579);
#490=VERTEX_POINT('',#1583);
#491=VERTEX_POINT('',#1595);
#492=VERTEX_POINT('',#1596);
#493=VERTEX_POINT('',#1598);
#494=VERTEX_POINT('',#1600);
#495=VERTEX_POINT('',#1614);
#496=VERTEX_POINT('',#1615);
#497=EDGE_CURVE('',#403,#404,#119,.T.);
#498=EDGE_CURVE('',#404,#405,#120,.T.);
#499=EDGE_CURVE('',#405,#406,#121,.T.);
#500=EDGE_CURVE('',#406,#403,#122,.T.);
#501=EDGE_CURVE('',#407,#406,#123,.T.);
#502=EDGE_CURVE('',#407,#408,#124,.T.);
#503=EDGE_CURVE('',#408,#409,#125,.T.);
#504=EDGE_CURVE('',#409,#410,#126,.T.);
#505=EDGE_CURVE('',#411,#410,#127,.T.);
#506=EDGE_CURVE('',#412,#411,#128,.T.);
#507=EDGE_CURVE('',#403,#412,#129,.T.);
#508=EDGE_CURVE('',#405,#413,#130,.T.);
#509=EDGE_CURVE('',#413,#414,#131,.T.);
#510=EDGE_CURVE('',#414,#415,#132,.T.);
#511=EDGE_CURVE('',#415,#416,#133,.T.);
#512=EDGE_CURVE('',#416,#417,#134,.T.);
#513=EDGE_CURVE('',#417,#418,#135,.T.);
#514=EDGE_CURVE('',#418,#407,#136,.T.);
#515=EDGE_CURVE('',#419,#420,#137,.T.);
#516=EDGE_CURVE('',#420,#421,#138,.T.);
#517=EDGE_CURVE('',#421,#422,#139,.T.);
#518=EDGE_CURVE('',#422,#419,#140,.T.);
#519=EDGE_CURVE('',#423,#422,#141,.T.);
#520=EDGE_CURVE('',#424,#423,#142,.T.);
#521=EDGE_CURVE('',#419,#424,#143,.T.);
#522=EDGE_CURVE('',#421,#425,#144,.T.);
#523=EDGE_CURVE('',#426,#425,#145,.T.);
#524=EDGE_CURVE('',#426,#427,#146,.T.);
#525=EDGE_CURVE('',#427,#428,#147,.T.);
#526=EDGE_CURVE('',#429,#428,#148,.T.);
#527=EDGE_CURVE('',#429,#430,#149,.T.);
#528=EDGE_CURVE('',#431,#430,#150,.T.);
#529=EDGE_CURVE('',#431,#432,#151,.T.);
#530=EDGE_CURVE('',#432,#433,#152,.T.);
#531=EDGE_CURVE('',#433,#434,#153,.T.);
#532=EDGE_CURVE('',#434,#435,#154,.T.);
#533=EDGE_CURVE('',#435,#423,#155,.T.);
#534=EDGE_CURVE('',#436,#437,#156,.T.);
#535=EDGE_CURVE('',#438,#436,#157,.T.);
#536=EDGE_CURVE('',#439,#438,#158,.T.);
#537=EDGE_CURVE('',#437,#439,#159,.T.);
#538=EDGE_CURVE('',#440,#441,#160,.T.);
#539=EDGE_CURVE('',#441,#429,#161,.T.);
#540=EDGE_CURVE('',#428,#440,#162,.T.);
#541=EDGE_CURVE('',#427,#442,#163,.T.);
#542=EDGE_CURVE('',#440,#442,#164,.T.);
#543=EDGE_CURVE('',#425,#443,#165,.T.);
#544=EDGE_CURVE('',#426,#443,#166,.T.);
#545=EDGE_CURVE('',#443,#444,#167,.F.);
#546=EDGE_CURVE('',#444,#445,#168,.T.);
#547=EDGE_CURVE('',#445,#410,#169,.T.);
#548=EDGE_CURVE('',#409,#446,#170,.T.);
#549=EDGE_CURVE('',#446,#447,#171,.T.);
#550=EDGE_CURVE('',#447,#448,#172,.T.);
#551=EDGE_CURVE('',#448,#449,#173,.T.);
#552=EDGE_CURVE('',#449,#450,#174,.T.);
#553=EDGE_CURVE('',#450,#426,#175,.T.);
#554=EDGE_CURVE('',#451,#420,#176,.T.);
#555=EDGE_CURVE('',#444,#451,#177,.T.);
#556=EDGE_CURVE('',#452,#453,#178,.T.);
#557=EDGE_CURVE('',#452,#454,#179,.T.);
#558=EDGE_CURVE('',#455,#454,#180,.T.);
#559=EDGE_CURVE('',#453,#455,#181,.T.);
#560=EDGE_CURVE('',#456,#452,#182,.T.);
#561=EDGE_CURVE('',#456,#457,#183,.T.);
#562=EDGE_CURVE('',#454,#457,#184,.T.);
#563=EDGE_CURVE('',#453,#458,#185,.T.);
#564=EDGE_CURVE('',#459,#455,#186,.T.);
#565=EDGE_CURVE('',#458,#459,#187,.T.);
#566=EDGE_CURVE('',#458,#460,#188,.T.);
#567=EDGE_CURVE('',#461,#459,#189,.T.);
#568=EDGE_CURVE('',#460,#461,#190,.T.);
#569=EDGE_CURVE('',#462,#461,#191,.T.);
#570=EDGE_CURVE('',#457,#463,#192,.T.);
#571=EDGE_CURVE('',#463,#464,#193,.T.);
#572=EDGE_CURVE('',#464,#462,#194,.T.);
#573=EDGE_CURVE('',#465,#456,#195,.T.);
#574=EDGE_CURVE('',#466,#465,#196,.T.);
#575=EDGE_CURVE('',#467,#466,#197,.T.);
#576=EDGE_CURVE('',#467,#463,#198,.T.);
#577=EDGE_CURVE('',#460,#411,#199,.T.);
#578=EDGE_CURVE('',#445,#468,#200,.F.);
#579=EDGE_CURVE('',#468,#465,#201,.F.);
#580=EDGE_CURVE('',#432,#469,#202,.T.);
#581=EDGE_CURVE('',#470,#469,#203,.T.);
#582=EDGE_CURVE('',#433,#470,#204,.T.);
#583=EDGE_CURVE('',#471,#470,#205,.T.);
#584=EDGE_CURVE('',#434,#471,#206,.T.);
#585=EDGE_CURVE('',#472,#471,#207,.T.);
#586=EDGE_CURVE('',#435,#472,#208,.T.);
#587=EDGE_CURVE('',#473,#474,#209,.T.);
#588=EDGE_CURVE('',#474,#472,#210,.T.);
#589=EDGE_CURVE('',#469,#475,#211,.T.);
#590=EDGE_CURVE('',#475,#476,#212,.T.);
#591=EDGE_CURVE('',#476,#473,#213,.T.);
#592=EDGE_CURVE('',#477,#424,#214,.T.);
#593=EDGE_CURVE('',#477,#474,#215,.T.);
#594=EDGE_CURVE('',#478,#479,#216,.T.);
#595=EDGE_CURVE('',#479,#431,#217,.T.);
#596=EDGE_CURVE('',#430,#478,#218,.T.);
#597=EDGE_CURVE('',#480,#479,#219,.T.);
#598=EDGE_CURVE('',#480,#475,#220,.T.);
#599=EDGE_CURVE('',#451,#481,#221,.T.);
#600=EDGE_CURVE('',#481,#468,#222,.T.);
#601=EDGE_CURVE('',#466,#481,#223,.F.);
#602=EDGE_CURVE('',#412,#482,#224,.T.);
#603=EDGE_CURVE('',#482,#462,#225,.T.);
#604=EDGE_CURVE('',#482,#483,#226,.T.);
#605=EDGE_CURVE('',#483,#464,#227,.T.);
#606=EDGE_CURVE('',#483,#467,#228,.T.);
#607=EDGE_CURVE('',#484,#450,#229,.T.);
#608=EDGE_CURVE('',#414,#484,#230,.T.);
#609=EDGE_CURVE('',#427,#413,#231,.T.);
#610=EDGE_CURVE('',#485,#484,#232,.F.);
#611=EDGE_CURVE('',#485,#415,#233,.T.);
#612=EDGE_CURVE('',#449,#485,#234,.T.);
#613=EDGE_CURVE('',#418,#486,#235,.T.);
#614=EDGE_CURVE('',#417,#487,#236,.T.);
#615=EDGE_CURVE('',#488,#487,#237,.T.);
#616=EDGE_CURVE('',#447,#488,#238,.T.);
#617=EDGE_CURVE('',#486,#446,#239,.T.);
#618=EDGE_CURVE('',#489,#488,#240,.T.);
#619=EDGE_CURVE('',#448,#489,#241,.T.);
#620=EDGE_CURVE('',#416,#490,#242,.T.);
#621=EDGE_CURVE('',#487,#490,#243,.T.);
#622=EDGE_CURVE('',#490,#489,#244,.T.);
#623=EDGE_CURVE('',#408,#486,#245,.F.);
#624=EDGE_CURVE('',#442,#404,#246,.T.);
#625=EDGE_CURVE('',#491,#492,#247,.T.);
#626=EDGE_CURVE('',#493,#491,#248,.T.);
#627=EDGE_CURVE('',#494,#493,#249,.T.);
#628=EDGE_CURVE('',#492,#494,#250,.T.);
#629=EDGE_CURVE('',#439,#491,#251,.T.);
#630=EDGE_CURVE('',#438,#493,#252,.T.);
#631=EDGE_CURVE('',#437,#492,#253,.T.);
#632=EDGE_CURVE('',#436,#494,#254,.T.);
#633=EDGE_CURVE('',#478,#441,#255,.T.);
#634=EDGE_CURVE('',#495,#496,#256,.T.);
#635=EDGE_CURVE('',#495,#473,#257,.T.);
#636=EDGE_CURVE('',#496,#476,#258,.T.);
#637=EDGE_CURVE('',#496,#480,#259,.T.);
#638=EDGE_CURVE('',#477,#495,#260,.T.);
#639=ORIENTED_EDGE('',*,*,#497,.T.);
#640=ORIENTED_EDGE('',*,*,#498,.T.);
#641=ORIENTED_EDGE('',*,*,#499,.T.);
#642=ORIENTED_EDGE('',*,*,#500,.T.);
#643=ORIENTED_EDGE('',*,*,#500,.F.);
#644=ORIENTED_EDGE('',*,*,#501,.F.);
#645=ORIENTED_EDGE('',*,*,#502,.T.);
#646=ORIENTED_EDGE('',*,*,#503,.T.);
#647=ORIENTED_EDGE('',*,*,#504,.T.);
#648=ORIENTED_EDGE('',*,*,#505,.F.);
#649=ORIENTED_EDGE('',*,*,#506,.F.);
#650=ORIENTED_EDGE('',*,*,#507,.F.);
#651=ORIENTED_EDGE('',*,*,#499,.F.);
#652=ORIENTED_EDGE('',*,*,#508,.T.);
#653=ORIENTED_EDGE('',*,*,#509,.T.);
#654=ORIENTED_EDGE('',*,*,#510,.T.);
#655=ORIENTED_EDGE('',*,*,#511,.T.);
#656=ORIENTED_EDGE('',*,*,#512,.T.);
#657=ORIENTED_EDGE('',*,*,#513,.T.);
#658=ORIENTED_EDGE('',*,*,#514,.T.);
#659=ORIENTED_EDGE('',*,*,#501,.T.);
#660=ORIENTED_EDGE('',*,*,#515,.T.);
#661=ORIENTED_EDGE('',*,*,#516,.T.);
#662=ORIENTED_EDGE('',*,*,#517,.T.);
#663=ORIENTED_EDGE('',*,*,#518,.T.);
#664=ORIENTED_EDGE('',*,*,#518,.F.);
#665=ORIENTED_EDGE('',*,*,#519,.F.);
#666=ORIENTED_EDGE('',*,*,#520,.F.);
#667=ORIENTED_EDGE('',*,*,#521,.F.);
#668=ORIENTED_EDGE('',*,*,#517,.F.);
#669=ORIENTED_EDGE('',*,*,#522,.T.);
#670=ORIENTED_EDGE('',*,*,#523,.F.);
#671=ORIENTED_EDGE('',*,*,#524,.T.);
#672=ORIENTED_EDGE('',*,*,#525,.T.);
#673=ORIENTED_EDGE('',*,*,#526,.F.);
#674=ORIENTED_EDGE('',*,*,#527,.T.);
#675=ORIENTED_EDGE('',*,*,#528,.F.);
#676=ORIENTED_EDGE('',*,*,#529,.T.);
#677=ORIENTED_EDGE('',*,*,#530,.T.);
#678=ORIENTED_EDGE('',*,*,#531,.T.);
#679=ORIENTED_EDGE('',*,*,#532,.T.);
#680=ORIENTED_EDGE('',*,*,#533,.T.);
#681=ORIENTED_EDGE('',*,*,#519,.T.);
#682=ORIENTED_EDGE('',*,*,#534,.F.);
#683=ORIENTED_EDGE('',*,*,#535,.F.);
#684=ORIENTED_EDGE('',*,*,#536,.F.);
#685=ORIENTED_EDGE('',*,*,#537,.F.);
#686=ORIENTED_EDGE('',*,*,#538,.T.);
#687=ORIENTED_EDGE('',*,*,#539,.T.);
#688=ORIENTED_EDGE('',*,*,#526,.T.);
#689=ORIENTED_EDGE('',*,*,#540,.T.);
#690=ORIENTED_EDGE('',*,*,#540,.F.);
#691=ORIENTED_EDGE('',*,*,#525,.F.);
#692=ORIENTED_EDGE('',*,*,#541,.T.);
#693=ORIENTED_EDGE('',*,*,#542,.F.);
#694=ORIENTED_EDGE('',*,*,#523,.T.);
#695=ORIENTED_EDGE('',*,*,#543,.T.);
#696=ORIENTED_EDGE('',*,*,#544,.F.);
#697=ORIENTED_EDGE('',*,*,#544,.T.);
#698=ORIENTED_EDGE('',*,*,#545,.T.);
#699=ORIENTED_EDGE('',*,*,#546,.T.);
#700=ORIENTED_EDGE('',*,*,#547,.T.);
#701=ORIENTED_EDGE('',*,*,#504,.F.);
#702=ORIENTED_EDGE('',*,*,#548,.T.);
#703=ORIENTED_EDGE('',*,*,#549,.T.);
#704=ORIENTED_EDGE('',*,*,#550,.T.);
#705=ORIENTED_EDGE('',*,*,#551,.T.);
#706=ORIENTED_EDGE('',*,*,#552,.T.);
#707=ORIENTED_EDGE('',*,*,#553,.T.);
#708=ORIENTED_EDGE('',*,*,#516,.F.);
#709=ORIENTED_EDGE('',*,*,#554,.F.);
#710=ORIENTED_EDGE('',*,*,#555,.F.);
#711=ORIENTED_EDGE('',*,*,#545,.F.);
#712=ORIENTED_EDGE('',*,*,#543,.F.);
#713=ORIENTED_EDGE('',*,*,#522,.F.);
#714=ORIENTED_EDGE('',*,*,#556,.F.);
#715=ORIENTED_EDGE('',*,*,#557,.T.);
#716=ORIENTED_EDGE('',*,*,#558,.F.);
#717=ORIENTED_EDGE('',*,*,#559,.F.);
#718=ORIENTED_EDGE('',*,*,#560,.F.);
#719=ORIENTED_EDGE('',*,*,#561,.T.);
#720=ORIENTED_EDGE('',*,*,#562,.F.);
#721=ORIENTED_EDGE('',*,*,#557,.F.);
#722=ORIENTED_EDGE('',*,*,#563,.F.);
#723=ORIENTED_EDGE('',*,*,#559,.T.);
#724=ORIENTED_EDGE('',*,*,#564,.F.);
#725=ORIENTED_EDGE('',*,*,#565,.F.);
#726=ORIENTED_EDGE('',*,*,#566,.F.);
#727=ORIENTED_EDGE('',*,*,#565,.T.);
#728=ORIENTED_EDGE('',*,*,#567,.F.);
#729=ORIENTED_EDGE('',*,*,#568,.F.);
#730=ORIENTED_EDGE('',*,*,#569,.T.);
#731=ORIENTED_EDGE('',*,*,#567,.T.);
#732=ORIENTED_EDGE('',*,*,#564,.T.);
#733=ORIENTED_EDGE('',*,*,#558,.T.);
#734=ORIENTED_EDGE('',*,*,#562,.T.);
#735=ORIENTED_EDGE('',*,*,#570,.T.);
#736=ORIENTED_EDGE('',*,*,#571,.T.);
#737=ORIENTED_EDGE('',*,*,#572,.T.);
#738=ORIENTED_EDGE('',*,*,#573,.F.);
#739=ORIENTED_EDGE('',*,*,#574,.F.);
#740=ORIENTED_EDGE('',*,*,#575,.F.);
#741=ORIENTED_EDGE('',*,*,#576,.T.);
#742=ORIENTED_EDGE('',*,*,#570,.F.);
#743=ORIENTED_EDGE('',*,*,#561,.F.);
#744=ORIENTED_EDGE('',*,*,#560,.T.);
#745=ORIENTED_EDGE('',*,*,#556,.T.);
#746=ORIENTED_EDGE('',*,*,#563,.T.);
#747=ORIENTED_EDGE('',*,*,#566,.T.);
#748=ORIENTED_EDGE('',*,*,#577,.T.);
#749=ORIENTED_EDGE('',*,*,#505,.T.);
#750=ORIENTED_EDGE('',*,*,#547,.F.);
#751=ORIENTED_EDGE('',*,*,#578,.T.);
#752=ORIENTED_EDGE('',*,*,#579,.T.);
#753=ORIENTED_EDGE('',*,*,#573,.T.);
#754=ORIENTED_EDGE('',*,*,#530,.F.);
#755=ORIENTED_EDGE('',*,*,#580,.T.);
#756=ORIENTED_EDGE('',*,*,#581,.F.);
#757=ORIENTED_EDGE('',*,*,#582,.F.);
#758=ORIENTED_EDGE('',*,*,#531,.F.);
#759=ORIENTED_EDGE('',*,*,#582,.T.);
#760=ORIENTED_EDGE('',*,*,#583,.F.);
#761=ORIENTED_EDGE('',*,*,#584,.F.);
#762=ORIENTED_EDGE('',*,*,#532,.F.);
#763=ORIENTED_EDGE('',*,*,#584,.T.);
#764=ORIENTED_EDGE('',*,*,#585,.F.);
#765=ORIENTED_EDGE('',*,*,#586,.F.);
#766=ORIENTED_EDGE('',*,*,#587,.T.);
#767=ORIENTED_EDGE('',*,*,#588,.T.);
#768=ORIENTED_EDGE('',*,*,#585,.T.);
#769=ORIENTED_EDGE('',*,*,#583,.T.);
#770=ORIENTED_EDGE('',*,*,#581,.T.);
#771=ORIENTED_EDGE('',*,*,#589,.T.);
#772=ORIENTED_EDGE('',*,*,#590,.T.);
#773=ORIENTED_EDGE('',*,*,#591,.T.);
#774=ORIENTED_EDGE('',*,*,#592,.T.);
#775=ORIENTED_EDGE('',*,*,#520,.T.);
#776=ORIENTED_EDGE('',*,*,#533,.F.);
#777=ORIENTED_EDGE('',*,*,#586,.T.);
#778=ORIENTED_EDGE('',*,*,#588,.F.);
#779=ORIENTED_EDGE('',*,*,#593,.F.);
#780=ORIENTED_EDGE('',*,*,#594,.T.);
#781=ORIENTED_EDGE('',*,*,#595,.T.);
#782=ORIENTED_EDGE('',*,*,#528,.T.);
#783=ORIENTED_EDGE('',*,*,#596,.T.);
#784=ORIENTED_EDGE('',*,*,#529,.F.);
#785=ORIENTED_EDGE('',*,*,#595,.F.);
#786=ORIENTED_EDGE('',*,*,#597,.F.);
#787=ORIENTED_EDGE('',*,*,#598,.T.);
#788=ORIENTED_EDGE('',*,*,#589,.F.);
#789=ORIENTED_EDGE('',*,*,#580,.F.);
#790=ORIENTED_EDGE('',*,*,#578,.F.);
#791=ORIENTED_EDGE('',*,*,#546,.F.);
#792=ORIENTED_EDGE('',*,*,#555,.T.);
#793=ORIENTED_EDGE('',*,*,#599,.T.);
#794=ORIENTED_EDGE('',*,*,#600,.T.);
#795=ORIENTED_EDGE('',*,*,#600,.F.);
#796=ORIENTED_EDGE('',*,*,#601,.F.);
#797=ORIENTED_EDGE('',*,*,#574,.T.);
#798=ORIENTED_EDGE('',*,*,#579,.F.);
#799=ORIENTED_EDGE('',*,*,#602,.F.);
#800=ORIENTED_EDGE('',*,*,#506,.T.);
#801=ORIENTED_EDGE('',*,*,#577,.F.);
#802=ORIENTED_EDGE('',*,*,#568,.T.);
#803=ORIENTED_EDGE('',*,*,#569,.F.);
#804=ORIENTED_EDGE('',*,*,#603,.F.);
#805=ORIENTED_EDGE('',*,*,#604,.F.);
#806=ORIENTED_EDGE('',*,*,#603,.T.);
#807=ORIENTED_EDGE('',*,*,#572,.F.);
#808=ORIENTED_EDGE('',*,*,#605,.F.);
#809=ORIENTED_EDGE('',*,*,#606,.F.);
#810=ORIENTED_EDGE('',*,*,#605,.T.);
#811=ORIENTED_EDGE('',*,*,#571,.F.);
#812=ORIENTED_EDGE('',*,*,#576,.F.);
#813=ORIENTED_EDGE('',*,*,#553,.F.);
#814=ORIENTED_EDGE('',*,*,#607,.F.);
#815=ORIENTED_EDGE('',*,*,#608,.F.);
#816=ORIENTED_EDGE('',*,*,#509,.F.);
#817=ORIENTED_EDGE('',*,*,#609,.F.);
#818=ORIENTED_EDGE('',*,*,#524,.F.);
#819=ORIENTED_EDGE('',*,*,#608,.T.);
#820=ORIENTED_EDGE('',*,*,#610,.F.);
#821=ORIENTED_EDGE('',*,*,#611,.T.);
#822=ORIENTED_EDGE('',*,*,#510,.F.);
#823=ORIENTED_EDGE('',*,*,#607,.T.);
#824=ORIENTED_EDGE('',*,*,#552,.F.);
#825=ORIENTED_EDGE('',*,*,#612,.T.);
#826=ORIENTED_EDGE('',*,*,#610,.T.);
#827=ORIENTED_EDGE('',*,*,#613,.F.);
#828=ORIENTED_EDGE('',*,*,#513,.F.);
#829=ORIENTED_EDGE('',*,*,#614,.T.);
#830=ORIENTED_EDGE('',*,*,#615,.F.);
#831=ORIENTED_EDGE('',*,*,#616,.F.);
#832=ORIENTED_EDGE('',*,*,#549,.F.);
#833=ORIENTED_EDGE('',*,*,#617,.F.);
#834=ORIENTED_EDGE('',*,*,#550,.F.);
#835=ORIENTED_EDGE('',*,*,#616,.T.);
#836=ORIENTED_EDGE('',*,*,#618,.F.);
#837=ORIENTED_EDGE('',*,*,#619,.F.);
#838=ORIENTED_EDGE('',*,*,#512,.F.);
#839=ORIENTED_EDGE('',*,*,#620,.T.);
#840=ORIENTED_EDGE('',*,*,#621,.F.);
#841=ORIENTED_EDGE('',*,*,#614,.F.);
#842=ORIENTED_EDGE('',*,*,#611,.F.);
#843=ORIENTED_EDGE('',*,*,#612,.F.);
#844=ORIENTED_EDGE('',*,*,#551,.F.);
#845=ORIENTED_EDGE('',*,*,#619,.T.);
#846=ORIENTED_EDGE('',*,*,#622,.F.);
#847=ORIENTED_EDGE('',*,*,#620,.F.);
#848=ORIENTED_EDGE('',*,*,#511,.F.);
#849=ORIENTED_EDGE('',*,*,#613,.T.);
#850=ORIENTED_EDGE('',*,*,#623,.F.);
#851=ORIENTED_EDGE('',*,*,#502,.F.);
#852=ORIENTED_EDGE('',*,*,#514,.F.);
#853=ORIENTED_EDGE('',*,*,#617,.T.);
#854=ORIENTED_EDGE('',*,*,#548,.F.);
#855=ORIENTED_EDGE('',*,*,#503,.F.);
#856=ORIENTED_EDGE('',*,*,#623,.T.);
#857=ORIENTED_EDGE('',*,*,#615,.T.);
#858=ORIENTED_EDGE('',*,*,#621,.T.);
#859=ORIENTED_EDGE('',*,*,#622,.T.);
#860=ORIENTED_EDGE('',*,*,#618,.T.);
#861=ORIENTED_EDGE('',*,*,#498,.F.);
#862=ORIENTED_EDGE('',*,*,#624,.F.);
#863=ORIENTED_EDGE('',*,*,#541,.F.);
#864=ORIENTED_EDGE('',*,*,#609,.T.);
#865=ORIENTED_EDGE('',*,*,#508,.F.);
#866=ORIENTED_EDGE('',*,*,#625,.F.);
#867=ORIENTED_EDGE('',*,*,#626,.F.);
#868=ORIENTED_EDGE('',*,*,#627,.F.);
#869=ORIENTED_EDGE('',*,*,#628,.F.);
#870=ORIENTED_EDGE('',*,*,#626,.T.);
#871=ORIENTED_EDGE('',*,*,#629,.F.);
#872=ORIENTED_EDGE('',*,*,#536,.T.);
#873=ORIENTED_EDGE('',*,*,#630,.T.);
#874=ORIENTED_EDGE('',*,*,#625,.T.);
#875=ORIENTED_EDGE('',*,*,#631,.F.);
#876=ORIENTED_EDGE('',*,*,#537,.T.);
#877=ORIENTED_EDGE('',*,*,#629,.T.);
#878=ORIENTED_EDGE('',*,*,#628,.T.);
#879=ORIENTED_EDGE('',*,*,#632,.F.);
#880=ORIENTED_EDGE('',*,*,#534,.T.);
#881=ORIENTED_EDGE('',*,*,#631,.T.);
#882=ORIENTED_EDGE('',*,*,#627,.T.);
#883=ORIENTED_EDGE('',*,*,#630,.F.);
#884=ORIENTED_EDGE('',*,*,#535,.T.);
#885=ORIENTED_EDGE('',*,*,#632,.T.);
#886=ORIENTED_EDGE('',*,*,#539,.F.);
#887=ORIENTED_EDGE('',*,*,#633,.F.);
#888=ORIENTED_EDGE('',*,*,#596,.F.);
#889=ORIENTED_EDGE('',*,*,#527,.F.);
#890=ORIENTED_EDGE('',*,*,#634,.F.);
#891=ORIENTED_EDGE('',*,*,#635,.T.);
#892=ORIENTED_EDGE('',*,*,#591,.F.);
#893=ORIENTED_EDGE('',*,*,#636,.F.);
#894=ORIENTED_EDGE('',*,*,#637,.F.);
#895=ORIENTED_EDGE('',*,*,#636,.T.);
#896=ORIENTED_EDGE('',*,*,#590,.F.);
#897=ORIENTED_EDGE('',*,*,#598,.F.);
#898=ORIENTED_EDGE('',*,*,#638,.F.);
#899=ORIENTED_EDGE('',*,*,#593,.T.);
#900=ORIENTED_EDGE('',*,*,#587,.F.);
#901=ORIENTED_EDGE('',*,*,#635,.F.);
#902=ORIENTED_EDGE('',*,*,#497,.F.);
#903=ORIENTED_EDGE('',*,*,#507,.T.);
#904=ORIENTED_EDGE('',*,*,#602,.T.);
#905=ORIENTED_EDGE('',*,*,#604,.T.);
#906=ORIENTED_EDGE('',*,*,#606,.T.);
#907=ORIENTED_EDGE('',*,*,#575,.T.);
#908=ORIENTED_EDGE('',*,*,#601,.T.);
#909=ORIENTED_EDGE('',*,*,#599,.F.);
#910=ORIENTED_EDGE('',*,*,#554,.T.);
#911=ORIENTED_EDGE('',*,*,#515,.F.);
#912=ORIENTED_EDGE('',*,*,#521,.T.);
#913=ORIENTED_EDGE('',*,*,#592,.F.);
#914=ORIENTED_EDGE('',*,*,#638,.T.);
#915=ORIENTED_EDGE('',*,*,#634,.T.);
#916=ORIENTED_EDGE('',*,*,#637,.T.);
#917=ORIENTED_EDGE('',*,*,#597,.T.);
#918=ORIENTED_EDGE('',*,*,#594,.F.);
#919=ORIENTED_EDGE('',*,*,#633,.T.);
#920=ORIENTED_EDGE('',*,*,#538,.F.);
#921=ORIENTED_EDGE('',*,*,#542,.T.);
#922=ORIENTED_EDGE('',*,*,#624,.T.);
#923=PLANE('',#1039);
#924=PLANE('',#1040);
#925=PLANE('',#1041);
#926=PLANE('',#1042);
#927=PLANE('',#1043);
#928=PLANE('',#1044);
#929=PLANE('',#1045);
#930=PLANE('',#1046);
#931=PLANE('',#1047);
#932=PLANE('',#1048);
#933=PLANE('',#1049);
#934=PLANE('',#1050);
#935=PLANE('',#1051);
#936=PLANE('',#1052);
#937=PLANE('',#1053);
#938=PLANE('',#1054);
#939=PLANE('',#1055);
#940=PLANE('',#1056);
#941=PLANE('',#1057);
#942=PLANE('',#1058);
#943=PLANE('',#1059);
#944=PLANE('',#1060);
#945=PLANE('',#1061);
#946=PLANE('',#1062);
#947=PLANE('',#1063);
#948=PLANE('',#1064);
#949=PLANE('',#1065);
#950=PLANE('',#1066);
#951=PLANE('',#1067);
#952=PLANE('',#1068);
#953=PLANE('',#1069);
#954=PLANE('',#1070);
#955=PLANE('',#1071);
#956=PLANE('',#1072);
#957=PLANE('',#1073);
#958=PLANE('',#1074);
#959=PLANE('',#1075);
#960=PLANE('',#1076);
#961=PLANE('',#1077);
#962=PLANE('',#1078);
#963=PLANE('',#1079);
#964=PLANE('',#1080);
#965=PLANE('',#1081);
#966=PLANE('',#1082);
#967=PLANE('',#1083);
#968=PLANE('',#1084);
#969=PLANE('',#1085);
#970=PLANE('',#1086);
#971=PLANE('',#1087);
#972=PLANE('',#1088);
#973=PLANE('',#1089);
#974=ADVANCED_FACE('',(#16),#923,.T.);
#975=ADVANCED_FACE('',(#17),#924,.T.);
#976=ADVANCED_FACE('',(#18),#925,.T.);
#977=ADVANCED_FACE('',(#19),#926,.T.);
#978=ADVANCED_FACE('',(#20),#927,.T.);
#979=ADVANCED_FACE('',(#21,#15),#928,.T.);
#980=ADVANCED_FACE('',(#22),#929,.T.);
#981=ADVANCED_FACE('',(#23),#930,.T.);
#982=ADVANCED_FACE('',(#24),#931,.T.);
#983=ADVANCED_FACE('',(#25),#932,.F.);
#984=ADVANCED_FACE('',(#26),#933,.T.);
#985=ADVANCED_FACE('',(#27),#934,.T.);
#986=ADVANCED_FACE('',(#28),#935,.T.);
#987=ADVANCED_FACE('',(#29),#936,.T.);
#988=ADVANCED_FACE('',(#30),#937,.T.);
#989=ADVANCED_FACE('',(#31),#938,.T.);
#990=ADVANCED_FACE('',(#32),#939,.T.);
#991=ADVANCED_FACE('',(#33),#940,.T.);
#992=ADVANCED_FACE('',(#34),#941,.T.);
#993=ADVANCED_FACE('',(#35),#942,.T.);
#994=ADVANCED_FACE('',(#36),#943,.T.);
#995=ADVANCED_FACE('',(#37),#944,.T.);
#996=ADVANCED_FACE('',(#38),#945,.T.);
#997=ADVANCED_FACE('',(#39),#946,.T.);
#998=ADVANCED_FACE('',(#40),#947,.T.);
#999=ADVANCED_FACE('',(#41),#948,.T.);
#1000=ADVANCED_FACE('',(#42),#949,.T.);
#1001=ADVANCED_FACE('',(#43),#950,.T.);
#1002=ADVANCED_FACE('',(#44),#951,.T.);
#1003=ADVANCED_FACE('',(#45),#952,.T.);
#1004=ADVANCED_FACE('',(#46),#953,.F.);
#1005=ADVANCED_FACE('',(#47),#954,.F.);
#1006=ADVANCED_FACE('',(#48),#955,.F.);
#1007=ADVANCED_FACE('',(#49),#956,.F.);
#1008=ADVANCED_FACE('',(#50),#957,.F.);
#1009=ADVANCED_FACE('',(#51),#958,.F.);
#1010=ADVANCED_FACE('',(#52),#959,.F.);
#1011=ADVANCED_FACE('',(#53),#960,.F.);
#1012=ADVANCED_FACE('',(#54),#961,.F.);
#1013=ADVANCED_FACE('',(#55),#962,.F.);
#1014=ADVANCED_FACE('',(#56),#963,.T.);
#1015=ADVANCED_FACE('',(#57),#964,.F.);
#1016=ADVANCED_FACE('',(#58),#965,.T.);
#1017=ADVANCED_FACE('',(#59),#966,.T.);
#1018=ADVANCED_FACE('',(#60),#967,.T.);
#1019=ADVANCED_FACE('',(#61),#968,.T.);
#1020=ADVANCED_FACE('',(#62),#969,.T.);
#1021=ADVANCED_FACE('',(#63),#970,.T.);
#1022=ADVANCED_FACE('',(#64),#971,.T.);
#1023=ADVANCED_FACE('',(#65),#972,.T.);
#1024=ADVANCED_FACE('',(#66),#973,.T.);
#1025=CLOSED_SHELL('',(#974,#975,#976,#977,#978,#979,#980,#981,#982,#983,
#984,#985,#986,#987,#988,#989,#990,#991,#992,#993,#994,#995,#996,#997,#998,
#999,#1000,#1001,#1002,#1003,#1004,#1005,#1006,#1007,#1008,#1009,#1010,
#1011,#1012,#1013,#1014,#1015,#1016,#1017,#1018,#1019,#1020,#1021,#1022,
#1023,#1024));
#1026=DERIVED_UNIT_ELEMENT(#1028,1.);
#1027=DERIVED_UNIT_ELEMENT(#1629,-3.);
#1028=(
MASS_UNIT()
NAMED_UNIT(*)
SI_UNIT(.KILO.,.GRAM.)
);
#1029=DERIVED_UNIT((#1026,#1027));
#1030=MEASURE_REPRESENTATION_ITEM('density measure',
POSITIVE_RATIO_MEASURE(7850.),#1029);
#1031=PROPERTY_DEFINITION_REPRESENTATION(#1036,#1033);
#1032=PROPERTY_DEFINITION_REPRESENTATION(#1037,#1034);
#1033=REPRESENTATION('material name',(#1035),#1626);
#1034=REPRESENTATION('density',(#1030),#1626);
#1035=DESCRIPTIVE_REPRESENTATION_ITEM('Steel','Steel');
#1036=PROPERTY_DEFINITION('material property','material name',#1636);
#1037=PROPERTY_DEFINITION('material property','density of part',#1636);
#1038=AXIS2_PLACEMENT_3D('',#1336,#1090,#1091);
#1039=AXIS2_PLACEMENT_3D('',#1337,#1092,#1093);
#1040=AXIS2_PLACEMENT_3D('',#1346,#1098,#1099);
#1041=AXIS2_PLACEMENT_3D('',#1360,#1107,#1108);
#1042=AXIS2_PLACEMENT_3D('',#1374,#1116,#1117);
#1043=AXIS2_PLACEMENT_3D('',#1383,#1122,#1123);
#1044=AXIS2_PLACEMENT_3D('',#1389,#1127,#1128);
#1045=AXIS2_PLACEMENT_3D('',#1421,#1145,#1146);
#1046=AXIS2_PLACEMENT_3D('',#1427,#1150,#1151);
#1047=AXIS2_PLACEMENT_3D('',#1431,#1154,#1155);
#1048=AXIS2_PLACEMENT_3D('',#1435,#1158,#1159);
#1049=AXIS2_PLACEMENT_3D('',#1452,#1169,#1170);
#1050=AXIS2_PLACEMENT_3D('',#1456,#1173,#1174);
#1051=AXIS2_PLACEMENT_3D('',#1465,#1179,#1180);
#1052=AXIS2_PLACEMENT_3D('',#1471,#1184,#1185);
#1053=AXIS2_PLACEMENT_3D('',#1477,#1189,#1190);
#1054=AXIS2_PLACEMENT_3D('',#1483,#1194,#1195);
#1055=AXIS2_PLACEMENT_3D('',#1491,#1200,#1201);
#1056=AXIS2_PLACEMENT_3D('',#1499,#1206,#1207);
#1057=AXIS2_PLACEMENT_3D('',#1504,#1211,#1212);
#1058=AXIS2_PLACEMENT_3D('',#1510,#1216,#1217);
#1059=AXIS2_PLACEMENT_3D('',#1514,#1220,#1221);
#1060=AXIS2_PLACEMENT_3D('',#1518,#1224,#1225);
#1061=AXIS2_PLACEMENT_3D('',#1528,#1231,#1232);
#1062=AXIS2_PLACEMENT_3D('',#1532,#1235,#1236);
#1063=AXIS2_PLACEMENT_3D('',#1538,#1240,#1241);
#1064=AXIS2_PLACEMENT_3D('',#1542,#1244,#1245);
#1065=AXIS2_PLACEMENT_3D('',#1546,#1248,#1249);
#1066=AXIS2_PLACEMENT_3D('',#1548,#1251,#1252);
#1067=AXIS2_PLACEMENT_3D('',#1552,#1255,#1256);
#1068=AXIS2_PLACEMENT_3D('',#1556,#1259,#1260);
#1069=AXIS2_PLACEMENT_3D('',#1558,#1262,#1263);
#1070=AXIS2_PLACEMENT_3D('',#1563,#1267,#1268);
#1071=AXIS2_PLACEMENT_3D('',#1567,#1271,#1272);
#1072=AXIS2_PLACEMENT_3D('',#1569,#1274,#1275);
#1073=AXIS2_PLACEMENT_3D('',#1578,#1281,#1282);
#1074=AXIS2_PLACEMENT_3D('',#1582,#1285,#1286);
#1075=AXIS2_PLACEMENT_3D('',#1586,#1289,#1290);
#1076=AXIS2_PLACEMENT_3D('',#1588,#1292,#1293);
#1077=AXIS2_PLACEMENT_3D('',#1590,#1295,#1296);
#1078=AXIS2_PLACEMENT_3D('',#1591,#1297,#1298);
#1079=AXIS2_PLACEMENT_3D('',#1592,#1299,#1300);
#1080=AXIS2_PLACEMENT_3D('',#1594,#1302,#1303);
#1081=AXIS2_PLACEMENT_3D('',#1603,#1308,#1309);
#1082=AXIS2_PLACEMENT_3D('',#1606,#1312,#1313);
#1083=AXIS2_PLACEMENT_3D('',#1608,#1315,#1316);
#1084=AXIS2_PLACEMENT_3D('',#1610,#1318,#1319);
#1085=AXIS2_PLACEMENT_3D('',#1611,#1320,#1321);
#1086=AXIS2_PLACEMENT_3D('',#1613,#1323,#1324);
#1087=AXIS2_PLACEMENT_3D('',#1619,#1328,#1329);
#1088=AXIS2_PLACEMENT_3D('',#1621,#1331,#1332);
#1089=AXIS2_PLACEMENT_3D('',#1623,#1334,#1335);
#1090=DIRECTION('axis',(0.,0.,1.));
#1091=DIRECTION('refdir',(1.,0.,0.));
#1092=DIRECTION('center_axis',(0.707106781186548,0.,-0.707106781186548));
#1093=DIRECTION('ref_axis',(-0.707106781186548,0.,-0.707106781186548));
#1094=DIRECTION('',(0.707106781186548,0.,0.707106781186548));
#1095=DIRECTION('',(0.,-1.,0.));
#1096=DIRECTION('',(-0.707106781186548,0.,-0.707106781186548));
#1097=DIRECTION('',(0.,1.,0.));
#1098=DIRECTION('center_axis',(0.,0.,-1.));
#1099=DIRECTION('ref_axis',(-1.,0.,0.));
#1100=DIRECTION('',(1.,0.,0.));
#1101=DIRECTION('',(-0.707106781186548,0.707106781186548,0.));
#1102=DIRECTION('',(0.,1.,0.));
#1103=DIRECTION('',(-0.707106781186548,0.707106781186548,0.));
#1104=DIRECTION('',(1.,0.,0.));
#1105=DIRECTION('',(0.,-1.,0.));
#1106=DIRECTION('',(-1.,0.,0.));
#1107=DIRECTION('center_axis',(0.,-1.,0.));
#1108=DIRECTION('ref_axis',(0.,0.,-1.));
#1109=DIRECTION('',(0.,0.,1.));
#1110=DIRECTION('',(-1.,0.,0.));
#1111=DIRECTION('',(0.,0.,-1.));
#1112=DIRECTION('',(1.,0.,0.));
#1113=DIRECTION('',(0.,0.,-1.));
#1114=DIRECTION('',(-1.,0.,0.));
#1115=DIRECTION('',(0.,0.,-1.));
#1116=DIRECTION('center_axis',(-0.707106781186547,0.,0.707106781186548));
#1117=DIRECTION('ref_axis',(0.707106781186548,0.,0.707106781186547));
#1118=DIRECTION('',(-0.707106781186548,0.,-0.707106781186547));
#1119=DIRECTION('',(0.,-1.,0.));
#1120=DIRECTION('',(0.707106781186548,0.,0.707106781186547));
#1121=DIRECTION('',(0.,1.,0.));
#1122=DIRECTION('center_axis',(0.,0.,1.));
#1123=DIRECTION('ref_axis',(-1.,0.,0.));
#1124=DIRECTION('',(-1.,0.,0.));
#1125=DIRECTION('',(0.,-1.,0.));
#1126=DIRECTION('',(1.,0.,0.));
#1127=DIRECTION('center_axis',(0.,-1.,0.));
#1128=DIRECTION('ref_axis',(0.,0.,-1.));
#1129=DIRECTION('',(0.,0.,-1.));
#1130=DIRECTION('',(-1.,0.,0.));
#1131=DIRECTION('',(1.,0.,-9.86864910777917E-17));
#1132=DIRECTION('',(1.,0.,0.));
#1133=DIRECTION('',(-0.707106781186548,0.,-0.707106781186548));
#1134=DIRECTION('',(0.,0.,1.));
#1135=DIRECTION('',(-0.707106781186547,0.,-0.707106781186548));
#1136=DIRECTION('',(1.,0.,0.));
#1137=DIRECTION('',(0.,0.,1.));
#1138=DIRECTION('',(-0.707106781186549,0.,0.707106781186546));
#1139=DIRECTION('',(-1.,0.,0.));
#1140=DIRECTION('',(0.,0.,-1.));
#1141=DIRECTION('',(1.65704929048531E-16,0.,-1.));
#1142=DIRECTION('',(-1.,0.,0.));
#1143=DIRECTION('',(0.,0.,1.));
#1144=DIRECTION('',(1.,0.,-3.04170691678125E-17));
#1145=DIRECTION('center_axis',(0.707106781186548,0.,-0.707106781186548));
#1146=DIRECTION('ref_axis',(-0.707106781186548,0.,-0.707106781186548));
#1147=DIRECTION('',(0.707106781186548,0.,0.707106781186548));
#1148=DIRECTION('',(0.,-1.,0.));
#1149=DIRECTION('',(0.,1.,0.));
#1150=DIRECTION('center_axis',(0.,0.,-1.));
#1151=DIRECTION('ref_axis',(-1.,0.,0.));
#1152=DIRECTION('',(0.,1.,0.));
#1153=DIRECTION('',(-1.,0.,0.));
#1154=DIRECTION('center_axis',(0.,0.37301967274122,-0.927823433498008));
#1155=DIRECTION('ref_axis',(0.,-0.927823433498008,-0.37301967274122));
#1156=DIRECTION('',(0.,0.927823433498008,0.37301967274122));
#1157=DIRECTION('',(-0.680156598528734,0.680156598528734,0.273448355189139));
#1158=DIRECTION('center_axis',(0.707106781186548,0.707106781186548,0.));
#1159=DIRECTION('ref_axis',(-0.707106781186548,0.707106781186548,0.));
#1160=DIRECTION('',(0.,0.,1.));
#1161=DIRECTION('',(0.577350269189626,-0.577350269189626,0.577350269189626));
#1162=DIRECTION('',(0.,0.,-1.));
#1163=DIRECTION('',(0.,0.,1.));
#1164=DIRECTION('',(-0.707106781186548,0.707106781186548,0.));
#1165=DIRECTION('',(0.,0.,1.));
#1166=DIRECTION('',(0.707106781186548,-0.707106781186548,0.));
#1167=DIRECTION('',(0.,0.,1.));
#1168=DIRECTION('',(-0.680156598528734,0.680156598528734,0.273448355189139));
#1169=DIRECTION('center_axis',(-1.,0.,0.));
#1170=DIRECTION('ref_axis',(0.,0.,1.));
#1171=DIRECTION('',(0.,0.,1.));
#1172=DIRECTION('',(0.,1.,0.));
#1173=DIRECTION('center_axis',(1.,0.,0.));
#1174=DIRECTION('ref_axis',(0.,0.,1.));
#1175=DIRECTION('',(0.,0.,-1.));
#1176=DIRECTION('',(0.,-1.,0.));
#1177=DIRECTION('',(0.,0.,1.));
#1178=DIRECTION('',(0.,-1.,0.));
#1179=DIRECTION('center_axis',(0.,0.,1.));
#1180=DIRECTION('ref_axis',(-1.,0.,0.));
#1181=DIRECTION('',(1.,0.,0.));
#1182=DIRECTION('',(0.,-1.,0.));
#1183=DIRECTION('',(-1.,0.,0.));
#1184=DIRECTION('center_axis',(0.707106781186545,0.,0.70710678118655));
#1185=DIRECTION('ref_axis',(-0.70710678118655,0.,0.707106781186545));
#1186=DIRECTION('',(0.70710678118655,0.,-0.707106781186545));
#1187=DIRECTION('',(-0.70710678118655,0.,0.707106781186545));
#1188=DIRECTION('',(0.,-1.,0.));
#1189=DIRECTION('center_axis',(0.,0.,1.));
#1190=DIRECTION('ref_axis',(-1.,0.,0.));
#1191=DIRECTION('',(1.,0.,0.));
#1192=DIRECTION('',(-1.,0.,0.));
#1193=DIRECTION('',(0.,-1.,0.));
#1194=DIRECTION('center_axis',(0.,-1.,0.));
#1195=DIRECTION('ref_axis',(0.,0.,-1.));
#1196=DIRECTION('',(0.,0.,1.));
#1197=DIRECTION('',(0.,0.,-1.));
#1198=DIRECTION('',(0.707106781186548,0.,-0.707106781186547));
#1199=DIRECTION('',(1.,0.,0.));
#1200=DIRECTION('center_axis',(-1.,0.,0.));
#1201=DIRECTION('ref_axis',(0.,0.,-1.));
#1202=DIRECTION('',(0.,0.,-1.));
#1203=DIRECTION('',(0.,-1.,0.));
#1204=DIRECTION('',(0.,0.,1.));
#1205=DIRECTION('',(0.,-1.,0.));
#1206=DIRECTION('center_axis',(0.,-1.,0.));
#1207=DIRECTION('ref_axis',(0.,0.,-1.));
#1208=DIRECTION('',(0.,0.,1.));
#1209=DIRECTION('',(0.707106781186548,0.,0.707106781186548));
#1210=DIRECTION('',(1.,0.,1.10882998677381E-16));
#1211=DIRECTION('center_axis',(-1.,0.,0.));
#1212=DIRECTION('ref_axis',(0.,0.,-1.));
#1213=DIRECTION('',(0.,-1.,0.));
#1214=DIRECTION('',(0.,0.,-1.));
#1215=DIRECTION('',(0.,-1.,0.));
#1216=DIRECTION('center_axis',(-0.707106781186546,0.,-0.707106781186549));
#1217=DIRECTION('ref_axis',(0.707106781186549,0.,-0.707106781186546));
#1218=DIRECTION('',(0.707106781186549,0.,-0.707106781186546));
#1219=DIRECTION('',(0.,-1.,0.));
#1220=DIRECTION('center_axis',(0.,0.,-1.));
#1221=DIRECTION('ref_axis',(1.,0.,0.));
#1222=DIRECTION('',(1.,0.,0.));
#1223=DIRECTION('',(0.,-1.,0.));
#1224=DIRECTION('center_axis',(0.,-1.,0.));
#1225=DIRECTION('ref_axis',(0.,0.,-1.));
#1226=DIRECTION('',(-1.,0.,0.));
#1227=DIRECTION('',(0.,0.,-1.));
#1228=DIRECTION('',(1.,0.,0.));
#1229=DIRECTION('',(0.,0.,1.));
#1230=DIRECTION('',(-0.707106781186548,0.,0.707106781186547));
#1231=DIRECTION('center_axis',(-1.,0.,0.));
#1232=DIRECTION('ref_axis',(0.,0.,-1.));
#1233=DIRECTION('',(0.,0.,-1.));
#1234=DIRECTION('',(0.,-1.,0.));
#1235=DIRECTION('center_axis',(0.707106781186548,0.,-0.707106781186547));
#1236=DIRECTION('ref_axis',(-0.707106781186547,0.,-0.707106781186548));
#1237=DIRECTION('',(0.707106781186547,0.,0.707106781186548));
#1238=DIRECTION('',(0.,-1.,0.));
#1239=DIRECTION('',(0.,1.,0.));
#1240=DIRECTION('center_axis',(0.,0.,-1.));
#1241=DIRECTION('ref_axis',(1.,0.,0.));
#1242=DIRECTION('',(-1.,0.,0.));
#1243=DIRECTION('',(0.,-1.,0.));
#1244=DIRECTION('center_axis',(-0.707106781186548,0.,0.707106781186548));
#1245=DIRECTION('ref_axis',(0.707106781186548,0.,0.707106781186548));
#1246=DIRECTION('',(-0.707106781186548,0.,-0.707106781186548));
#1247=DIRECTION('',(0.,-1.,0.));
#1248=DIRECTION('center_axis',(-1.10882998677381E-16,0.,1.));
#1249=DIRECTION('ref_axis',(-1.,0.,-1.10882998677381E-16));
#1250=DIRECTION('',(-1.,0.,-1.10882998677381E-16));
#1251=DIRECTION('center_axis',(1.,0.,0.));
#1252=DIRECTION('ref_axis',(0.,0.,1.));
#1253=DIRECTION('',(0.,0.,-1.));
#1254=DIRECTION('',(0.,-1.,0.));
#1255=DIRECTION('center_axis',(0.,0.,-1.));
#1256=DIRECTION('ref_axis',(1.,0.,0.));
#1257=DIRECTION('',(-1.,0.,0.));
#1258=DIRECTION('',(0.,-1.,0.));
#1259=DIRECTION('center_axis',(-0.707106781186547,0.,-0.707106781186548));
#1260=DIRECTION('ref_axis',(0.707106781186548,0.,-0.707106781186547));
#1261=DIRECTION('',(-0.707106781186548,0.,0.707106781186547));
#1262=DIRECTION('center_axis',(0.,0.37301967274122,-0.927823433498008));
#1263=DIRECTION('ref_axis',(0.,-0.927823433498008,-0.37301967274122));
#1264=DIRECTION('',(0.,0.927823433498008,0.37301967274122));
#1265=DIRECTION('',(-0.680156598528734,0.680156598528734,0.273448355189139));
#1266=DIRECTION('',(0.,-0.927823433498008,-0.37301967274122));
#1267=DIRECTION('center_axis',(0.707106781186548,0.707106781186548,0.));
#1268=DIRECTION('ref_axis',(-0.707106781186548,0.707106781186548,0.));
#1269=DIRECTION('',(0.,0.,-1.));
#1270=DIRECTION('',(0.707106781186547,-0.707106781186547,0.));
#1271=DIRECTION('center_axis',(1.,0.,0.));
#1272=DIRECTION('ref_axis',(0.,1.,0.));
#1273=DIRECTION('',(0.,-1.,0.));
#1274=DIRECTION('center_axis',(0.,0.,-1.));
#1275=DIRECTION('ref_axis',(-1.,0.,0.));
#1276=DIRECTION('',(-0.707106781186548,0.707106781186548,0.));
#1277=DIRECTION('',(0.,1.,0.));
#1278=DIRECTION('',(1.,0.,0.));
#1279=DIRECTION('',(0.,1.,0.));
#1280=DIRECTION('',(0.,1.,0.));
#1281=DIRECTION('center_axis',(-1.,0.,0.));
#1282=DIRECTION('ref_axis',(0.,0.,1.));
#1283=DIRECTION('',(0.,0.,-1.));
#1284=DIRECTION('',(0.,1.,0.));
#1285=DIRECTION('center_axis',(1.,0.,0.));
#1286=DIRECTION('ref_axis',(0.,0.,-1.));
#1287=DIRECTION('',(0.,1.,0.));
#1288=DIRECTION('',(0.,0.,1.));
#1289=DIRECTION('center_axis',(0.,0.,1.));
#1290=DIRECTION('ref_axis',(1.,0.,0.));
#1291=DIRECTION('',(-1.,0.,0.));
#1292=DIRECTION('center_axis',(0.707106781186548,0.707106781186548,0.));
#1293=DIRECTION('ref_axis',(-0.707106781186548,0.707106781186548,0.));
#1294=DIRECTION('',(0.,0.,-1.));
#1295=DIRECTION('center_axis',(1.,0.,0.));
#1296=DIRECTION('ref_axis',(0.,1.,0.));
#1297=DIRECTION('center_axis',(0.,1.,0.));
#1298=DIRECTION('ref_axis',(-1.,0.,0.));
#1299=DIRECTION('center_axis',(1.,0.,0.));
#1300=DIRECTION('ref_axis',(0.,0.,-1.));
#1301=DIRECTION('',(0.,0.,-1.));
#1302=DIRECTION('center_axis',(0.,1.,0.));
#1303=DIRECTION('ref_axis',(-1.,0.,0.));
#1304=DIRECTION('',(-1.,0.,3.04170691678125E-17));
#1305=DIRECTION('',(0.,0.,-1.));
#1306=DIRECTION('',(1.,0.,0.));
#1307=DIRECTION('',(-1.65704929048531E-16,0.,1.));
#1308=DIRECTION('center_axis',(-1.,0.,0.));
#1309=DIRECTION('ref_axis',(0.,0.,1.));
#1310=DIRECTION('',(0.,1.,0.));
#1311=DIRECTION('',(0.,1.,0.));
#1312=DIRECTION('center_axis',(3.04170691678125E-17,0.,1.));
#1313=DIRECTION('ref_axis',(1.,0.,-3.04170691678125E-17));
#1314=DIRECTION('',(0.,1.,0.));
#1315=DIRECTION('center_axis',(1.,0.,1.65704929048531E-16));
#1316=DIRECTION('ref_axis',(1.65704929048531E-16,0.,-1.));
#1317=DIRECTION('',(0.,1.,0.));
#1318=DIRECTION('center_axis',(0.,0.,-1.));
#1319=DIRECTION('ref_axis',(-1.,0.,0.));
#1320=DIRECTION('center_axis',(1.,0.,0.));
#1321=DIRECTION('ref_axis',(0.,0.,-1.));
#1322=DIRECTION('',(0.,0.,-1.));
#1323=DIRECTION('center_axis',(0.707106781186547,0.,0.707106781186548));
#1324=DIRECTION('ref_axis',(-0.707106781186548,0.,0.707106781186547));
#1325=DIRECTION('',(0.707106781186548,0.,-0.707106781186547));
#1326=DIRECTION('',(0.,-1.,0.));
#1327=DIRECTION('',(0.,-1.,0.));
#1328=DIRECTION('center_axis',(1.,0.,0.));
#1329=DIRECTION('ref_axis',(0.,0.,1.));
#1330=DIRECTION('',(0.,0.,-1.));
#1331=DIRECTION('center_axis',(0.,0.,1.));
#1332=DIRECTION('ref_axis',(-1.,0.,0.));
#1333=DIRECTION('',(1.,0.,0.));
#1334=DIRECTION('center_axis',(0.,1.,0.));
#1335=DIRECTION('ref_axis',(-1.,0.,0.));
#1336=CARTESIAN_POINT('',(0.,0.,0.));
#1337=CARTESIAN_POINT('Origin',(-3.26607653691534,26.,-37.8325322999854));
#1338=CARTESIAN_POINT('',(-8.26607653691534,29.,-42.8325322999854));
#1339=CARTESIAN_POINT('',(1.73392346308466,29.,-32.8325322999854));
#1340=CARTESIAN_POINT('',(32.602524993971,29.,-1.96393076909906));
#1341=CARTESIAN_POINT('',(1.73392346308466,10.,-32.8325322999854));
#1342=CARTESIAN_POINT('',(1.73392346308466,26.,-32.8325322999854));
#1343=CARTESIAN_POINT('',(-8.26607653691534,10.,-42.8325322999854));
#1344=CARTESIAN_POINT('',(-2.78700998824129,10.,-37.3534657513113));
#1345=CARTESIAN_POINT('',(-8.26607653691534,26.,-42.8325322999854));
#1346=CARTESIAN_POINT('Origin',(1.73392346308466,26.,-42.8325322999854));
#1347=CARTESIAN_POINT('',(-33.1749077123722,10.,-42.8325322999854));
#1348=CARTESIAN_POINT('',(-43.2660765369153,10.,-42.8325322999854));
#1349=CARTESIAN_POINT('',(-34.7163290686095,11.5414213562373,-42.8325322999854));
#1350=CARTESIAN_POINT('',(-28.4830552575673,5.30814754519511,-42.8325322999854));
#1351=CARTESIAN_POINT('',(-34.7163290686095,17.5916738879315,-42.8325322999854));
#1352=CARTESIAN_POINT('',(-34.7163290686095,18.75,-42.8325322999854));
#1353=CARTESIAN_POINT('',(-43.124655180678,26.,-42.8325322999854));
#1354=CARTESIAN_POINT('',(-27.7204921246438,10.5958369439657,-42.8325322999854));
#1355=CARTESIAN_POINT('',(-76.3163290686095,26.,-42.8325322999854));
#1356=CARTESIAN_POINT('',(-43.2660765369153,26.,-42.8325322999854));
#1357=CARTESIAN_POINT('',(-76.3163290686095,29.,-42.8325322999854));
#1358=CARTESIAN_POINT('',(-76.3163290686095,29.,-42.8325322999854));
#1359=CARTESIAN_POINT('',(-43.2660765369153,29.,-42.8325322999854));
#1360=CARTESIAN_POINT('Origin',(-20.7660765369153,10.,-18.4162661052892));
#1361=CARTESIAN_POINT('',(1.73392346308466,10.,-0.432597480755925));
#1362=CARTESIAN_POINT('',(1.73392346308466,10.,-42.8325322999854));
#1363=CARTESIAN_POINT('',(-33.1749077123722,10.,-0.432597480755923));
#1364=CARTESIAN_POINT('',(18.9587971972376,10.,-0.432597480755921));
#1365=CARTESIAN_POINT('',(-33.1749077123722,10.,-21.0000003129244));
#1366=CARTESIAN_POINT('',(-33.1749077123722,10.,-30.6243992026373));
#1367=CARTESIAN_POINT('',(-1.00000001490116,10.,-21.0000003129244));
#1368=CARTESIAN_POINT('',(-27.883038529228,10.,-21.0000003129244));
#1369=CARTESIAN_POINT('',(-1.00000001490116,10.,-35.0000005215406));
#1370=CARTESIAN_POINT('',(-1.00000001490116,10.,-19.7081332091068));
#1371=CARTESIAN_POINT('',(-33.1749077123722,10.,-35.0000005215406));
#1372=CARTESIAN_POINT('',(-10.8830382759083,10.,-35.0000005215406));
#1373=CARTESIAN_POINT('',(-33.1749077123722,10.,-30.6243992026373));
#1374=CARTESIAN_POINT('Origin',(-35.7660765369153,27.5,43.667000089407));
#1375=CARTESIAN_POINT('',(-28.2660765369153,29.,51.167000089407));
#1376=CARTESIAN_POINT('',(-43.2660765369153,29.,36.167000089407));
#1377=CARTESIAN_POINT('',(-12.1473581033771,29.,67.2857185229452));
#1378=CARTESIAN_POINT('',(-43.2660765369153,26.,36.167000089407));
#1379=CARTESIAN_POINT('',(-43.2660765369153,27.5,36.167000089407));
#1380=CARTESIAN_POINT('',(-28.2660765369153,26.,51.167000089407));
#1381=CARTESIAN_POINT('',(-12.1473581033771,26.,67.2857185229452));
#1382=CARTESIAN_POINT('',(-28.2660765369153,27.5,51.167000089407));
#1383=CARTESIAN_POINT('Origin',(51.6836709313905,29.,51.167000089407));
#1384=CARTESIAN_POINT('',(51.6836709313905,26.,51.167000089407));
#1385=CARTESIAN_POINT('',(-80.3163290686095,26.,51.167000089407));
#1386=CARTESIAN_POINT('',(51.6836709313905,29.,51.167000089407));
#1387=CARTESIAN_POINT('',(51.6836709313905,29.,51.167000089407));
#1388=CARTESIAN_POINT('',(-80.3163290686095,29.,51.167000089407));
#1389=CARTESIAN_POINT('Origin',(53.7087971972376,26.,48.667000089407));
#1390=CARTESIAN_POINT('',(-43.2660765369153,26.,6.00000008940702));
#1391=CARTESIAN_POINT('',(-43.2660765369153,26.,6.00000008940702));
#1392=CARTESIAN_POINT('',(-43.124655180678,26.,6.00000008940702));
#1393=CARTESIAN_POINT('',(56.196234064314,26.,6.00000008940702));
#1394=CARTESIAN_POINT('',(1.73392346308466,26.,6.00000008940702));
#1395=CARTESIAN_POINT('',(1.73392346308466,26.,6.00000008940702));
#1396=CARTESIAN_POINT('',(31.7339234630847,26.,6.00000008940702));
#1397=CARTESIAN_POINT('',(-43.2660765369153,26.,6.00000008940702));
#1398=CARTESIAN_POINT('',(46.7339234630847,26.,21.000000089407));
#1399=CARTESIAN_POINT('',(51.6443918966229,26.,25.9104685229452));
#1400=CARTESIAN_POINT('',(46.7339234630847,26.,37.1670000894069));
#1401=CARTESIAN_POINT('',(46.7339234630847,26.,6.00000008940702));
#1402=CARTESIAN_POINT('',(53.7339234630847,26.,44.167000089407));
#1403=CARTESIAN_POINT('',(53.1026418966229,26.,43.5357185229452));
#1404=CARTESIAN_POINT('',(58.7836709313905,26.,44.167000089407));
#1405=CARTESIAN_POINT('',(60.6836709313905,26.,44.167000089407));
#1406=CARTESIAN_POINT('',(58.7836709313905,26.,48.2084214456443));
#1407=CARTESIAN_POINT('',(58.7836709313905,26.,48.4377107675256));
#1408=CARTESIAN_POINT('',(55.7250922876278,26.,51.267000089407));
#1409=CARTESIAN_POINT('',(55.8710185150302,26.,51.1210738620045));
#1410=CARTESIAN_POINT('',(51.6836709313905,26.,51.267000089407));
#1411=CARTESIAN_POINT('',(52.696234064314,26.,51.267000089407));
#1412=CARTESIAN_POINT('',(51.6836709313905,26.,53.167000089407));
#1413=CARTESIAN_POINT('',(-34.0826726118651,26.,41.500000089407));
#1414=CARTESIAN_POINT('',(-34.0826726118651,26.,14.700000089407));
#1415=CARTESIAN_POINT('',(-34.0826726118651,26.,41.500000089407));
#1416=CARTESIAN_POINT('',(38.9173273881349,26.,41.500000089407));
#1417=CARTESIAN_POINT('',(38.9173273881349,26.,41.500000089407));
#1418=CARTESIAN_POINT('',(38.9173273881349,26.,14.700000089407));
#1419=CARTESIAN_POINT('',(38.9173273881349,26.,14.700000089407));
#1420=CARTESIAN_POINT('',(-34.0826726118651,26.,14.700000089407));
#1421=CARTESIAN_POINT('Origin',(39.2339234630847,26.,13.500000089407));
#1422=CARTESIAN_POINT('',(31.7339234630847,29.,6.00000008940702));
#1423=CARTESIAN_POINT('',(46.7339234630847,29.,21.000000089407));
#1424=CARTESIAN_POINT('',(51.6443918966229,29.,25.9104685229452));
#1425=CARTESIAN_POINT('',(46.7339234630847,26.,21.000000089407));
#1426=CARTESIAN_POINT('',(31.7339234630847,26.,6.00000008940702));
#1427=CARTESIAN_POINT('Origin',(46.7339234630847,26.,6.00000008940702));
#1428=CARTESIAN_POINT('',(1.73392346308466,29.,6.00000008940702));
#1429=CARTESIAN_POINT('',(1.73392346308466,26.,6.00000008940702));
#1430=CARTESIAN_POINT('',(-43.2660765369153,29.,6.00000008940702));
#1431=CARTESIAN_POINT('Origin',(58.6836709313905,26.,6.00000008940702));
#1432=CARTESIAN_POINT('',(-43.2660765369153,26.1414213562373,6.05685675643835));
#1433=CARTESIAN_POINT('',(-43.2660765369153,26.,6.00000008940702));
#1434=CARTESIAN_POINT('',(-11.1583510690529,-5.96630411162514,-6.85164804531357));
#1435=CARTESIAN_POINT('Origin',(-34.7456183904908,17.6209632098128,-42.8325322999854));
#1436=CARTESIAN_POINT('',(-43.2660765369153,26.1414213562373,-24.8325322999854));
#1437=CARTESIAN_POINT('',(-43.2660765369153,26.1414213562373,-18.4162661052892));
#1438=CARTESIAN_POINT('',(-43.124655180678,26.,-24.6911109437481));
#1439=CARTESIAN_POINT('',(-44.8190202620676,27.6943650813896,-26.3854760251377));
#1440=CARTESIAN_POINT('',(-43.124655180678,26.,-41.5825322999854));
#1441=CARTESIAN_POINT('',(-34.7163290686095,17.5916738879315,-35.0000005215406));
#1442=CARTESIAN_POINT('',(-34.7163290686095,17.5916738879315,-42.8325322999854));
#1443=CARTESIAN_POINT('',(-35.0000005215406,17.8753453408626,-35.0000005215406));
#1444=CARTESIAN_POINT('',(-24.4039729941402,7.27931781346219,-35.0000005215406));
#1445=CARTESIAN_POINT('',(-35.0000005215406,17.8753453408626,-21.0000003129244));
#1446=CARTESIAN_POINT('',(-35.0000005215406,17.8753453408626,-38.916266410763));
#1447=CARTESIAN_POINT('',(-34.7163290686095,17.5916738879315,-21.0000003129244));
#1448=CARTESIAN_POINT('',(-32.9039731208001,15.7793179401221,-21.0000003129244));
#1449=CARTESIAN_POINT('',(-34.7163290686095,17.5916738879315,2.61953895705517));
#1450=CARTESIAN_POINT('',(-34.7163290686095,17.5916738879315,-42.8325322999854));
#1451=CARTESIAN_POINT('',(-11.1583510690529,-5.96630411162514,-6.85164804531357));
#1452=CARTESIAN_POINT('Origin',(-43.2660765369153,26.,6.00000008940702));
#1453=CARTESIAN_POINT('',(-43.2660765369153,29.,-24.8325322999854));
#1454=CARTESIAN_POINT('',(-43.2660765369153,29.,6.00000008940702));
#1455=CARTESIAN_POINT('',(-43.2660765369153,27.5,-24.8325322999854));
#1456=CARTESIAN_POINT('Origin',(-83.4163290686095,29.,-39.8739536562227));
#1457=CARTESIAN_POINT('',(-83.4163290686095,26.,-35.8325322999854));
#1458=CARTESIAN_POINT('',(-83.4163290686095,26.,-39.8739536562227));
#1459=CARTESIAN_POINT('',(-83.4163290686095,26.,-40.103242978104));
#1460=CARTESIAN_POINT('',(-83.4163290686095,19.,-35.8325322999854));
#1461=CARTESIAN_POINT('',(-83.4163290686095,29.,-35.8325322999854));
#1462=CARTESIAN_POINT('',(-83.4163290686095,19.,-39.8739536562227));
#1463=CARTESIAN_POINT('',(-83.4163290686095,19.,-39.8739536562227));
#1464=CARTESIAN_POINT('',(-83.4163290686095,29.,-39.8739536562227));
#1465=CARTESIAN_POINT('Origin',(-83.4163290686095,29.,-35.8325322999854));
#1466=CARTESIAN_POINT('',(-85.3163290686095,26.,-35.8325322999854));
#1467=CARTESIAN_POINT('',(-73.853765935686,26.,-35.8325322999854));
#1468=CARTESIAN_POINT('',(-85.3163290686095,19.,-35.8325322999854));
#1469=CARTESIAN_POINT('',(-85.3163290686095,29.,-35.8325322999854));
#1470=CARTESIAN_POINT('',(-83.3163290686095,19.,-35.8325322999854));
#1471=CARTESIAN_POINT('Origin',(-80.3577504248468,29.,-42.9325322999854));
#1472=CARTESIAN_POINT('',(-80.3577504248468,26.,-42.9325322999854));
#1473=CARTESIAN_POINT('',(-76.9911135193257,26.,-46.2991692055065));
#1474=CARTESIAN_POINT('',(-80.3577504248468,19.,-42.9325322999854));
#1475=CARTESIAN_POINT('',(-80.3577504248468,19.,-42.9325322999854));
#1476=CARTESIAN_POINT('',(-80.3577504248468,29.,-42.9325322999854));
#1477=CARTESIAN_POINT('Origin',(-76.3163290686095,29.,-42.9325322999854));
#1478=CARTESIAN_POINT('',(-76.3163290686095,26.,-42.9325322999854));
#1479=CARTESIAN_POINT('',(-70.303765935686,26.,-42.9325322999854));
#1480=CARTESIAN_POINT('',(-76.3163290686095,19.,-42.9325322999854));
#1481=CARTESIAN_POINT('',(-43.1660765369153,19.,-42.9325322999854));
#1482=CARTESIAN_POINT('',(-76.3163290686095,29.,-42.9325322999854));
#1483=CARTESIAN_POINT('Origin',(-80.8163290686095,19.,-40.3325322999854));
#1484=CARTESIAN_POINT('',(-76.3163290686095,19.,-44.8325322999854));
#1485=CARTESIAN_POINT('',(-76.3163290686095,19.,-42.8325322999854));
#1486=CARTESIAN_POINT('',(-85.3163290686095,19.,-40.6609594247316));
#1487=CARTESIAN_POINT('',(-85.3163290686095,19.,-40.6609594247316));
#1488=CARTESIAN_POINT('',(-81.1447561933557,19.,-44.8325322999854));
#1489=CARTESIAN_POINT('',(-81.1447561933557,19.,-44.8325322999854));
#1490=CARTESIAN_POINT('',(-41.2660765369153,19.,-44.8325322999854));
#1491=CARTESIAN_POINT('Origin',(-85.3163290686095,29.,-35.8325322999854));
#1492=CARTESIAN_POINT('',(-85.3163290686095,26.,-31.8325322999854));
#1493=CARTESIAN_POINT('',(-85.3163290686095,26.,-40.6609594247316));
#1494=CARTESIAN_POINT('',(-85.3163290686095,29.,-31.8325322999854));
#1495=CARTESIAN_POINT('',(-85.3163290686095,29.,-31.8325322999854));
#1496=CARTESIAN_POINT('',(-85.3163290686095,29.,-40.6609594247316));
#1497=CARTESIAN_POINT('',(-85.3163290686095,29.,-40.6609594247316));
#1498=CARTESIAN_POINT('',(-85.3163290686095,29.,-40.6609594247316));
#1499=CARTESIAN_POINT('Origin',(-64.2912028027624,26.,-40.3325322999854));
#1500=CARTESIAN_POINT('',(-76.3163290686095,26.,-42.8325322999854));
#1501=CARTESIAN_POINT('',(-50.2660765369153,26.,-31.8325322999854));
#1502=CARTESIAN_POINT('',(-54.1473581033771,26.,-35.7138138664471));
#1503=CARTESIAN_POINT('',(-53.7786396698389,26.,-31.8325322999854));
#1504=CARTESIAN_POINT('Origin',(58.7836709313905,29.,48.2084214456443));
#1505=CARTESIAN_POINT('',(58.7836709313905,19.,44.167000089407));
#1506=CARTESIAN_POINT('',(58.7836709313905,29.,44.167000089407));
#1507=CARTESIAN_POINT('',(58.7836709313905,19.,48.2084214456443));
#1508=CARTESIAN_POINT('',(58.7836709313905,19.,48.2084214456443));
#1509=CARTESIAN_POINT('',(58.7836709313905,29.,48.2084214456443));
#1510=CARTESIAN_POINT('Origin',(55.7250922876278,29.,51.267000089407));
#1511=CARTESIAN_POINT('',(55.7250922876278,19.,51.267000089407));
#1512=CARTESIAN_POINT('',(55.7250922876278,19.,51.267000089407));
#1513=CARTESIAN_POINT('',(55.7250922876278,29.,51.267000089407));
#1514=CARTESIAN_POINT('Origin',(51.6836709313905,29.,51.267000089407));
#1515=CARTESIAN_POINT('',(51.6836709313905,19.,51.267000089407));
#1516=CARTESIAN_POINT('',(-80.3577504248468,19.,51.267000089407));
#1517=CARTESIAN_POINT('',(51.6836709313905,29.,51.267000089407));
#1518=CARTESIAN_POINT('Origin',(56.1836709313905,19.,48.667000089407));
#1519=CARTESIAN_POINT('',(56.5120980561367,19.,53.167000089407));
#1520=CARTESIAN_POINT('',(51.6836709313905,19.,53.167000089407));
#1521=CARTESIAN_POINT('',(-81.1447561933557,19.,53.167000089407));
#1522=CARTESIAN_POINT('',(51.6836709313905,19.,53.167000089407));
#1523=CARTESIAN_POINT('',(60.6836709313905,19.,44.167000089407));
#1524=CARTESIAN_POINT('',(60.6836709313905,19.,44.167000089407));
#1525=CARTESIAN_POINT('',(60.6836709313905,19.,48.9954272141532));
#1526=CARTESIAN_POINT('',(60.6836709313905,19.,48.9954272141532));
#1527=CARTESIAN_POINT('',(56.5120980561367,19.,53.167000089407));
#1528=CARTESIAN_POINT('Origin',(51.6836709313905,29.,53.167000089407));
#1529=CARTESIAN_POINT('',(51.6836709313905,29.,53.167000089407));
#1530=CARTESIAN_POINT('',(51.6836709313905,29.,53.167000089407));
#1531=CARTESIAN_POINT('',(51.6836709313905,29.,53.167000089407));
#1532=CARTESIAN_POINT('Origin',(50.2339234630847,27.5,40.667000089407));
#1533=CARTESIAN_POINT('',(46.7339234630847,29.,37.1670000894069));
#1534=CARTESIAN_POINT('',(53.7339234630847,29.,44.167000089407));
#1535=CARTESIAN_POINT('',(53.1026418966229,29.,43.5357185229452));
#1536=CARTESIAN_POINT('',(53.7339234630847,27.5,44.167000089407));
#1537=CARTESIAN_POINT('',(46.7339234630847,27.5,37.1670000894069));
#1538=CARTESIAN_POINT('Origin',(46.7339234630847,29.,44.167000089407));
#1539=CARTESIAN_POINT('',(60.6836709313905,29.,44.167000089407));
#1540=CARTESIAN_POINT('',(60.6836709313905,29.,44.167000089407));
#1541=CARTESIAN_POINT('',(60.6836709313905,29.,44.167000089407));
#1542=CARTESIAN_POINT('Origin',(-46.7660765369153,27.5,-28.3325322999854));
#1543=CARTESIAN_POINT('',(-50.2660765369153,29.,-31.8325322999854));
#1544=CARTESIAN_POINT('',(-2.39747500602902,29.,16.0360692309009));
#1545=CARTESIAN_POINT('',(-50.2660765369153,27.5,-31.8325322999854));
#1546=CARTESIAN_POINT('Origin',(-43.2660765369153,29.,-31.8325322999854));
#1547=CARTESIAN_POINT('',(5.22136033016113,29.,-31.8325322999854));
#1548=CARTESIAN_POINT('Origin',(-76.3163290686095,29.,-44.8325322999854));
#1549=CARTESIAN_POINT('',(-76.3163290686095,29.,-44.8325322999854));
#1550=CARTESIAN_POINT('',(-76.3163290686095,29.,-42.8325322999854));
#1551=CARTESIAN_POINT('',(-76.3163290686095,29.,-44.8325322999854));
#1552=CARTESIAN_POINT('Origin',(-81.1447561933557,29.,-44.8325322999854));
#1553=CARTESIAN_POINT('',(-81.1447561933557,29.,-44.8325322999854));
#1554=CARTESIAN_POINT('',(-41.2660765369153,29.,-44.8325322999854));
#1555=CARTESIAN_POINT('',(-81.1447561933557,29.,-44.8325322999854));
#1556=CARTESIAN_POINT('Origin',(-85.3163290686095,29.,-40.6609594247316));
#1557=CARTESIAN_POINT('',(-81.1447561933557,29.,-44.8325322999854));
#1558=CARTESIAN_POINT('Origin',(58.6836709313905,26.,6.00000008940702));
#1559=CARTESIAN_POINT('',(-34.7163290686095,11.5414213562373,0.187111473664663));
#1560=CARTESIAN_POINT('',(-34.7163290686095,11.3084099794945,0.0934321976736641));
#1561=CARTESIAN_POINT('',(-12.3162959047086,-10.8586118076636,-8.8185384576902));
#1562=CARTESIAN_POINT('',(1.73392346308466,26.,6.00000008940702));
#1563=CARTESIAN_POINT('Origin',(-33.2456183904908,10.0707106781187,-42.8325322999854));
#1564=CARTESIAN_POINT('',(-34.7163290686095,11.5414213562373,-21.0000003129244));
#1565=CARTESIAN_POINT('',(-34.7163290686095,11.5414213562373,-42.8325322999854));
#1566=CARTESIAN_POINT('',(-33.6665362537236,10.4916285413514,-21.0000003129244));
#1567=CARTESIAN_POINT('Origin',(-34.7163290686095,11.5,-42.8325322999854));
#1568=CARTESIAN_POINT('',(-34.7163290686095,10.75,-21.0000003129244));
#1569=CARTESIAN_POINT('Origin',(-1.00000001490116,10.,-35.0000005215406));
#1570=CARTESIAN_POINT('',(-34.7163290686095,11.5414213562373,-35.0000005215406));
#1571=CARTESIAN_POINT('',(-25.1665361270638,1.99162841469157,-35.0000005215406));
#1572=CARTESIAN_POINT('',(-1.00000001490116,26.,-35.0000005215406));
#1573=CARTESIAN_POINT('',(-1.00000001490116,10.,-35.0000005215406));
#1574=CARTESIAN_POINT('',(-35.0000005215406,26.,-35.0000005215406));
#1575=CARTESIAN_POINT('',(0.36696172409175,26.,-35.0000005215406));
#1576=CARTESIAN_POINT('',(-35.0000005215406,10.,-35.0000005215406));
#1577=CARTESIAN_POINT('',(-34.7163290686095,10.75,-35.0000005215406));
#1578=CARTESIAN_POINT('Origin',(-35.0000005215406,10.,-35.0000005215406));
#1579=CARTESIAN_POINT('',(-35.0000005215406,26.,-21.0000003129244));
#1580=CARTESIAN_POINT('',(-35.0000005215406,26.,-3.20825021606682));
#1581=CARTESIAN_POINT('',(-35.0000005215406,10.,-21.0000003129244));
#1582=CARTESIAN_POINT('Origin',(-1.00000001490116,10.,-21.0000003129244));
#1583=CARTESIAN_POINT('',(-1.00000001490116,26.,-21.0000003129244));
#1584=CARTESIAN_POINT('',(-1.00000001490116,10.,-21.0000003129244));
#1585=CARTESIAN_POINT('',(-1.00000001490116,26.,3.7917498882413));
#1586=CARTESIAN_POINT('Origin',(-35.0000005215406,10.,-21.0000003129244));
#1587=CARTESIAN_POINT('',(-16.633038529228,26.,-21.0000003129244));
#1588=CARTESIAN_POINT('Origin',(-33.2456183904908,10.0707106781187,-42.8325322999854));
#1589=CARTESIAN_POINT('',(-34.7163290686095,11.5414213562373,-42.8325322999854));
#1590=CARTESIAN_POINT('Origin',(-34.7163290686095,11.5,-42.8325322999854));
#1591=CARTESIAN_POINT('Origin',(1.73392346308466,26.,28.583500089407));
#1592=CARTESIAN_POINT('Origin',(1.73392346308466,26.,6.00000008940702));
#1593=CARTESIAN_POINT('',(1.73392346308466,29.,-42.8325322999854));
#1594=CARTESIAN_POINT('Origin',(2.4173273881349,27.5,28.100000089407));
#1595=CARTESIAN_POINT('',(38.9173273881349,27.5,14.700000089407));
#1596=CARTESIAN_POINT('',(-34.0826726118651,27.5,14.700000089407));
#1597=CARTESIAN_POINT('',(-15.8326726118651,27.5,14.700000089407));
#1598=CARTESIAN_POINT('',(38.9173273881349,27.5,41.500000089407));
#1599=CARTESIAN_POINT('',(38.9173273881349,27.5,21.400000089407));
#1600=CARTESIAN_POINT('',(-34.0826726118651,27.5,41.500000089407));
#1601=CARTESIAN_POINT('',(20.6673273881349,27.5,41.500000089407));
#1602=CARTESIAN_POINT('',(-34.0826726118651,27.5,34.800000089407));
#1603=CARTESIAN_POINT('Origin',(38.9173273881349,26.,14.700000089407));
#1604=CARTESIAN_POINT('',(38.9173273881349,26.,14.700000089407));
#1605=CARTESIAN_POINT('',(38.9173273881349,26.,41.500000089407));
#1606=CARTESIAN_POINT('Origin',(-34.0826726118651,26.,14.700000089407));
#1607=CARTESIAN_POINT('',(-34.0826726118651,26.,14.700000089407));
#1608=CARTESIAN_POINT('Origin',(-34.0826726118651,26.,41.500000089407));
#1609=CARTESIAN_POINT('',(-34.0826726118651,26.,41.500000089407));
#1610=CARTESIAN_POINT('Origin',(38.9173273881349,26.,41.500000089407));
#1611=CARTESIAN_POINT('Origin',(46.7339234630847,26.,51.167000089407));
#1612=CARTESIAN_POINT('',(46.7339234630847,29.,6.00000008940702));
#1613=CARTESIAN_POINT('Origin',(60.6836709313905,29.,48.9954272141532));
#1614=CARTESIAN_POINT('',(56.5120980561367,29.,53.167000089407));
#1615=CARTESIAN_POINT('',(60.6836709313905,29.,48.9954272141532));
#1616=CARTESIAN_POINT('',(56.5120980561367,29.,53.167000089407));
#1617=CARTESIAN_POINT('',(56.5120980561367,29.,53.167000089407));
#1618=CARTESIAN_POINT('',(60.6836709313905,29.,48.9954272141532));
#1619=CARTESIAN_POINT('Origin',(60.6836709313905,29.,44.167000089407));
#1620=CARTESIAN_POINT('',(60.6836709313905,29.,48.9954272141532));
#1621=CARTESIAN_POINT('Origin',(56.5120980561367,29.,53.167000089407));
#1622=CARTESIAN_POINT('',(-81.1447561933557,29.,53.167000089407));
#1623=CARTESIAN_POINT('Origin',(53.7087971972376,29.,48.667000089407));
#1624=UNCERTAINTY_MEASURE_WITH_UNIT(LENGTH_MEASURE(0.01),#1628,
'DISTANCE_ACCURACY_VALUE',
'Maximum model space distance between geometric entities at asserted c
onnectivities');
#1625=UNCERTAINTY_MEASURE_WITH_UNIT(LENGTH_MEASURE(0.01),#1628,
'DISTANCE_ACCURACY_VALUE',
'Maximum model space distance between geometric entities at asserted c
onnectivities');
#1626=(
GEOMETRIC_REPRESENTATION_CONTEXT(3)
GLOBAL_UNCERTAINTY_ASSIGNED_CONTEXT((#1624))
GLOBAL_UNIT_ASSIGNED_CONTEXT((#1628,#1630,#1631))
REPRESENTATION_CONTEXT('','3D')
);
#1627=(
GEOMETRIC_REPRESENTATION_CONTEXT(3)
GLOBAL_UNCERTAINTY_ASSIGNED_CONTEXT((#1625))
GLOBAL_UNIT_ASSIGNED_CONTEXT((#1628,#1630,#1631))
REPRESENTATION_CONTEXT('','3D')
);
#1628=(
LENGTH_UNIT()
NAMED_UNIT(*)
SI_UNIT(.MILLI.,.METRE.)
);
#1629=(
LENGTH_UNIT()
NAMED_UNIT(*)
SI_UNIT($,.METRE.)
);
#1630=(
NAMED_UNIT(*)
PLANE_ANGLE_UNIT()
SI_UNIT($,.RADIAN.)
);
#1631=(
NAMED_UNIT(*)
SI_UNIT($,.STERADIAN.)
SOLID_ANGLE_UNIT()
);
#1632=SHAPE_DEFINITION_REPRESENTATION(#1633,#1634);
#1633=PRODUCT_DEFINITION_SHAPE('',$,#1636);
#1634=SHAPE_REPRESENTATION('',(#1038),#1626);
#1635=PRODUCT_DEFINITION_CONTEXT('part definition',#1640,'design');
#1636=PRODUCT_DEFINITION('FusionComponent','FusionComponent',#1637,#1635);
#1637=PRODUCT_DEFINITION_FORMATION('',$,#1642);
#1638=PRODUCT_RELATED_PRODUCT_CATEGORY('FusionComponent',
'FusionComponent',(#1642));
#1639=APPLICATION_PROTOCOL_DEFINITION('international standard',
'automotive_design',2009,#1640);
#1640=APPLICATION_CONTEXT(
'Core Data for Automotive Mechanical Design Process');
#1641=PRODUCT_CONTEXT('part definition',#1640,'mechanical');
#1642=PRODUCT('FusionComponent','FusionComponent',$,(#1641));
#1643=PRESENTATION_STYLE_ASSIGNMENT((#1644));
#1644=SURFACE_STYLE_USAGE(.BOTH.,#1645);
#1645=SURFACE_SIDE_STYLE('',(#1646));
#1646=SURFACE_STYLE_FILL_AREA(#1647);
#1647=FILL_AREA_STYLE('Steel - Satin',(#1648));
#1648=FILL_AREA_STYLE_COLOUR('Steel - Satin',#1649);
#1649=COLOUR_RGB('Steel - Satin',0.627450980392157,0.627450980392157,0.627450980392157);
ENDSEC;
END-ISO-10303-21;
