ISO-10303-21;
HEADER;
/* Generated by software containing ST-Developer
 * from STEP Tools, Inc. (www.steptools.com) 
 */

FILE_DESCRIPTION(
/* description */ (''),
/* implementation_level */ '2;1');

FILE_NAME(
/* name */ 'fan_connection_2.step',
/* time_stamp */ '2026-10-03T22:25:08+03:00',
/* author */ (''),
/* organization */ (''),
/* preprocessor_version */ 'ST-DEVELOPER v20.2',
/* originating_system */ 'Autodesk Translation Framework v15.15.0.0',
/* authorisation */ '');

FILE_SCHEMA (('AUTOMOTIVE_DESIGN { 1 0 10303 214 3 1 1 }'));
ENDSEC;

DATA;
#10=MECHANICAL_DESIGN_GEOMETRIC_PRESENTATION_REPRESENTATION('',(#13),#309);
#11=SHAPE_REPRESENTATION_RELATIONSHIP('SRR','None',#316,#12);
#12=ADVANCED_BREP_SHAPE_REPRESENTATION('',(#14),#308);
#13=STYLED_ITEM('',(#326),#14);
#14=MANIFOLD_SOLID_BREP('Body1',#95);
#15=SPHERICAL_SURFACE('',#120,8.9);
#16=FACE_BOUND('',#32,.T.);
#17=B_SPLINE_CURVE_WITH_KNOTS('',3,(#279,#280,#281,#282,#283,#284,#285,
#286,#287,#288,#289,#290,#291),.UNSPECIFIED.,.F.,.F.,(4,3,3,3,4),(0.341649134104705,
0.347087473484844,0.712768692539687,0.919809886191522,1.),.UNSPECIFIED.);
#18=(
BOUNDED_SURFACE()
B_SPLINE_SURFACE(3,2,((#160,#161,#162,#163,#164,#165,#166,#167,#168),(#169,
#170,#171,#172,#173,#174,#175,#176,#177),(#178,#179,#180,#181,#182,#183,
#184,#185,#186),(#187,#188,#189,#190,#191,#192,#193,#194,#195),(#196,#197,
#198,#199,#200,#201,#202,#203,#204),(#205,#206,#207,#208,#209,#210,#211,
#212,#213),(#214,#215,#216,#217,#218,#219,#220,#221,#222),(#223,#224,#225,
#226,#227,#228,#229,#230,#231),(#232,#233,#234,#235,#236,#237,#238,#239,
#240),(#241,#242,#243,#244,#245,#246,#247,#248,#249),(#250,#251,#252,#253,
#254,#255,#256,#257,#258),(#259,#260,#261,#262,#263,#264,#265,#266,#267),
(#268,#269,#270,#271,#272,#273,#274,#275,#276)),.UNSPECIFIED.,.F.,.T.,.F.)
B_SPLINE_SURFACE_WITH_KNOTS((4,3,3,3,4),(3,2,2,2,3),(0.333503902704273,
0.347087473484844,0.712768692539687,0.919809886191522,1.),(0.,1.5707963267949,
3.14159265358979,4.71238898038469,6.28318530717959),.UNSPECIFIED.)
GEOMETRIC_REPRESENTATION_ITEM()
RATIONAL_B_SPLINE_SURFACE(((1.,0.707106781186548,1.,0.707106781186548,1.,
0.707106781186548,1.,0.707106781186548,1.),(1.,0.707106781186548,1.,0.707106781186548,
1.,0.707106781186548,1.,0.707106781186548,1.),(1.,0.707106781186548,1.,
0.707106781186548,1.,0.707106781186548,1.,0.707106781186548,1.),(1.,0.707106781186548,
1.,0.707106781186548,1.,0.707106781186548,1.,0.707106781186548,1.),(1.,
0.707106781186548,1.,0.707106781186548,1.,0.707106781186548,1.,0.707106781186548,
1.),(1.,0.707106781186548,1.,0.707106781186548,1.,0.707106781186548,1.,
0.707106781186548,1.),(1.,0.707106781186548,1.,0.707106781186548,1.,0.707106781186548,
1.,0.707106781186548,1.),(1.,0.707106781186548,1.,0.707106781186548,1.,
0.707106781186548,1.,0.707106781186548,1.),(1.,0.707106781186548,1.,0.707106781186548,
1.,0.707106781186548,1.,0.707106781186548,1.),(1.,0.707106781186548,1.,
0.707106781186548,1.,0.707106781186548,1.,0.707106781186548,1.),(1.,0.707106781186548,
1.,0.707106781186548,1.,0.707106781186548,1.,0.707106781186548,1.),(1.,
0.707106781186548,1.,0.707106781186548,1.,0.707106781186548,1.,0.707106781186548,
1.),(1.,0.707106781186548,1.,0.707106781186548,1.,0.707106781186548,1.,
0.707106781186548,1.)))
REPRESENTATION_ITEM('')
SURFACE()
);
#19=PLANE('',#112);
#20=PLANE('',#119);
#21=FACE_OUTER_BOUND('',#27,.T.);
#22=FACE_OUTER_BOUND('',#28,.T.);
#23=FACE_OUTER_BOUND('',#29,.T.);
#24=FACE_OUTER_BOUND('',#30,.T.);
#25=FACE_OUTER_BOUND('',#31,.T.);
#26=FACE_OUTER_BOUND('',#33,.T.);
#27=EDGE_LOOP('',(#65,#66,#67,#68));
#28=EDGE_LOOP('',(#69));
#29=EDGE_LOOP('',(#70,#71,#72,#73,#74,#75));
#30=EDGE_LOOP('',(#76,#77,#78,#79,#80));
#31=EDGE_LOOP('',(#81));
#32=EDGE_LOOP('',(#82));
#33=EDGE_LOOP('',(#83,#84,#85,#86));
#34=LINE('',#157,#36);
#35=LINE('',#301,#37);
#36=VECTOR('',#128,1.45);
#37=VECTOR('',#145,7.46660026865437);
#38=CIRCLE('',#110,1.45);
#39=CIRCLE('',#111,1.45);
#40=CIRCLE('',#113,4.27525961818072);
#41=CIRCLE('',#114,4.27525961818072);
#42=CIRCLE('',#115,7.46660026779818);
#43=CIRCLE('',#116,7.46660026779818);
#44=CIRCLE('',#118,7.46660026865439);
#45=CIRCLE('',#121,8.9);
#46=VERTEX_POINT('',#154);
#47=VERTEX_POINT('',#156);
#48=VERTEX_POINT('',#277);
#49=VERTEX_POINT('',#278);
#50=VERTEX_POINT('',#292);
#51=VERTEX_POINT('',#295);
#52=VERTEX_POINT('',#299);
#53=VERTEX_POINT('',#304);
#54=EDGE_CURVE('',#46,#46,#38,.T.);
#55=EDGE_CURVE('',#46,#47,#34,.T.);
#56=EDGE_CURVE('',#47,#47,#39,.T.);
#57=EDGE_CURVE('',#48,#49,#17,.T.);
#58=EDGE_CURVE('',#49,#50,#40,.T.);
#59=EDGE_CURVE('',#50,#49,#41,.T.);
#60=EDGE_CURVE('',#51,#48,#42,.F.);
#61=EDGE_CURVE('',#48,#51,#43,.F.);
#62=EDGE_CURVE('',#52,#52,#44,.T.);
#63=EDGE_CURVE('',#52,#51,#35,.T.);
#64=EDGE_CURVE('',#50,#53,#45,.T.);
#65=ORIENTED_EDGE('',*,*,#54,.F.);
#66=ORIENTED_EDGE('',*,*,#55,.T.);
#67=ORIENTED_EDGE('',*,*,#56,.T.);
#68=ORIENTED_EDGE('',*,*,#55,.F.);
#69=ORIENTED_EDGE('',*,*,#56,.F.);
#70=ORIENTED_EDGE('',*,*,#57,.T.);
#71=ORIENTED_EDGE('',*,*,#58,.T.);
#72=ORIENTED_EDGE('',*,*,#59,.T.);
#73=ORIENTED_EDGE('',*,*,#57,.F.);
#74=ORIENTED_EDGE('',*,*,#60,.F.);
#75=ORIENTED_EDGE('',*,*,#61,.F.);
#76=ORIENTED_EDGE('',*,*,#62,.F.);
#77=ORIENTED_EDGE('',*,*,#63,.T.);
#78=ORIENTED_EDGE('',*,*,#60,.T.);
#79=ORIENTED_EDGE('',*,*,#61,.T.);
#80=ORIENTED_EDGE('',*,*,#63,.F.);
#81=ORIENTED_EDGE('',*,*,#62,.T.);
#82=ORIENTED_EDGE('',*,*,#54,.T.);
#83=ORIENTED_EDGE('',*,*,#58,.F.);
#84=ORIENTED_EDGE('',*,*,#59,.F.);
#85=ORIENTED_EDGE('',*,*,#64,.T.);
#86=ORIENTED_EDGE('',*,*,#64,.F.);
#87=CYLINDRICAL_SURFACE('',#109,1.45);
#88=CYLINDRICAL_SURFACE('',#117,7.46660026865437);
#89=ADVANCED_FACE('',(#21),#87,.F.);
#90=ADVANCED_FACE('',(#22),#19,.F.);
#91=ADVANCED_FACE('',(#23),#18,.T.);
#92=ADVANCED_FACE('',(#24),#88,.T.);
#93=ADVANCED_FACE('',(#25,#16),#20,.T.);
#94=ADVANCED_FACE('',(#26),#15,.T.);
#95=CLOSED_SHELL('',(#89,#90,#91,#92,#93,#94));
#96=DERIVED_UNIT_ELEMENT(#98,1.);
#97=DERIVED_UNIT_ELEMENT(#311,-3.);
#98=(
MASS_UNIT()
NAMED_UNIT(*)
SI_UNIT(.KILO.,.GRAM.)
);
#99=DERIVED_UNIT((#96,#97));
#100=MEASURE_REPRESENTATION_ITEM('density measure',
POSITIVE_RATIO_MEASURE(7850.),#99);
#101=PROPERTY_DEFINITION_REPRESENTATION(#106,#103);
#102=PROPERTY_DEFINITION_REPRESENTATION(#107,#104);
#103=REPRESENTATION('material name',(#105),#308);
#104=REPRESENTATION('density',(#100),#308);
#105=DESCRIPTIVE_REPRESENTATION_ITEM('Acier','Acier');
#106=PROPERTY_DEFINITION('material property','material name',#318);
#107=PROPERTY_DEFINITION('material property','density of part',#318);
#108=AXIS2_PLACEMENT_3D('',#152,#122,#123);
#109=AXIS2_PLACEMENT_3D('',#153,#124,#125);
#110=AXIS2_PLACEMENT_3D('',#155,#126,#127);
#111=AXIS2_PLACEMENT_3D('',#158,#129,#130);
#112=AXIS2_PLACEMENT_3D('',#159,#131,#132);
#113=AXIS2_PLACEMENT_3D('',#293,#133,#134);
#114=AXIS2_PLACEMENT_3D('',#294,#135,#136);
#115=AXIS2_PLACEMENT_3D('',#296,#137,#138);
#116=AXIS2_PLACEMENT_3D('',#297,#139,#140);
#117=AXIS2_PLACEMENT_3D('',#298,#141,#142);
#118=AXIS2_PLACEMENT_3D('',#300,#143,#144);
#119=AXIS2_PLACEMENT_3D('',#302,#146,#147);
#120=AXIS2_PLACEMENT_3D('',#303,#148,#149);
#121=AXIS2_PLACEMENT_3D('',#305,#150,#151);
#122=DIRECTION('axis',(0.,0.,1.));
#123=DIRECTION('refdir',(1.,0.,0.));
#124=DIRECTION('center_axis',(3.33066907387547E-16,1.23259516440783E-32,
-1.));
#125=DIRECTION('ref_axis',(5.55111512312578E-17,-1.,6.16297582203911E-33));
#126=DIRECTION('center_axis',(0.,-1.2335811384724E-16,-1.));
#127=DIRECTION('ref_axis',(5.55111512312578E-17,-1.,6.16297582203911E-33));
#128=DIRECTION('',(3.33066907387547E-16,1.23259516440783E-32,-1.));
#129=DIRECTION('center_axis',(3.33066907387547E-16,1.23259516440783E-32,
-1.));
#130=DIRECTION('ref_axis',(5.55111512312578E-17,-1.,6.16297582203911E-33));
#131=DIRECTION('center_axis',(3.33066907387547E-16,1.23259516440783E-32,
-1.));
#132=DIRECTION('ref_axis',(5.55111512312578E-17,-1.,6.16297582203911E-33));
#133=DIRECTION('center_axis',(0.,1.2335811384724E-16,1.));
#134=DIRECTION('ref_axis',(1.,0.,0.));
#135=DIRECTION('center_axis',(0.,1.2335811384724E-16,1.));
#136=DIRECTION('ref_axis',(1.,0.,0.));
#137=DIRECTION('center_axis',(1.48683408972542E-16,1.48691905928499E-16,
-1.));
#138=DIRECTION('ref_axis',(3.99053097411338E-16,1.,2.97383811856999E-16));
#139=DIRECTION('center_axis',(1.48683408972542E-16,1.48691905928499E-16,
-1.));
#140=DIRECTION('ref_axis',(3.99053097411338E-16,1.,2.97383811856999E-16));
#141=DIRECTION('center_axis',(0.,1.2335811384724E-16,1.));
#142=DIRECTION('ref_axis',(0.,-1.,1.2335811384724E-16));
#143=DIRECTION('center_axis',(0.,1.2335811384724E-16,1.));
#144=DIRECTION('ref_axis',(1.,0.,0.));
#145=DIRECTION('',(0.,-1.2335811384724E-16,-1.));
#146=DIRECTION('center_axis',(0.,1.2335811384724E-16,1.));
#147=DIRECTION('ref_axis',(1.,0.,0.));
#148=DIRECTION('center_axis',(1.22464679914735E-16,0.,1.));
#149=DIRECTION('ref_axis',(1.,0.,-6.12323399573677E-17));
#150=DIRECTION('center_axis',(1.22464679914735E-16,-1.,-7.49879891330929E-33));
#151=DIRECTION('ref_axis',(-1.,-1.22464679914735E-16,6.12323399573677E-17));
#152=CARTESIAN_POINT('',(0.,0.,0.));
#153=CARTESIAN_POINT('Origin',(-2.02615701994091E-15,8.9363149419568E-32,
4.74999999999999));
#154=CARTESIAN_POINT('',(-4.34380948190959E-15,1.45,12.));
#155=CARTESIAN_POINT('Origin',(-4.44089209850063E-15,-1.09476442525376E-46,
12.));
#156=CARTESIAN_POINT('',(4.85660675209847E-16,1.45,-2.50000000000001));
#157=CARTESIAN_POINT('',(-1.92907440334987E-15,1.45,4.74999999999999));
#158=CARTESIAN_POINT('Origin',(3.88578058618804E-16,1.78726298839136E-31,
-2.50000000000001));
#159=CARTESIAN_POINT('Origin',(3.88578058618804E-16,1.78726298839136E-31,
-2.50000000000001));
#160=CARTESIAN_POINT('Ctrl Pts',(0.,-7.5393227613342,11.1937969256556));
#161=CARTESIAN_POINT('Ctrl Pts',(7.53932276133419,-7.53932276133419,11.1937969256556));
#162=CARTESIAN_POINT('Ctrl Pts',(7.5393227613342,9.57810928810605E-16,11.1937969256556));
#163=CARTESIAN_POINT('Ctrl Pts',(7.53932276133419,7.5393227613342,11.1937969256556));
#164=CARTESIAN_POINT('Ctrl Pts',(0.,7.5393227613342,11.1937969256556));
#165=CARTESIAN_POINT('Ctrl Pts',(-7.53932276133419,7.5393227613342,11.1937969256556));
#166=CARTESIAN_POINT('Ctrl Pts',(-7.5393227613342,9.57810928810605E-16,
11.1937969256556));
#167=CARTESIAN_POINT('Ctrl Pts',(-7.53932276133419,-7.53932276133419,11.1937969256556));
#168=CARTESIAN_POINT('Ctrl Pts',(0.,-7.5393227613342,11.1937969256556));
#169=CARTESIAN_POINT('Ctrl Pts',(0.,-7.49896234807718,11.1717286666987));
#170=CARTESIAN_POINT('Ctrl Pts',(7.49896234807718,-7.49896234807718,11.1717286666987));
#171=CARTESIAN_POINT('Ctrl Pts',(7.49896234807718,9.55088630009787E-16,
11.1717286666987));
#172=CARTESIAN_POINT('Ctrl Pts',(7.49896234807718,7.49896234807718,11.1717286666987));
#173=CARTESIAN_POINT('Ctrl Pts',(0.,7.49896234807718,11.1717286666987));
#174=CARTESIAN_POINT('Ctrl Pts',(-7.49896234807718,7.49896234807718,11.1717286666987));
#175=CARTESIAN_POINT('Ctrl Pts',(-7.49896234807718,9.55088630009787E-16,
11.1717286666987));
#176=CARTESIAN_POINT('Ctrl Pts',(-7.49896234807718,-7.49896234807718,11.1717286666987));
#177=CARTESIAN_POINT('Ctrl Pts',(0.,-7.49896234807718,11.1717286666987));
#178=CARTESIAN_POINT('Ctrl Pts',(0.,-7.4584877446807,11.1493849578704));
#179=CARTESIAN_POINT('Ctrl Pts',(7.4584877446807,-7.4584877446807,11.1493849578704));
#180=CARTESIAN_POINT('Ctrl Pts',(7.4584877446807,9.52332352232375E-16,11.1493849578704));
#181=CARTESIAN_POINT('Ctrl Pts',(7.4584877446807,7.4584877446807,11.1493849578704));
#182=CARTESIAN_POINT('Ctrl Pts',(0.,7.4584877446807,11.1493849578704));
#183=CARTESIAN_POINT('Ctrl Pts',(-7.4584877446807,7.4584877446807,11.1493849578704));
#184=CARTESIAN_POINT('Ctrl Pts',(-7.4584877446807,9.52332352232375E-16,
11.1493849578704));
#185=CARTESIAN_POINT('Ctrl Pts',(-7.4584877446807,-7.4584877446807,11.1493849578704));
#186=CARTESIAN_POINT('Ctrl Pts',(0.,-7.4584877446807,11.1493849578704));
#187=CARTESIAN_POINT('Ctrl Pts',(0.,-7.41792512481249,11.1267827852726));
#188=CARTESIAN_POINT('Ctrl Pts',(7.41792512481249,-7.41792512481249,11.1267827852726));
#189=CARTESIAN_POINT('Ctrl Pts',(7.41792512481249,9.49544190851864E-16,
11.1267827852726));
#190=CARTESIAN_POINT('Ctrl Pts',(7.41792512481249,7.41792512481249,11.1267827852726));
#191=CARTESIAN_POINT('Ctrl Pts',(0.,7.41792512481249,11.1267827852726));
#192=CARTESIAN_POINT('Ctrl Pts',(-7.41792512481249,7.41792512481249,11.1267827852726));
#193=CARTESIAN_POINT('Ctrl Pts',(-7.41792512481249,9.49544190851864E-16,
11.1267827852726));
#194=CARTESIAN_POINT('Ctrl Pts',(-7.41792512481249,-7.41792512481249,11.1267827852726));
#195=CARTESIAN_POINT('Ctrl Pts',(0.,-7.41792512481249,11.1267827852726));
#196=CARTESIAN_POINT('Ctrl Pts',(0.,-6.32594507618783,10.5183131742729));
#197=CARTESIAN_POINT('Ctrl Pts',(6.32594507618783,-6.32594507618783,10.5183131742729));
#198=CARTESIAN_POINT('Ctrl Pts',(6.32594507618783,8.74484527305575E-16,
10.5183131742729));
#199=CARTESIAN_POINT('Ctrl Pts',(6.32594507618783,6.32594507618783,10.5183131742729));
#200=CARTESIAN_POINT('Ctrl Pts',(0.,6.32594507618783,10.5183131742729));
#201=CARTESIAN_POINT('Ctrl Pts',(-6.32594507618783,6.32594507618783,10.5183131742729));
#202=CARTESIAN_POINT('Ctrl Pts',(-6.32594507618783,8.74484527305575E-16,
10.5183131742729));
#203=CARTESIAN_POINT('Ctrl Pts',(-6.32594507618783,-6.32594507618783,10.5183131742729));
#204=CARTESIAN_POINT('Ctrl Pts',(0.,-6.32594507618783,10.5183131742729));
#205=CARTESIAN_POINT('Ctrl Pts',(0.,-5.16249703174415,9.72806107348577));
#206=CARTESIAN_POINT('Ctrl Pts',(5.16249703174415,-5.16249703174415,9.72806107348577));
#207=CARTESIAN_POINT('Ctrl Pts',(5.16249703174416,7.77000518688654E-16,
9.72806107348577));
#208=CARTESIAN_POINT('Ctrl Pts',(5.16249703174415,5.16249703174416,9.72806107348577));
#209=CARTESIAN_POINT('Ctrl Pts',(0.,5.16249703174416,9.72806107348577));
#210=CARTESIAN_POINT('Ctrl Pts',(-5.16249703174415,5.16249703174416,9.72806107348577));
#211=CARTESIAN_POINT('Ctrl Pts',(-5.16249703174416,7.77000518688654E-16,
9.72806107348577));
#212=CARTESIAN_POINT('Ctrl Pts',(-5.16249703174415,-5.16249703174415,9.72806107348577));
#213=CARTESIAN_POINT('Ctrl Pts',(0.,-5.16249703174415,9.72806107348577));
#214=CARTESIAN_POINT('Ctrl Pts',(0.,-4.51542799783893,9.07580683896618));
#215=CARTESIAN_POINT('Ctrl Pts',(4.51542799783893,-4.51542799783893,9.07580683896618));
#216=CARTESIAN_POINT('Ctrl Pts',(4.51542799783893,6.96539666569442E-16,
9.07580683896618));
#217=CARTESIAN_POINT('Ctrl Pts',(4.51542799783893,4.51542799783893,9.07580683896618));
#218=CARTESIAN_POINT('Ctrl Pts',(0.,4.51542799783893,9.07580683896618));
#219=CARTESIAN_POINT('Ctrl Pts',(-4.51542799783893,4.51542799783893,9.07580683896618));
#220=CARTESIAN_POINT('Ctrl Pts',(-4.51542799783893,6.96539666569442E-16,
9.07580683896618));
#221=CARTESIAN_POINT('Ctrl Pts',(-4.51542799783893,-4.51542799783893,9.07580683896618));
#222=CARTESIAN_POINT('Ctrl Pts',(0.,-4.51542799783893,9.07580683896618));
#223=CARTESIAN_POINT('Ctrl Pts',(0.,-4.14907080426705,8.70651389133152));
#224=CARTESIAN_POINT('Ctrl Pts',(4.14907080426705,-4.14907080426705,8.70651389133152));
#225=CARTESIAN_POINT('Ctrl Pts',(4.14907080426705,6.50984385092143E-16,
8.70651389133152));
#226=CARTESIAN_POINT('Ctrl Pts',(4.14907080426705,4.14907080426705,8.70651389133152));
#227=CARTESIAN_POINT('Ctrl Pts',(0.,4.14907080426705,8.70651389133152));
#228=CARTESIAN_POINT('Ctrl Pts',(-4.14907080426705,4.14907080426705,8.70651389133152));
#229=CARTESIAN_POINT('Ctrl Pts',(-4.14907080426705,6.50984385092143E-16,
8.70651389133152));
#230=CARTESIAN_POINT('Ctrl Pts',(-4.14907080426705,-4.14907080426705,8.70651389133152));
#231=CARTESIAN_POINT('Ctrl Pts',(0.,-4.14907080426705,8.70651389133152));
#232=CARTESIAN_POINT('Ctrl Pts',(0.,-3.92459921081638,8.37289868557986));
#233=CARTESIAN_POINT('Ctrl Pts',(3.92459921081638,-3.92459921081638,8.37289868557986));
#234=CARTESIAN_POINT('Ctrl Pts',(3.92459921081638,6.09830242559859E-16,
8.37289868557986));
#235=CARTESIAN_POINT('Ctrl Pts',(3.92459921081638,3.92459921081638,8.37289868557986));
#236=CARTESIAN_POINT('Ctrl Pts',(0.,3.92459921081638,8.37289868557986));
#237=CARTESIAN_POINT('Ctrl Pts',(-3.92459921081638,3.92459921081638,8.37289868557986));
#238=CARTESIAN_POINT('Ctrl Pts',(-3.92459921081638,6.09830242559859E-16,
8.37289868557986));
#239=CARTESIAN_POINT('Ctrl Pts',(-3.92459921081638,-3.92459921081638,8.37289868557986));
#240=CARTESIAN_POINT('Ctrl Pts',(0.,-3.92459921081638,8.37289868557986));
#241=CARTESIAN_POINT('Ctrl Pts',(0.,-4.02452533821373,8.07879081727859));
#242=CARTESIAN_POINT('Ctrl Pts',(4.02452533821373,-4.02452533821373,8.07879081727859));
#243=CARTESIAN_POINT('Ctrl Pts',(4.02452533821373,5.73549650658583E-16,
8.07879081727859));
#244=CARTESIAN_POINT('Ctrl Pts',(4.02452533821373,4.02452533821373,8.07879081727859));
#245=CARTESIAN_POINT('Ctrl Pts',(0.,4.02452533821373,8.07879081727859));
#246=CARTESIAN_POINT('Ctrl Pts',(-4.02452533821373,4.02452533821373,8.07879081727859));
#247=CARTESIAN_POINT('Ctrl Pts',(-4.02452533821373,5.73549650658583E-16,
8.07879081727859));
#248=CARTESIAN_POINT('Ctrl Pts',(-4.02452533821373,-4.02452533821373,8.07879081727859));
#249=CARTESIAN_POINT('Ctrl Pts',(0.,-4.02452533821373,8.07879081727859));
#250=CARTESIAN_POINT('Ctrl Pts',(0.,-4.06322820399178,7.96487849376916));
#251=CARTESIAN_POINT('Ctrl Pts',(4.06322820399178,-4.06322820399178,7.96487849376916));
#252=CARTESIAN_POINT('Ctrl Pts',(4.06322820399179,5.59497641286503E-16,
7.96487849376916));
#253=CARTESIAN_POINT('Ctrl Pts',(4.06322820399178,4.06322820399178,7.96487849376916));
#254=CARTESIAN_POINT('Ctrl Pts',(0.,4.06322820399179,7.96487849376916));
#255=CARTESIAN_POINT('Ctrl Pts',(-4.06322820399178,4.06322820399178,7.96487849376916));
#256=CARTESIAN_POINT('Ctrl Pts',(-4.06322820399179,5.59497641286503E-16,
7.96487849376916));
#257=CARTESIAN_POINT('Ctrl Pts',(-4.06322820399178,-4.06322820399178,7.96487849376916));
#258=CARTESIAN_POINT('Ctrl Pts',(0.,-4.06322820399178,7.96487849376916));
#259=CARTESIAN_POINT('Ctrl Pts',(0.,-4.15301328386883,7.87286275280048));
#260=CARTESIAN_POINT('Ctrl Pts',(4.15301328386883,-4.15301328386883,7.87286275280048));
#261=CARTESIAN_POINT('Ctrl Pts',(4.15301328386883,5.4814675303635E-16,7.87286275280048));
#262=CARTESIAN_POINT('Ctrl Pts',(4.15301328386883,4.15301328386883,7.87286275280048));
#263=CARTESIAN_POINT('Ctrl Pts',(0.,4.15301328386883,7.87286275280048));
#264=CARTESIAN_POINT('Ctrl Pts',(-4.15301328386883,4.15301328386883,7.87286275280048));
#265=CARTESIAN_POINT('Ctrl Pts',(-4.15301328386883,5.4814675303635E-16,
7.87286275280048));
#266=CARTESIAN_POINT('Ctrl Pts',(-4.15301328386883,-4.15301328386883,7.87286275280048));
#267=CARTESIAN_POINT('Ctrl Pts',(0.,-4.15301328386883,7.87286275280048));
#268=CARTESIAN_POINT('Ctrl Pts',(0.,-4.27525750510827,7.80590630647959));
#269=CARTESIAN_POINT('Ctrl Pts',(4.27525750510826,-4.27525750510826,7.80590630647959));
#270=CARTESIAN_POINT('Ctrl Pts',(4.27525750510827,5.39887132108292E-16,
7.80590630647959));
#271=CARTESIAN_POINT('Ctrl Pts',(4.27525750510826,4.27525750510827,7.80590630647959));
#272=CARTESIAN_POINT('Ctrl Pts',(0.,4.27525750510827,7.80590630647959));
#273=CARTESIAN_POINT('Ctrl Pts',(-4.27525750510826,4.27525750510827,7.80590630647959));
#274=CARTESIAN_POINT('Ctrl Pts',(-4.27525750510827,5.39887132108292E-16,
7.80590630647959));
#275=CARTESIAN_POINT('Ctrl Pts',(-4.27525750510826,-4.27525750510826,7.80590630647959));
#276=CARTESIAN_POINT('Ctrl Pts',(0.,-4.27525750510827,7.80590630647959));
#277=CARTESIAN_POINT('',(-1.82878962381162E-15,-7.46660026779818,11.1538045345923));
#278=CARTESIAN_POINT('',(-3.78132450756407E-16,-4.27525891382324,7.80590553491059));
#279=CARTESIAN_POINT('Ctrl Pts',(-1.82878962404956E-15,-7.46660026779818,
11.1538045345923));
#280=CARTESIAN_POINT('Ctrl Pts',(-1.8248193748736E-15,-7.4503904958755,
11.1448394670008));
#281=CARTESIAN_POINT('Ctrl Pts',(-3.62201881711719E-30,-7.43416483795969,
11.1358318260073));
#282=CARTESIAN_POINT('Ctrl Pts',(0.,-7.41792512481252,11.1267827852726));
#283=CARTESIAN_POINT('Ctrl Pts',(-1.54940967782692E-15,-6.32594507618824,
10.5183131742731));
#284=CARTESIAN_POINT('Ctrl Pts',(-1.26444709310664E-15,-5.16249703174415,
9.72806107348577));
#285=CARTESIAN_POINT('Ctrl Pts',(-1.10596088886676E-15,-4.51542799783893,
9.07580683896618));
#286=CARTESIAN_POINT('Ctrl Pts',(-6.01306291559422E-31,-4.14907080426705,
8.70651389133152));
#287=CARTESIAN_POINT('Ctrl Pts',(-8.93223709013637E-31,-3.92459921081638,
8.37289868557986));
#288=CARTESIAN_POINT('Ctrl Pts',(0.,-4.02452533821373,8.07879081727859));
#289=CARTESIAN_POINT('Ctrl Pts',(-9.95203882844756E-16,-4.06322820399178,
7.96487849376917));
#290=CARTESIAN_POINT('Ctrl Pts',(-1.01719488498128E-15,-4.15301328386883,
7.87286275280048));
#291=CARTESIAN_POINT('Ctrl Pts',(-1.04713608383231E-15,-4.27525750510827,
7.80590630647959));
#292=CARTESIAN_POINT('',(-4.27525961818072,-5.23568300692895E-16,7.80590514912609));
#293=CARTESIAN_POINT('Origin',(0.,5.44587375414095E-16,7.80590514912609));
#294=CARTESIAN_POINT('Origin',(0.,5.44587375414095E-16,7.80590514912609));
#295=CARTESIAN_POINT('',(-9.14394811952034E-16,7.46660026865437,11.1538045345923));
#296=CARTESIAN_POINT('Origin',(5.73184057136474E-18,2.22044604925031E-15,
11.1538045345923));
#297=CARTESIAN_POINT('Origin',(5.73184057136474E-18,2.22044604925031E-15,
11.1538045345923));
#298=CARTESIAN_POINT('Origin',(0.,9.98015489610083E-16,11.5197143667189));
#299=CARTESIAN_POINT('',(-9.14394811952034E-16,7.46660026865437,12.));
#300=CARTESIAN_POINT('Origin',(0.,1.05726261943957E-15,12.));
#301=CARTESIAN_POINT('',(-9.14394811952034E-16,7.46660026865437,11.5197143667189));
#302=CARTESIAN_POINT('Origin',(0.,-1.80411241501588E-15,12.));
#303=CARTESIAN_POINT('Origin',(0.,0.,0.));
#304=CARTESIAN_POINT('',(-1.08993565124114E-15,-6.67393103284527E-32,-8.9));
#305=CARTESIAN_POINT('Origin',(0.,0.,0.));
#306=UNCERTAINTY_MEASURE_WITH_UNIT(LENGTH_MEASURE(0.01),#310,
'DISTANCE_ACCURACY_VALUE',
'Maximum model space distance between geometric entities at asserted c
onnectivities');
#307=UNCERTAINTY_MEASURE_WITH_UNIT(LENGTH_MEASURE(0.01),#310,
'DISTANCE_ACCURACY_VALUE',
'Maximum model space distance between geometric entities at asserted c
onnectivities');
#308=(
GEOMETRIC_REPRESENTATION_CONTEXT(3)
GLOBAL_UNCERTAINTY_ASSIGNED_CONTEXT((#306))
GLOBAL_UNIT_ASSIGNED_CONTEXT((#310,#312,#313))
REPRESENTATION_CONTEXT('','3D')
);
#309=(
GEOMETRIC_REPRESENTATION_CONTEXT(3)
GLOBAL_UNCERTAINTY_ASSIGNED_CONTEXT((#307))
GLOBAL_UNIT_ASSIGNED_CONTEXT((#310,#312,#313))
REPRESENTATION_CONTEXT('','3D')
);
#310=(
LENGTH_UNIT()
NAMED_UNIT(*)
SI_UNIT(.MILLI.,.METRE.)
);
#311=(
LENGTH_UNIT()
NAMED_UNIT(*)
SI_UNIT($,.METRE.)
);
#312=(
NAMED_UNIT(*)
PLANE_ANGLE_UNIT()
SI_UNIT($,.RADIAN.)
);
#313=(
NAMED_UNIT(*)
SI_UNIT($,.STERADIAN.)
SOLID_ANGLE_UNIT()
);
#314=SHAPE_DEFINITION_REPRESENTATION(#315,#316);
#315=PRODUCT_DEFINITION_SHAPE('',$,#318);
#316=SHAPE_REPRESENTATION('',(#108),#308);
#317=PRODUCT_DEFINITION_CONTEXT('part definition',#322,'design');
#318=PRODUCT_DEFINITION('Ball','Ball_v3 v1',#319,#317);
#319=PRODUCT_DEFINITION_FORMATION('',$,#324);
#320=PRODUCT_RELATED_PRODUCT_CATEGORY('Ball_v3 v1','Ball_v3 v1',(#324));
#321=APPLICATION_PROTOCOL_DEFINITION('international standard',
'automotive_design',2009,#322);
#322=APPLICATION_CONTEXT(
'Core Data for Automotive Mechanical Design Process');
#323=PRODUCT_CONTEXT('part definition',#322,'mechanical');
#324=PRODUCT('Ball','Ball_v3 v1',$,(#323));
#325=PRESENTATION_STYLE_ASSIGNMENT((#327));
#326=PRESENTATION_STYLE_ASSIGNMENT((#328));
#327=SURFACE_STYLE_USAGE(.BOTH.,#329);
#328=SURFACE_STYLE_USAGE(.BOTH.,#330);
#329=SURFACE_SIDE_STYLE('',(#331));
#330=SURFACE_SIDE_STYLE('',(#332));
#331=SURFACE_STYLE_FILL_AREA(#333);
#332=SURFACE_STYLE_FILL_AREA(#334);
#333=FILL_AREA_STYLE('Steel - Satin',(#335));
#334=FILL_AREA_STYLE('Opaque(165,27,27)',(#336));
#335=FILL_AREA_STYLE_COLOUR('Steel - Satin',#337);
#336=FILL_AREA_STYLE_COLOUR('Opaque(165,27,27)',#338);
#337=COLOUR_RGB('Steel - Satin',0.627450980392157,0.627450980392157,0.627450980392157);
#338=COLOUR_RGB('Opaque(165,27,27)',0.647058823529412,0.105882352941176,
0.105882352941176);
ENDSEC;
END-ISO-10303-21;
