ISO-10303-21;
HEADER;
/* Generated by software containing ST-Developer
 * from STEP Tools, Inc. (www.steptools.com) 
 */

FILE_DESCRIPTION(
/* description */ (''),
/* implementation_level */ '2;1');

FILE_NAME(
/* name */ 'fan_connection_1.step',
/* time_stamp */ '2026-10-03T22:21:04+03:00',
/* author */ (''),
/* organization */ (''),
/* preprocessor_version */ 'ST-DEVELOPER v20.2',
/* originating_system */ 'Autodesk Translation Framework v15.15.0.0',
/* authorisation */ '');

FILE_SCHEMA (('AUTOMOTIVE_DESIGN { 1 0 10303 214 3 1 1 }'));
ENDSEC;

DATA;
#10=MECHANICAL_DESIGN_GEOMETRIC_PRESENTATION_REPRESENTATION('',(#13),#838);
#11=SHAPE_REPRESENTATION_RELATIONSHIP('SRR','None',#845,#12);
#12=ADVANCED_BREP_SHAPE_REPRESENTATION('',(#14),#837);
#13=STYLED_ITEM('',(#854),#14);
#14=MANIFOLD_SOLID_BREP('Body1',#454);
#15=(
BOUNDED_CURVE()
B_SPLINE_CURVE(2,(#694,#695,#696),.UNSPECIFIED.,.F.,.F.)
B_SPLINE_CURVE_WITH_KNOTS((3,3),(0.68954814055247,2.56014294799758),
 .UNSPECIFIED.)
CURVE()
GEOMETRIC_REPRESENTATION_ITEM()
RATIONAL_B_SPLINE_CURVE((1.31718173005656,1.63152836090846,1.31718173005656))
REPRESENTATION_ITEM('')
);
#16=(
BOUNDED_CURVE()
B_SPLINE_CURVE(2,(#700,#701,#702),.UNSPECIFIED.,.F.,.F.)
B_SPLINE_CURVE_WITH_KNOTS((3,3),(0.689548140552466,1.62484554427503),
 .UNSPECIFIED.)
CURVE()
GEOMETRIC_REPRESENTATION_ITEM()
RATIONAL_B_SPLINE_CURVE((1.31718173005656,1.47435504548251,1.47435504548251))
REPRESENTATION_ITEM('')
);
#17=(
BOUNDED_CURVE()
B_SPLINE_CURVE(2,(#707,#708,#709),.UNSPECIFIED.,.F.,.F.)
B_SPLINE_CURVE_WITH_KNOTS((3,3),(1.62484554427503,2.5601429479976),
 .UNSPECIFIED.)
CURVE()
GEOMETRIC_REPRESENTATION_ITEM()
RATIONAL_B_SPLINE_CURVE((1.47435504548251,1.47435504548251,1.31718173005656))
REPRESENTATION_ITEM('')
);
#18=(
BOUNDED_CURVE()
B_SPLINE_CURVE(2,(#721,#722,#723),.UNSPECIFIED.,.F.,.F.)
B_SPLINE_CURVE_WITH_KNOTS((3,3),(2.62106307906244,3.21247568084172),
 .UNSPECIFIED.)
CURVE()
GEOMETRIC_REPRESENTATION_ITEM()
RATIONAL_B_SPLINE_CURVE((1.02253095545081,1.01380740262034,1.))
REPRESENTATION_ITEM('')
);
#19=(
BOUNDED_CURVE()
B_SPLINE_CURVE(2,(#727,#728,#729),.UNSPECIFIED.,.F.,.F.)
B_SPLINE_CURVE_WITH_KNOTS((3,3),(0.,0.591412601767444),.UNSPECIFIED.)
CURVE()
GEOMETRIC_REPRESENTATION_ITEM()
RATIONAL_B_SPLINE_CURVE((1.,1.01380740262007,1.02253095545046))
REPRESENTATION_ITEM('')
);
#20=(
BOUNDED_CURVE()
B_SPLINE_CURVE(2,(#739,#740,#741),.UNSPECIFIED.,.F.,.F.)
B_SPLINE_CURVE_WITH_KNOTS((3,3),(0.282815991719586,0.491365908777711),
 .UNSPECIFIED.)
CURVE()
GEOMETRIC_REPRESENTATION_ITEM()
RATIONAL_B_SPLINE_CURVE((1.0241257807286,1.03252596469743,1.04019604208683))
REPRESENTATION_ITEM('')
);
#21=(
BOUNDED_CURVE()
B_SPLINE_CURVE(2,(#745,#746,#747),.UNSPECIFIED.,.F.,.F.)
B_SPLINE_CURVE_WITH_KNOTS((3,3),(2.04673729743296,2.39078849929454),
 .UNSPECIFIED.)
CURVE()
GEOMETRIC_REPRESENTATION_ITEM()
RATIONAL_B_SPLINE_CURVE((1.00772757141842,1.00451327801028,1.))
REPRESENTATION_ITEM('')
);
#22=(
BOUNDED_CURVE()
B_SPLINE_CURVE(2,(#750,#751,#752),.UNSPECIFIED.,.F.,.F.)
B_SPLINE_CURVE_WITH_KNOTS((3,3),(0.,0.591412601767454),.UNSPECIFIED.)
CURVE()
GEOMETRIC_REPRESENTATION_ITEM()
RATIONAL_B_SPLINE_CURVE((1.,1.01380740262007,1.02253095545047))
REPRESENTATION_ITEM('')
);
#23=(
BOUNDED_CURVE()
B_SPLINE_CURVE(2,(#757,#758,#759),.UNSPECIFIED.,.F.,.F.)
B_SPLINE_CURVE_WITH_KNOTS((3,3),(4.8731754923211,5.08172540939722),
 .UNSPECIFIED.)
CURVE()
GEOMETRIC_REPRESENTATION_ITEM()
RATIONAL_B_SPLINE_CURVE((1.04019604208815,1.03252596469815,1.0241257807286))
REPRESENTATION_ITEM('')
);
#24=(
BOUNDED_CURVE()
B_SPLINE_CURVE(2,(#768,#769,#770),.UNSPECIFIED.,.F.,.F.)
B_SPLINE_CURVE_WITH_KNOTS((3,3),(2.62106307906243,3.21247568084171),
 .UNSPECIFIED.)
CURVE()
GEOMETRIC_REPRESENTATION_ITEM()
RATIONAL_B_SPLINE_CURVE((1.02253095545081,1.01380740262034,1.))
REPRESENTATION_ITEM('')
);
#25=(
BOUNDED_CURVE()
B_SPLINE_CURVE(2,(#784,#785,#786),.UNSPECIFIED.,.F.,.F.)
B_SPLINE_CURVE_WITH_KNOTS((3,3),(0.,0.344051200965535),.UNSPECIFIED.)
CURVE()
GEOMETRIC_REPRESENTATION_ITEM()
RATIONAL_B_SPLINE_CURVE((1.,1.00451327818118,1.00772757171442))
REPRESENTATION_ITEM('')
);
#26=(
BOUNDED_CURVE()
B_SPLINE_CURVE(2,(#789,#790,#791),.UNSPECIFIED.,.F.,.F.)
B_SPLINE_CURVE_WITH_KNOTS((3,3),(4.8731754923211,5.08172540939721),
 .UNSPECIFIED.)
CURVE()
GEOMETRIC_REPRESENTATION_ITEM()
RATIONAL_B_SPLINE_CURVE((1.04019604208815,1.03252596469815,1.0241257807286))
REPRESENTATION_ITEM('')
);
#27=(
BOUNDED_CURVE()
B_SPLINE_CURVE(2,(#795,#796,#797),.UNSPECIFIED.,.F.,.F.)
B_SPLINE_CURVE_WITH_KNOTS((3,3),(0.282815991719574,0.4913659087777),
 .UNSPECIFIED.)
CURVE()
GEOMETRIC_REPRESENTATION_ITEM()
RATIONAL_B_SPLINE_CURVE((1.0241257807286,1.03252596469743,1.04019604208683))
REPRESENTATION_ITEM('')
);
#28=(
BOUNDED_CURVE()
B_SPLINE_CURVE(2,(#802,#803,#804),.UNSPECIFIED.,.F.,.F.)
B_SPLINE_CURVE_WITH_KNOTS((3,3),(0.,0.343727042261618),.UNSPECIFIED.)
CURVE()
GEOMETRIC_REPRESENTATION_ITEM()
RATIONAL_B_SPLINE_CURVE((1.,1.00453051677426,1.00776215957266))
REPRESENTATION_ITEM('')
);
#29=(
BOUNDED_CURVE()
B_SPLINE_CURVE(2,(#817,#818,#819),.UNSPECIFIED.,.F.,.F.)
B_SPLINE_CURVE_WITH_KNOTS((3,3),(2.05413627539404,2.39786331804629),
 .UNSPECIFIED.)
CURVE()
GEOMETRIC_REPRESENTATION_ITEM()
RATIONAL_B_SPLINE_CURVE((1.00776215944171,1.00453051669869,1.))
REPRESENTATION_ITEM('')
);
#30=B_SPLINE_CURVE_WITH_KNOTS('',3,(#655,#656,#657,#658,#659,#660,#661,
#662,#663,#664,#665,#666,#667,#668,#669,#670,#671,#672,#673,#674,#675,#676,
#677,#678,#679,#680),.UNSPECIFIED.,.F.,.F.,(4,2,2,2,2,2,2,2,2,2,2,2,4),
(0.,0.112750488394982,0.225500976789964,0.368263091407191,0.511025206024419,
0.646770049701168,0.782514893377917,0.894221508598732,1.00592812381955,
1.11763473904036,1.22934135426118,1.36508619793793,1.50083104161467),
 .UNSPECIFIED.);
#31=B_SPLINE_CURVE_WITH_KNOTS('',3,(#681,#682,#683,#684,#685,#686,#687,
#688,#689,#690),.UNSPECIFIED.,.F.,.F.,(4,2,2,2,4),(1.50083104161467,1.6435931562319,
1.78635527084913,1.89910575924411,2.01185624763909),.UNSPECIFIED.);
#32=CYLINDRICAL_SURFACE('',#473,1.625);
#33=CYLINDRICAL_SURFACE('',#475,3.);
#34=CYLINDRICAL_SURFACE('',#482,7.46660026865439);
#35=CYLINDRICAL_SURFACE('',#499,40.);
#36=CYLINDRICAL_SURFACE('',#502,40.);
#37=CYLINDRICAL_SURFACE('',#512,2.15);
#38=CYLINDRICAL_SURFACE('',#513,4.25);
#39=CYLINDRICAL_SURFACE('',#514,1.2);
#40=FACE_BOUND('',#83,.T.);
#41=FACE_BOUND('',#91,.T.);
#42=FACE_BOUND('',#96,.T.);
#43=FACE_BOUND('',#101,.T.);
#44=FACE_BOUND('',#106,.T.);
#45=PLANE('',#471);
#46=PLANE('',#480);
#47=PLANE('',#481);
#48=PLANE('',#484);
#49=PLANE('',#488);
#50=PLANE('',#489);
#51=PLANE('',#490);
#52=PLANE('',#497);
#53=PLANE('',#498);
#54=PLANE('',#501);
#55=PLANE('',#506);
#56=FACE_OUTER_BOUND('',#81,.T.);
#57=FACE_OUTER_BOUND('',#82,.T.);
#58=FACE_OUTER_BOUND('',#84,.T.);
#59=FACE_OUTER_BOUND('',#85,.T.);
#60=FACE_OUTER_BOUND('',#86,.T.);
#61=FACE_OUTER_BOUND('',#87,.T.);
#62=FACE_OUTER_BOUND('',#88,.T.);
#63=FACE_OUTER_BOUND('',#89,.T.);
#64=FACE_OUTER_BOUND('',#90,.T.);
#65=FACE_OUTER_BOUND('',#92,.T.);
#66=FACE_OUTER_BOUND('',#93,.T.);
#67=FACE_OUTER_BOUND('',#94,.T.);
#68=FACE_OUTER_BOUND('',#95,.T.);
#69=FACE_OUTER_BOUND('',#97,.T.);
#70=FACE_OUTER_BOUND('',#98,.T.);
#71=FACE_OUTER_BOUND('',#99,.T.);
#72=FACE_OUTER_BOUND('',#100,.T.);
#73=FACE_OUTER_BOUND('',#102,.T.);
#74=FACE_OUTER_BOUND('',#103,.T.);
#75=FACE_OUTER_BOUND('',#104,.T.);
#76=FACE_OUTER_BOUND('',#105,.T.);
#77=FACE_OUTER_BOUND('',#107,.T.);
#78=FACE_OUTER_BOUND('',#108,.T.);
#79=FACE_OUTER_BOUND('',#109,.T.);
#80=FACE_OUTER_BOUND('',#110,.T.);
#81=EDGE_LOOP('',(#293,#294,#295,#296));
#82=EDGE_LOOP('',(#297));
#83=EDGE_LOOP('',(#298));
#84=EDGE_LOOP('',(#299,#300,#301,#302));
#85=EDGE_LOOP('',(#303,#304,#305,#306,#307));
#86=EDGE_LOOP('',(#308,#309,#310,#311,#312,#313,#314,#315));
#87=EDGE_LOOP('',(#316,#317,#318,#319));
#88=EDGE_LOOP('',(#320,#321,#322,#323,#324,#325));
#89=EDGE_LOOP('',(#326,#327,#328,#329));
#90=EDGE_LOOP('',(#330));
#91=EDGE_LOOP('',(#331));
#92=EDGE_LOOP('',(#332,#333,#334,#335,#336));
#93=EDGE_LOOP('',(#337,#338,#339,#340));
#94=EDGE_LOOP('',(#341,#342,#343,#344,#345,#346));
#95=EDGE_LOOP('',(#347,#348,#349,#350,#351,#352,#353,#354,#355,#356,#357));
#96=EDGE_LOOP('',(#358));
#97=EDGE_LOOP('',(#359,#360,#361,#362,#363));
#98=EDGE_LOOP('',(#364,#365,#366,#367));
#99=EDGE_LOOP('',(#368,#369,#370,#371,#372,#373));
#100=EDGE_LOOP('',(#374,#375,#376,#377));
#101=EDGE_LOOP('',(#378,#379));
#102=EDGE_LOOP('',(#380,#381,#382,#383,#384,#385));
#103=EDGE_LOOP('',(#386,#387,#388,#389));
#104=EDGE_LOOP('',(#390,#391,#392,#393,#394));
#105=EDGE_LOOP('',(#395,#396,#397,#398,#399,#400,#401,#402,#403,#404));
#106=EDGE_LOOP('',(#405));
#107=EDGE_LOOP('',(#406,#407,#408,#409,#410));
#108=EDGE_LOOP('',(#411,#412,#413,#414));
#109=EDGE_LOOP('',(#415,#416,#417,#418));
#110=EDGE_LOOP('',(#419,#420,#421,#422));
#111=LINE('',#642,#137);
#112=LINE('',#649,#138);
#113=LINE('',#653,#139);
#114=LINE('',#704,#140);
#115=LINE('',#713,#141);
#116=LINE('',#715,#142);
#117=LINE('',#716,#143);
#118=LINE('',#719,#144);
#119=LINE('',#725,#145);
#120=LINE('',#730,#146);
#121=LINE('',#733,#147);
#122=LINE('',#755,#148);
#123=LINE('',#760,#149);
#124=LINE('',#763,#150);
#125=LINE('',#765,#151);
#126=LINE('',#767,#152);
#127=LINE('',#773,#153);
#128=LINE('',#777,#154);
#129=LINE('',#794,#155);
#130=LINE('',#800,#156);
#131=LINE('',#806,#157);
#132=LINE('',#807,#158);
#133=LINE('',#810,#159);
#134=LINE('',#814,#160);
#135=LINE('',#816,#161);
#136=LINE('',#832,#162);
#137=VECTOR('',#521,2.31);
#138=VECTOR('',#530,1.625);
#139=VECTOR('',#535,3.);
#140=VECTOR('',#540,8.96660026865439);
#141=VECTOR('',#547,1000.);
#142=VECTOR('',#548,10.);
#143=VECTOR('',#549,10.);
#144=VECTOR('',#552,10.);
#145=VECTOR('',#553,10.);
#146=VECTOR('',#554,1000.);
#147=VECTOR('',#557,7.46660026865439);
#148=VECTOR('',#570,10.);
#149=VECTOR('',#571,10.);
#150=VECTOR('',#574,10.);
#151=VECTOR('',#575,10.);
#152=VECTOR('',#576,1000.);
#153=VECTOR('',#579,10.);
#154=VECTOR('',#582,10.);
#155=VECTOR('',#595,10.);
#156=VECTOR('',#598,10.);
#157=VECTOR('',#599,1000.);
#158=VECTOR('',#600,10.);
#159=VECTOR('',#603,10.);
#160=VECTOR('',#608,10.);
#161=VECTOR('',#609,1000.);
#162=VECTOR('',#632,2.15);
#163=CIRCLE('',#469,1.625);
#164=CIRCLE('',#470,2.995);
#165=CIRCLE('',#472,3.);
#166=CIRCLE('',#474,1.625);
#167=CIRCLE('',#477,10.4666002686544);
#168=CIRCLE('',#478,7.46660026865439);
#169=CIRCLE('',#479,10.4666002686544);
#170=CIRCLE('',#483,7.46660026865439);
#171=CIRCLE('',#486,40.);
#172=CIRCLE('',#487,43.);
#173=CIRCLE('',#491,1.2);
#174=CIRCLE('',#492,43.);
#175=CIRCLE('',#493,4.25);
#176=CIRCLE('',#494,2.15);
#177=CIRCLE('',#496,40.);
#178=CIRCLE('',#500,40.);
#179=CIRCLE('',#503,40.);
#180=CIRCLE('',#505,43.);
#181=CIRCLE('',#507,4.25);
#182=CIRCLE('',#508,43.);
#183=CIRCLE('',#509,1.2);
#184=CIRCLE('',#510,2.15);
#185=VERTEX_POINT('',#639);
#186=VERTEX_POINT('',#641);
#187=VERTEX_POINT('',#645);
#188=VERTEX_POINT('',#648);
#189=VERTEX_POINT('',#652);
#190=VERTEX_POINT('',#654);
#191=VERTEX_POINT('',#692);
#192=VERTEX_POINT('',#693);
#193=VERTEX_POINT('',#697);
#194=VERTEX_POINT('',#699);
#195=VERTEX_POINT('',#703);
#196=VERTEX_POINT('',#706);
#197=VERTEX_POINT('',#712);
#198=VERTEX_POINT('',#714);
#199=VERTEX_POINT('',#718);
#200=VERTEX_POINT('',#720);
#201=VERTEX_POINT('',#724);
#202=VERTEX_POINT('',#726);
#203=VERTEX_POINT('',#732);
#204=VERTEX_POINT('',#737);
#205=VERTEX_POINT('',#738);
#206=VERTEX_POINT('',#742);
#207=VERTEX_POINT('',#744);
#208=VERTEX_POINT('',#748);
#209=VERTEX_POINT('',#754);
#210=VERTEX_POINT('',#756);
#211=VERTEX_POINT('',#762);
#212=VERTEX_POINT('',#764);
#213=VERTEX_POINT('',#766);
#214=VERTEX_POINT('',#772);
#215=VERTEX_POINT('',#774);
#216=VERTEX_POINT('',#776);
#217=VERTEX_POINT('',#780);
#218=VERTEX_POINT('',#783);
#219=VERTEX_POINT('',#787);
#220=VERTEX_POINT('',#793);
#221=VERTEX_POINT('',#799);
#222=VERTEX_POINT('',#801);
#223=VERTEX_POINT('',#805);
#224=VERTEX_POINT('',#809);
#225=VERTEX_POINT('',#813);
#226=VERTEX_POINT('',#815);
#227=VERTEX_POINT('',#828);
#228=EDGE_CURVE('',#185,#185,#163,.T.);
#229=EDGE_CURVE('',#185,#186,#111,.T.);
#230=EDGE_CURVE('',#186,#186,#164,.T.);
#231=EDGE_CURVE('',#187,#187,#165,.T.);
#232=EDGE_CURVE('',#185,#188,#112,.T.);
#233=EDGE_CURVE('',#188,#188,#166,.T.);
#234=EDGE_CURVE('',#187,#189,#113,.T.);
#235=EDGE_CURVE('',#190,#189,#30,.T.);
#236=EDGE_CURVE('',#189,#190,#31,.T.);
#237=EDGE_CURVE('',#191,#192,#15,.F.);
#238=EDGE_CURVE('',#191,#193,#167,.T.);
#239=EDGE_CURVE('',#194,#193,#16,.F.);
#240=EDGE_CURVE('',#194,#195,#114,.T.);
#241=EDGE_CURVE('',#195,#195,#168,.T.);
#242=EDGE_CURVE('',#196,#194,#17,.F.);
#243=EDGE_CURVE('',#196,#192,#169,.T.);
#244=EDGE_CURVE('',#197,#191,#115,.T.);
#245=EDGE_CURVE('',#198,#197,#116,.T.);
#246=EDGE_CURVE('',#198,#193,#117,.T.);
#247=EDGE_CURVE('',#196,#199,#118,.T.);
#248=EDGE_CURVE('',#200,#199,#18,.T.);
#249=EDGE_CURVE('',#200,#201,#119,.T.);
#250=EDGE_CURVE('',#202,#201,#19,.T.);
#251=EDGE_CURVE('',#192,#202,#120,.T.);
#252=EDGE_CURVE('',#195,#203,#121,.T.);
#253=EDGE_CURVE('',#203,#203,#170,.T.);
#254=EDGE_CURVE('',#204,#205,#20,.T.);
#255=EDGE_CURVE('',#205,#206,#171,.T.);
#256=EDGE_CURVE('',#206,#207,#21,.T.);
#257=EDGE_CURVE('',#207,#208,#172,.T.);
#258=EDGE_CURVE('',#208,#204,#22,.T.);
#259=EDGE_CURVE('',#204,#209,#122,.T.);
#260=EDGE_CURVE('',#210,#209,#23,.T.);
#261=EDGE_CURVE('',#205,#210,#123,.T.);
#262=EDGE_CURVE('',#211,#208,#124,.F.);
#263=EDGE_CURVE('',#211,#212,#125,.T.);
#264=EDGE_CURVE('',#213,#212,#126,.T.);
#265=EDGE_CURVE('',#209,#213,#24,.T.);
#266=EDGE_CURVE('',#207,#214,#127,.F.);
#267=EDGE_CURVE('',#215,#214,#173,.T.);
#268=EDGE_CURVE('',#216,#215,#128,.T.);
#269=EDGE_CURVE('',#199,#216,#174,.T.);
#270=EDGE_CURVE('',#198,#211,#175,.F.);
#271=EDGE_CURVE('',#217,#217,#176,.T.);
#272=EDGE_CURVE('',#216,#218,#25,.T.);
#273=EDGE_CURVE('',#218,#219,#177,.T.);
#274=EDGE_CURVE('',#219,#200,#26,.T.);
#275=EDGE_CURVE('',#219,#220,#129,.T.);
#276=EDGE_CURVE('',#201,#220,#27,.T.);
#277=EDGE_CURVE('',#206,#221,#130,.T.);
#278=EDGE_CURVE('',#222,#221,#28,.T.);
#279=EDGE_CURVE('',#223,#222,#131,.T.);
#280=EDGE_CURVE('',#214,#223,#132,.T.);
#281=EDGE_CURVE('',#218,#224,#133,.T.);
#282=EDGE_CURVE('',#220,#224,#178,.T.);
#283=EDGE_CURVE('',#215,#225,#134,.T.);
#284=EDGE_CURVE('',#226,#225,#135,.T.);
#285=EDGE_CURVE('',#224,#226,#29,.T.);
#286=EDGE_CURVE('',#221,#210,#179,.T.);
#287=EDGE_CURVE('',#213,#222,#180,.T.);
#288=EDGE_CURVE('',#212,#197,#181,.T.);
#289=EDGE_CURVE('',#226,#202,#182,.T.);
#290=EDGE_CURVE('',#225,#223,#183,.T.);
#291=EDGE_CURVE('',#227,#227,#184,.T.);
#292=EDGE_CURVE('',#227,#217,#136,.T.);
#293=ORIENTED_EDGE('',*,*,#228,.T.);
#294=ORIENTED_EDGE('',*,*,#229,.T.);
#295=ORIENTED_EDGE('',*,*,#230,.T.);
#296=ORIENTED_EDGE('',*,*,#229,.F.);
#297=ORIENTED_EDGE('',*,*,#231,.T.);
#298=ORIENTED_EDGE('',*,*,#230,.F.);
#299=ORIENTED_EDGE('',*,*,#228,.F.);
#300=ORIENTED_EDGE('',*,*,#232,.T.);
#301=ORIENTED_EDGE('',*,*,#233,.F.);
#302=ORIENTED_EDGE('',*,*,#232,.F.);
#303=ORIENTED_EDGE('',*,*,#231,.F.);
#304=ORIENTED_EDGE('',*,*,#234,.T.);
#305=ORIENTED_EDGE('',*,*,#235,.F.);
#306=ORIENTED_EDGE('',*,*,#236,.F.);
#307=ORIENTED_EDGE('',*,*,#234,.F.);
#308=ORIENTED_EDGE('',*,*,#237,.F.);
#309=ORIENTED_EDGE('',*,*,#238,.T.);
#310=ORIENTED_EDGE('',*,*,#239,.F.);
#311=ORIENTED_EDGE('',*,*,#240,.T.);
#312=ORIENTED_EDGE('',*,*,#241,.T.);
#313=ORIENTED_EDGE('',*,*,#240,.F.);
#314=ORIENTED_EDGE('',*,*,#242,.F.);
#315=ORIENTED_EDGE('',*,*,#243,.T.);
#316=ORIENTED_EDGE('',*,*,#238,.F.);
#317=ORIENTED_EDGE('',*,*,#244,.F.);
#318=ORIENTED_EDGE('',*,*,#245,.F.);
#319=ORIENTED_EDGE('',*,*,#246,.T.);
#320=ORIENTED_EDGE('',*,*,#243,.F.);
#321=ORIENTED_EDGE('',*,*,#247,.T.);
#322=ORIENTED_EDGE('',*,*,#248,.F.);
#323=ORIENTED_EDGE('',*,*,#249,.T.);
#324=ORIENTED_EDGE('',*,*,#250,.F.);
#325=ORIENTED_EDGE('',*,*,#251,.F.);
#326=ORIENTED_EDGE('',*,*,#241,.F.);
#327=ORIENTED_EDGE('',*,*,#252,.T.);
#328=ORIENTED_EDGE('',*,*,#253,.T.);
#329=ORIENTED_EDGE('',*,*,#252,.F.);
#330=ORIENTED_EDGE('',*,*,#253,.F.);
#331=ORIENTED_EDGE('',*,*,#233,.T.);
#332=ORIENTED_EDGE('',*,*,#254,.T.);
#333=ORIENTED_EDGE('',*,*,#255,.T.);
#334=ORIENTED_EDGE('',*,*,#256,.T.);
#335=ORIENTED_EDGE('',*,*,#257,.T.);
#336=ORIENTED_EDGE('',*,*,#258,.T.);
#337=ORIENTED_EDGE('',*,*,#254,.F.);
#338=ORIENTED_EDGE('',*,*,#259,.T.);
#339=ORIENTED_EDGE('',*,*,#260,.F.);
#340=ORIENTED_EDGE('',*,*,#261,.F.);
#341=ORIENTED_EDGE('',*,*,#258,.F.);
#342=ORIENTED_EDGE('',*,*,#262,.F.);
#343=ORIENTED_EDGE('',*,*,#263,.T.);
#344=ORIENTED_EDGE('',*,*,#264,.F.);
#345=ORIENTED_EDGE('',*,*,#265,.F.);
#346=ORIENTED_EDGE('',*,*,#259,.F.);
#347=ORIENTED_EDGE('',*,*,#257,.F.);
#348=ORIENTED_EDGE('',*,*,#266,.T.);
#349=ORIENTED_EDGE('',*,*,#267,.F.);
#350=ORIENTED_EDGE('',*,*,#268,.F.);
#351=ORIENTED_EDGE('',*,*,#269,.F.);
#352=ORIENTED_EDGE('',*,*,#247,.F.);
#353=ORIENTED_EDGE('',*,*,#242,.T.);
#354=ORIENTED_EDGE('',*,*,#239,.T.);
#355=ORIENTED_EDGE('',*,*,#246,.F.);
#356=ORIENTED_EDGE('',*,*,#270,.T.);
#357=ORIENTED_EDGE('',*,*,#262,.T.);
#358=ORIENTED_EDGE('',*,*,#271,.F.);
#359=ORIENTED_EDGE('',*,*,#248,.T.);
#360=ORIENTED_EDGE('',*,*,#269,.T.);
#361=ORIENTED_EDGE('',*,*,#272,.T.);
#362=ORIENTED_EDGE('',*,*,#273,.T.);
#363=ORIENTED_EDGE('',*,*,#274,.T.);
#364=ORIENTED_EDGE('',*,*,#274,.F.);
#365=ORIENTED_EDGE('',*,*,#275,.T.);
#366=ORIENTED_EDGE('',*,*,#276,.F.);
#367=ORIENTED_EDGE('',*,*,#249,.F.);
#368=ORIENTED_EDGE('',*,*,#256,.F.);
#369=ORIENTED_EDGE('',*,*,#277,.T.);
#370=ORIENTED_EDGE('',*,*,#278,.F.);
#371=ORIENTED_EDGE('',*,*,#279,.F.);
#372=ORIENTED_EDGE('',*,*,#280,.F.);
#373=ORIENTED_EDGE('',*,*,#266,.F.);
#374=ORIENTED_EDGE('',*,*,#273,.F.);
#375=ORIENTED_EDGE('',*,*,#281,.T.);
#376=ORIENTED_EDGE('',*,*,#282,.F.);
#377=ORIENTED_EDGE('',*,*,#275,.F.);
#378=ORIENTED_EDGE('',*,*,#235,.T.);
#379=ORIENTED_EDGE('',*,*,#236,.T.);
#380=ORIENTED_EDGE('',*,*,#272,.F.);
#381=ORIENTED_EDGE('',*,*,#268,.T.);
#382=ORIENTED_EDGE('',*,*,#283,.T.);
#383=ORIENTED_EDGE('',*,*,#284,.F.);
#384=ORIENTED_EDGE('',*,*,#285,.F.);
#385=ORIENTED_EDGE('',*,*,#281,.F.);
#386=ORIENTED_EDGE('',*,*,#255,.F.);
#387=ORIENTED_EDGE('',*,*,#261,.T.);
#388=ORIENTED_EDGE('',*,*,#286,.F.);
#389=ORIENTED_EDGE('',*,*,#277,.F.);
#390=ORIENTED_EDGE('',*,*,#265,.T.);
#391=ORIENTED_EDGE('',*,*,#287,.T.);
#392=ORIENTED_EDGE('',*,*,#278,.T.);
#393=ORIENTED_EDGE('',*,*,#286,.T.);
#394=ORIENTED_EDGE('',*,*,#260,.T.);
#395=ORIENTED_EDGE('',*,*,#287,.F.);
#396=ORIENTED_EDGE('',*,*,#264,.T.);
#397=ORIENTED_EDGE('',*,*,#288,.T.);
#398=ORIENTED_EDGE('',*,*,#244,.T.);
#399=ORIENTED_EDGE('',*,*,#237,.T.);
#400=ORIENTED_EDGE('',*,*,#251,.T.);
#401=ORIENTED_EDGE('',*,*,#289,.F.);
#402=ORIENTED_EDGE('',*,*,#284,.T.);
#403=ORIENTED_EDGE('',*,*,#290,.T.);
#404=ORIENTED_EDGE('',*,*,#279,.T.);
#405=ORIENTED_EDGE('',*,*,#291,.T.);
#406=ORIENTED_EDGE('',*,*,#276,.T.);
#407=ORIENTED_EDGE('',*,*,#282,.T.);
#408=ORIENTED_EDGE('',*,*,#285,.T.);
#409=ORIENTED_EDGE('',*,*,#289,.T.);
#410=ORIENTED_EDGE('',*,*,#250,.T.);
#411=ORIENTED_EDGE('',*,*,#291,.F.);
#412=ORIENTED_EDGE('',*,*,#292,.T.);
#413=ORIENTED_EDGE('',*,*,#271,.T.);
#414=ORIENTED_EDGE('',*,*,#292,.F.);
#415=ORIENTED_EDGE('',*,*,#270,.F.);
#416=ORIENTED_EDGE('',*,*,#245,.T.);
#417=ORIENTED_EDGE('',*,*,#288,.F.);
#418=ORIENTED_EDGE('',*,*,#263,.F.);
#419=ORIENTED_EDGE('',*,*,#267,.T.);
#420=ORIENTED_EDGE('',*,*,#280,.T.);
#421=ORIENTED_EDGE('',*,*,#290,.F.);
#422=ORIENTED_EDGE('',*,*,#283,.F.);
#423=CONICAL_SURFACE('',#468,2.31,0.785398163397448);
#424=CONICAL_SURFACE('',#476,8.96660026865439,0.78539816339745);
#425=CONICAL_SURFACE('',#485,41.5,0.78539816339745);
#426=CONICAL_SURFACE('',#495,41.5,0.785398163397449);
#427=CONICAL_SURFACE('',#504,41.5,0.785398163397449);
#428=CONICAL_SURFACE('',#511,41.5,0.785398163397447);
#429=ADVANCED_FACE('',(#56),#423,.F.);
#430=ADVANCED_FACE('',(#57,#40),#45,.T.);
#431=ADVANCED_FACE('',(#58),#32,.F.);
#432=ADVANCED_FACE('',(#59),#33,.F.);
#433=ADVANCED_FACE('',(#60),#424,.T.);
#434=ADVANCED_FACE('',(#61),#46,.T.);
#435=ADVANCED_FACE('',(#62),#47,.T.);
#436=ADVANCED_FACE('',(#63),#34,.T.);
#437=ADVANCED_FACE('',(#64,#41),#48,.F.);
#438=ADVANCED_FACE('',(#65),#425,.F.);
#439=ADVANCED_FACE('',(#66),#49,.T.);
#440=ADVANCED_FACE('',(#67),#50,.T.);
#441=ADVANCED_FACE('',(#68,#42),#51,.F.);
#442=ADVANCED_FACE('',(#69),#426,.F.);
#443=ADVANCED_FACE('',(#70),#52,.T.);
#444=ADVANCED_FACE('',(#71),#53,.T.);
#445=ADVANCED_FACE('',(#72,#43),#35,.F.);
#446=ADVANCED_FACE('',(#73),#54,.T.);
#447=ADVANCED_FACE('',(#74),#36,.F.);
#448=ADVANCED_FACE('',(#75),#427,.F.);
#449=ADVANCED_FACE('',(#76,#44),#55,.T.);
#450=ADVANCED_FACE('',(#77),#428,.F.);
#451=ADVANCED_FACE('',(#78),#37,.F.);
#452=ADVANCED_FACE('',(#79),#38,.T.);
#453=ADVANCED_FACE('',(#80),#39,.F.);
#454=CLOSED_SHELL('',(#429,#430,#431,#432,#433,#434,#435,#436,#437,#438,
#439,#440,#441,#442,#443,#444,#445,#446,#447,#448,#449,#450,#451,#452,#453));
#455=DERIVED_UNIT_ELEMENT(#457,1.);
#456=DERIVED_UNIT_ELEMENT(#840,-3.);
#457=(
MASS_UNIT()
NAMED_UNIT(*)
SI_UNIT(.KILO.,.GRAM.)
);
#458=DERIVED_UNIT((#455,#456));
#459=MEASURE_REPRESENTATION_ITEM('density measure',
POSITIVE_RATIO_MEASURE(7850.),#458);
#460=PROPERTY_DEFINITION_REPRESENTATION(#465,#462);
#461=PROPERTY_DEFINITION_REPRESENTATION(#466,#463);
#462=REPRESENTATION('material name',(#464),#837);
#463=REPRESENTATION('density',(#459),#837);
#464=DESCRIPTIVE_REPRESENTATION_ITEM('Steel','Steel');
#465=PROPERTY_DEFINITION('material property','material name',#847);
#466=PROPERTY_DEFINITION('material property','density of part',#847);
#467=AXIS2_PLACEMENT_3D('',#637,#515,#516);
#468=AXIS2_PLACEMENT_3D('',#638,#517,#518);
#469=AXIS2_PLACEMENT_3D('',#640,#519,#520);
#470=AXIS2_PLACEMENT_3D('',#643,#522,#523);
#471=AXIS2_PLACEMENT_3D('',#644,#524,#525);
#472=AXIS2_PLACEMENT_3D('',#646,#526,#527);
#473=AXIS2_PLACEMENT_3D('',#647,#528,#529);
#474=AXIS2_PLACEMENT_3D('',#650,#531,#532);
#475=AXIS2_PLACEMENT_3D('',#651,#533,#534);
#476=AXIS2_PLACEMENT_3D('',#691,#536,#537);
#477=AXIS2_PLACEMENT_3D('',#698,#538,#539);
#478=AXIS2_PLACEMENT_3D('',#705,#541,#542);
#479=AXIS2_PLACEMENT_3D('',#710,#543,#544);
#480=AXIS2_PLACEMENT_3D('',#711,#545,#546);
#481=AXIS2_PLACEMENT_3D('',#717,#550,#551);
#482=AXIS2_PLACEMENT_3D('',#731,#555,#556);
#483=AXIS2_PLACEMENT_3D('',#734,#558,#559);
#484=AXIS2_PLACEMENT_3D('',#735,#560,#561);
#485=AXIS2_PLACEMENT_3D('',#736,#562,#563);
#486=AXIS2_PLACEMENT_3D('',#743,#564,#565);
#487=AXIS2_PLACEMENT_3D('',#749,#566,#567);
#488=AXIS2_PLACEMENT_3D('',#753,#568,#569);
#489=AXIS2_PLACEMENT_3D('',#761,#572,#573);
#490=AXIS2_PLACEMENT_3D('',#771,#577,#578);
#491=AXIS2_PLACEMENT_3D('',#775,#580,#581);
#492=AXIS2_PLACEMENT_3D('',#778,#583,#584);
#493=AXIS2_PLACEMENT_3D('',#779,#585,#586);
#494=AXIS2_PLACEMENT_3D('',#781,#587,#588);
#495=AXIS2_PLACEMENT_3D('',#782,#589,#590);
#496=AXIS2_PLACEMENT_3D('',#788,#591,#592);
#497=AXIS2_PLACEMENT_3D('',#792,#593,#594);
#498=AXIS2_PLACEMENT_3D('',#798,#596,#597);
#499=AXIS2_PLACEMENT_3D('',#808,#601,#602);
#500=AXIS2_PLACEMENT_3D('',#811,#604,#605);
#501=AXIS2_PLACEMENT_3D('',#812,#606,#607);
#502=AXIS2_PLACEMENT_3D('',#820,#610,#611);
#503=AXIS2_PLACEMENT_3D('',#821,#612,#613);
#504=AXIS2_PLACEMENT_3D('',#822,#614,#615);
#505=AXIS2_PLACEMENT_3D('',#823,#616,#617);
#506=AXIS2_PLACEMENT_3D('',#824,#618,#619);
#507=AXIS2_PLACEMENT_3D('',#825,#620,#621);
#508=AXIS2_PLACEMENT_3D('',#826,#622,#623);
#509=AXIS2_PLACEMENT_3D('',#827,#624,#625);
#510=AXIS2_PLACEMENT_3D('',#829,#626,#627);
#511=AXIS2_PLACEMENT_3D('',#830,#628,#629);
#512=AXIS2_PLACEMENT_3D('',#831,#630,#631);
#513=AXIS2_PLACEMENT_3D('',#833,#633,#634);
#514=AXIS2_PLACEMENT_3D('',#834,#635,#636);
#515=DIRECTION('axis',(0.,0.,1.));
#516=DIRECTION('refdir',(1.,0.,0.));
#517=DIRECTION('center_axis',(1.,0.,0.));
#518=DIRECTION('ref_axis',(0.,0.,-1.));
#519=DIRECTION('center_axis',(-1.,0.,0.));
#520=DIRECTION('ref_axis',(0.,0.,-1.));
#521=DIRECTION('',(0.707106781186548,8.65956056235493E-17,0.707106781186548));
#522=DIRECTION('center_axis',(1.,0.,0.));
#523=DIRECTION('ref_axis',(0.,0.,-1.));
#524=DIRECTION('center_axis',(1.,0.,0.));
#525=DIRECTION('ref_axis',(0.,0.,-1.));
#526=DIRECTION('center_axis',(1.,0.,0.));
#527=DIRECTION('ref_axis',(0.,0.,-1.));
#528=DIRECTION('center_axis',(-1.,0.,0.));
#529=DIRECTION('ref_axis',(0.,0.,-1.));
#530=DIRECTION('',(-1.,0.,0.));
#531=DIRECTION('center_axis',(1.,-1.2335811384724E-16,1.11022302462516E-16));
#532=DIRECTION('ref_axis',(0.,0.,-1.));
#533=DIRECTION('center_axis',(1.,0.,0.));
#534=DIRECTION('ref_axis',(0.,0.,-1.));
#535=DIRECTION('',(1.,0.,0.));
#536=DIRECTION('center_axis',(1.,0.,0.));
#537=DIRECTION('ref_axis',(-5.95155125642691E-33,5.55111512312579E-17,1.));
#538=DIRECTION('center_axis',(-1.,-1.83697019872103E-16,0.));
#539=DIRECTION('ref_axis',(-1.01972330508517E-32,5.55111512312579E-17,1.));
#540=DIRECTION('',(-0.707106781186547,-4.7343294156455E-17,0.707106781186549));
#541=DIRECTION('center_axis',(1.,1.83697019872103E-16,0.));
#542=DIRECTION('ref_axis',(0.,5.55111512312579E-17,1.));
#543=DIRECTION('center_axis',(-1.,-1.83697019872103E-16,0.));
#544=DIRECTION('ref_axis',(-1.01972330508517E-32,5.55111512312579E-17,1.));
#545=DIRECTION('center_axis',(-1.,-1.83697019872103E-16,0.));
#546=DIRECTION('ref_axis',(1.83697019872103E-16,-1.,6.3732706567823E-33));
#547=DIRECTION('',(1.83697019872103E-16,-1.,6.3732706567823E-33));
#548=DIRECTION('',(0.,0.,1.));
#549=DIRECTION('',(1.83697019872103E-16,-1.,6.3732706567823E-33));
#550=DIRECTION('center_axis',(-1.,-1.83697019872103E-16,0.));
#551=DIRECTION('ref_axis',(1.83697019872103E-16,-1.,6.3732706567823E-33));
#552=DIRECTION('',(1.83697019872103E-16,-1.,6.3732706567823E-33));
#553=DIRECTION('',(0.,0.,1.));
#554=DIRECTION('',(1.83697019872103E-16,-1.,6.3732706567823E-33));
#555=DIRECTION('center_axis',(1.,0.,0.));
#556=DIRECTION('ref_axis',(0.,5.55111512312579E-17,1.));
#557=DIRECTION('',(-1.,0.,0.));
#558=DIRECTION('center_axis',(1.,-1.2335811384724E-16,1.11022302462516E-16));
#559=DIRECTION('ref_axis',(-1.11022302462516E-16,5.55111512312579E-17,1.));
#560=DIRECTION('center_axis',(1.,-1.2335811384724E-16,1.11022302462516E-16));
#561=DIRECTION('ref_axis',(-1.11022302462516E-16,5.55111512312579E-17,1.));
#562=DIRECTION('center_axis',(3.46944695195362E-17,0.,-1.));
#563=DIRECTION('ref_axis',(-1.,0.,-1.79742432450609E-17));
#564=DIRECTION('center_axis',(-3.46944695195361E-17,0.,1.));
#565=DIRECTION('ref_axis',(-1.,0.,0.));
#566=DIRECTION('center_axis',(3.46944695195361E-17,0.,-1.));
#567=DIRECTION('ref_axis',(-1.,0.,-3.46944695195361E-17));
#568=DIRECTION('center_axis',(0.724520225098351,-0.689253540740586,0.));
#569=DIRECTION('ref_axis',(0.689253540740586,0.724520225098351,2.39132859604566E-17));
#570=DIRECTION('',(0.,0.,1.));
#571=DIRECTION('',(0.,0.,1.));
#572=DIRECTION('center_axis',(-4.05741624797134E-16,1.,0.));
#573=DIRECTION('ref_axis',(-1.,-4.05741624797134E-16,-3.46944695195361E-17));
#574=DIRECTION('',(-1.,-4.05741624797134E-16,-3.46944695195361E-17));
#575=DIRECTION('',(0.,0.,1.));
#576=DIRECTION('',(-1.,-4.05741624797134E-16,-3.46944695195361E-17));
#577=DIRECTION('center_axis',(-3.46944695195361E-17,0.,1.));
#578=DIRECTION('ref_axis',(-1.83697019872103E-16,1.,-6.3732706567823E-33));
#579=DIRECTION('',(0.707106781186548,-0.707106781186547,2.4532694666934E-17));
#580=DIRECTION('center_axis',(3.46944695195361E-17,0.,-1.));
#581=DIRECTION('ref_axis',(1.,0.,0.));
#582=DIRECTION('',(-0.707106781186548,0.707106781186548,-2.4532694666934E-17));
#583=DIRECTION('center_axis',(3.46944695195361E-17,0.,-1.));
#584=DIRECTION('ref_axis',(-1.,0.,-3.46944695195361E-17));
#585=DIRECTION('center_axis',(-3.46944695195361E-17,0.,1.));
#586=DIRECTION('ref_axis',(1.,0.,0.));
#587=DIRECTION('center_axis',(3.46944695195361E-17,0.,-1.));
#588=DIRECTION('ref_axis',(1.,0.,0.));
#589=DIRECTION('center_axis',(3.46944695195361E-17,0.,-1.));
#590=DIRECTION('ref_axis',(-1.,0.,-1.79742432450609E-17));
#591=DIRECTION('center_axis',(-3.46944695195361E-17,0.,1.));
#592=DIRECTION('ref_axis',(-1.,0.,0.));
#593=DIRECTION('center_axis',(0.689253540740586,-0.724520225098351,0.));
#594=DIRECTION('ref_axis',(0.724520225098351,0.689253540740586,2.51368448659622E-17));
#595=DIRECTION('',(0.,0.,1.));
#596=DIRECTION('center_axis',(-0.707106781186547,-0.707106781186548,0.));
#597=DIRECTION('ref_axis',(0.707106781186548,-0.707106781186547,2.4532694666934E-17));
#598=DIRECTION('',(0.,0.,1.));
#599=DIRECTION('',(0.707106781186548,-0.707106781186547,2.4532694666934E-17));
#600=DIRECTION('',(0.,0.,1.));
#601=DIRECTION('center_axis',(0.,0.,1.));
#602=DIRECTION('ref_axis',(1.,0.,0.));
#603=DIRECTION('',(0.,0.,1.));
#604=DIRECTION('center_axis',(3.46944695195361E-17,0.,-1.));
#605=DIRECTION('ref_axis',(-1.,0.,0.));
#606=DIRECTION('center_axis',(0.707106781186548,0.707106781186548,0.));
#607=DIRECTION('ref_axis',(-0.707106781186548,0.707106781186548,-2.4532694666934E-17));
#608=DIRECTION('',(0.,0.,1.));
#609=DIRECTION('',(-0.707106781186548,0.707106781186548,-2.4532694666934E-17));
#610=DIRECTION('center_axis',(0.,0.,1.));
#611=DIRECTION('ref_axis',(1.,0.,0.));
#612=DIRECTION('center_axis',(3.46944695195361E-17,0.,-1.));
#613=DIRECTION('ref_axis',(-1.,0.,0.));
#614=DIRECTION('center_axis',(-3.46944695195361E-17,0.,1.));
#615=DIRECTION('ref_axis',(-1.,0.,-1.79742432450609E-17));
#616=DIRECTION('center_axis',(-3.46944695195361E-17,0.,1.));
#617=DIRECTION('ref_axis',(-1.,0.,-3.46944695195361E-17));
#618=DIRECTION('center_axis',(-3.46944695195361E-17,0.,1.));
#619=DIRECTION('ref_axis',(-1.83697019872103E-16,1.,-6.3732706567823E-33));
#620=DIRECTION('center_axis',(-3.46944695195361E-17,0.,1.));
#621=DIRECTION('ref_axis',(1.,0.,3.46944695195361E-17));
#622=DIRECTION('center_axis',(-3.46944695195361E-17,0.,1.));
#623=DIRECTION('ref_axis',(-1.,0.,-3.46944695195361E-17));
#624=DIRECTION('center_axis',(3.46944695195361E-17,0.,-1.));
#625=DIRECTION('ref_axis',(1.,0.,3.46944695195361E-17));
#626=DIRECTION('center_axis',(3.46944695195361E-17,0.,-1.));
#627=DIRECTION('ref_axis',(1.,0.,3.46944695195361E-17));
#628=DIRECTION('center_axis',(-3.46944695195361E-17,0.,1.));
#629=DIRECTION('ref_axis',(-1.,0.,-1.79742432450609E-17));
#630=DIRECTION('center_axis',(0.,0.,1.));
#631=DIRECTION('ref_axis',(1.,0.,0.));
#632=DIRECTION('',(0.,0.,-1.));
#633=DIRECTION('center_axis',(0.,0.,1.));
#634=DIRECTION('ref_axis',(1.,0.,0.));
#635=DIRECTION('center_axis',(0.,0.,1.));
#636=DIRECTION('ref_axis',(-0.707106781186545,0.70710678118655,0.));
#637=CARTESIAN_POINT('',(0.,0.,0.));
#638=CARTESIAN_POINT('Origin',(-37.6849999999998,72.7500000000002,12.5));
#639=CARTESIAN_POINT('',(-38.3699999999998,72.7500000000002,14.125));
#640=CARTESIAN_POINT('Origin',(-38.3699999999998,72.7500000000002,12.5));
#641=CARTESIAN_POINT('',(-36.9999999999998,72.7500000000002,15.495));
#642=CARTESIAN_POINT('',(-37.6849999999998,72.7500000000002,14.81));
#643=CARTESIAN_POINT('Origin',(-36.9999999999998,72.7500000000002,12.5));
#644=CARTESIAN_POINT('Origin',(-36.9999999999998,72.7500000000002,12.5));
#645=CARTESIAN_POINT('',(-36.9999999999998,72.7500000000002,15.5));
#646=CARTESIAN_POINT('Origin',(-36.9999999999998,72.7500000000002,12.5));
#647=CARTESIAN_POINT('Origin',(-9.99999999999977,72.7500000000002,12.5));
#648=CARTESIAN_POINT('',(-49.9999999999998,72.7500000000002,14.125));
#649=CARTESIAN_POINT('',(-9.99999999999977,72.7500000000002,14.125));
#650=CARTESIAN_POINT('Origin',(-49.9999999999997,72.7500000000002,12.5));
#651=CARTESIAN_POINT('Origin',(-36.9999999999998,72.7500000000002,12.5));
#652=CARTESIAN_POINT('',(-32.9004179304758,72.7500000000002,15.5));
#653=CARTESIAN_POINT('',(-36.9999999999998,72.7500000000002,15.5));
#654=CARTESIAN_POINT('',(-30.6094348200024,75.7500000000002,12.5));
#655=CARTESIAN_POINT('Ctrl Pts',(-30.6094348200024,75.7500000000002,12.5));
#656=CARTESIAN_POINT('Ctrl Pts',(-30.6094348200024,75.7500000000002,12.1241650386834));
#657=CARTESIAN_POINT('Ctrl Pts',(-30.6729622318252,75.6749466423297,11.7333810977631));
#658=CARTESIAN_POINT('Ctrl Pts',(-30.9066272083506,75.3931859295523,11.0314679762472));
#659=CARTESIAN_POINT('Ctrl Pts',(-31.0755223759338,75.1871704161688,10.7196483771686));
#660=CARTESIAN_POINT('Ctrl Pts',(-31.4796421001034,74.6812282138312,10.1663695989659));
#661=CARTESIAN_POINT('Ctrl Pts',(-31.7557057420983,74.3270628861074,9.91373080919294));
#662=CARTESIAN_POINT('Ctrl Pts',(-32.3308612860978,73.5572970505197,9.58037891832521));
#663=CARTESIAN_POINT('Ctrl Pts',(-32.6297647548473,73.1414111029623,9.49999999999998));
#664=CARTESIAN_POINT('Ctrl Pts',(-33.1577675299463,72.3778281592609,9.49999999999998));
#665=CARTESIAN_POINT('Ctrl Pts',(-33.4284059513256,71.9715336420579,9.57318981057333));
#666=CARTESIAN_POINT('Ctrl Pts',(-33.9190659780234,71.2062155434368,9.89443717646665));
#667=CARTESIAN_POINT('Ctrl Pts',(-34.1393120315572,70.8475130127651,10.1429165106302));
#668=CARTESIAN_POINT('Ctrl Pts',(-34.4520969322578,70.3255620545301,10.6997745295258));
#669=CARTESIAN_POINT('Ctrl Pts',(-34.5765864433777,70.1118693357752,11.0206739189466));
#670=CARTESIAN_POINT('Ctrl Pts',(-34.7425056402909,69.8238724589608,11.7345475563102));
#671=CARTESIAN_POINT('Ctrl Pts',(-34.7841558759153,69.7500000000002,12.1276446159306));
#672=CARTESIAN_POINT('Ctrl Pts',(-34.7841558759153,69.7500000000002,12.8723553840694));
#673=CARTESIAN_POINT('Ctrl Pts',(-34.7425056402909,69.8238724589608,13.2654524436898));
#674=CARTESIAN_POINT('Ctrl Pts',(-34.5765864433777,70.1118693357752,13.9793260810533));
#675=CARTESIAN_POINT('Ctrl Pts',(-34.4520969322578,70.3255620545301,14.3002254704741));
#676=CARTESIAN_POINT('Ctrl Pts',(-34.1393120315572,70.8475130127651,14.8570834893697));
#677=CARTESIAN_POINT('Ctrl Pts',(-33.9190659780233,71.2062155434368,15.1055628235333));
#678=CARTESIAN_POINT('Ctrl Pts',(-33.4284059513256,71.9715336420579,15.4268101894266));
#679=CARTESIAN_POINT('Ctrl Pts',(-33.1577675299463,72.3778281592609,15.5));
#680=CARTESIAN_POINT('Ctrl Pts',(-32.9004179304758,72.7500000000002,15.5));
#681=CARTESIAN_POINT('Ctrl Pts',(-32.9004179304758,72.7500000000002,15.5));
#682=CARTESIAN_POINT('Ctrl Pts',(-32.6297647548473,73.1414111029623,15.5));
#683=CARTESIAN_POINT('Ctrl Pts',(-32.3308612860978,73.5572970505197,15.4196210816747));
#684=CARTESIAN_POINT('Ctrl Pts',(-31.7557057420983,74.3270628861074,15.086269190807));
#685=CARTESIAN_POINT('Ctrl Pts',(-31.4796421001034,74.6812282138312,14.8336304010341));
#686=CARTESIAN_POINT('Ctrl Pts',(-31.0755223759338,75.1871704161688,14.2803516228313));
#687=CARTESIAN_POINT('Ctrl Pts',(-30.9066272083506,75.3931859295523,13.9685320237527));
#688=CARTESIAN_POINT('Ctrl Pts',(-30.6729622318252,75.6749466423297,13.2666189022368));
#689=CARTESIAN_POINT('Ctrl Pts',(-30.6094348200024,75.7500000000002,12.8758349613166));
#690=CARTESIAN_POINT('Ctrl Pts',(-30.6094348200024,75.7500000000002,12.5));
#691=CARTESIAN_POINT('Origin',(-41.5,72.7500000000002,12.5));
#692=CARTESIAN_POINT('',(-40.,78.9263436743593,20.95));
#693=CARTESIAN_POINT('',(-40.,66.5736563256411,20.95));
#694=CARTESIAN_POINT('Ctrl Pts',(-40.0000000000002,66.5736563256414,20.95));
#695=CARTESIAN_POINT('Ctrl Pts',(-43.644662087463,72.7500000000002,20.95));
#696=CARTESIAN_POINT('Ctrl Pts',(-40.0000000000002,78.9263436743591,20.95));
#697=CARTESIAN_POINT('',(-40.,78.9263436743594,4.05));
#698=CARTESIAN_POINT('Origin',(-40.,72.7500000000002,12.5));
#699=CARTESIAN_POINT('',(-42.0166002686544,72.7500000000002,4.05));
#700=CARTESIAN_POINT('Ctrl Pts',(-40.0000000000002,78.9263436743591,4.05));
#701=CARTESIAN_POINT('Ctrl Pts',(-42.0166002686544,75.5089579156472,4.05));
#702=CARTESIAN_POINT('Ctrl Pts',(-42.0166002686544,72.7500000000002,4.05));
#703=CARTESIAN_POINT('',(-43.,72.7500000000002,5.03339973134559));
#704=CARTESIAN_POINT('',(-41.5,72.7500000000002,3.53339973134558));
#705=CARTESIAN_POINT('Origin',(-43.,72.7500000000002,12.5));
#706=CARTESIAN_POINT('',(-40.,66.573656325641,4.05));
#707=CARTESIAN_POINT('Ctrl Pts',(-42.0166002686544,72.7500000000002,4.05));
#708=CARTESIAN_POINT('Ctrl Pts',(-42.0166002686544,69.9910420843533,4.05));
#709=CARTESIAN_POINT('Ctrl Pts',(-40.0000000000001,66.5736563256413,4.05));
#710=CARTESIAN_POINT('Origin',(-40.,72.7500000000002,12.5));
#711=CARTESIAN_POINT('Origin',(-40.,85.75,4.));
#712=CARTESIAN_POINT('',(-40.,85.75,20.95));
#713=CARTESIAN_POINT('',(-40.,74.875,20.95));
#714=CARTESIAN_POINT('',(-40.,85.75,4.05));
#715=CARTESIAN_POINT('',(-40.,85.75,4.));
#716=CARTESIAN_POINT('',(-40.,80.3125,4.05));
#717=CARTESIAN_POINT('Origin',(-40.,85.75,4.));
#718=CARTESIAN_POINT('',(-40.,65.779733838059,4.05));
#719=CARTESIAN_POINT('',(-40.,80.3125,4.05));
#720=CARTESIAN_POINT('',(-40.,59.75,5.87886326563213));
#721=CARTESIAN_POINT('Ctrl Pts',(-40.,59.75,5.87886326563213));
#722=CARTESIAN_POINT('Ctrl Pts',(-40.,62.6993601483088,5.18040644061672));
#723=CARTESIAN_POINT('Ctrl Pts',(-40.,65.779733838059,4.05));
#724=CARTESIAN_POINT('',(-40.,59.75,19.1211367343679));
#725=CARTESIAN_POINT('',(-40.,59.75,4.));
#726=CARTESIAN_POINT('',(-40.,65.779733838059,20.95));
#727=CARTESIAN_POINT('Ctrl Pts',(-40.,65.779733838059,20.95));
#728=CARTESIAN_POINT('Ctrl Pts',(-40.,62.6993601482526,19.8195935593779));
#729=CARTESIAN_POINT('Ctrl Pts',(-40.,59.75,19.1211367343679));
#730=CARTESIAN_POINT('',(-40.,74.875,20.95));
#731=CARTESIAN_POINT('Origin',(-49.9999999999997,72.7500000000002,12.5));
#732=CARTESIAN_POINT('',(-49.9999999999997,72.7500000000002,5.03339973134559));
#733=CARTESIAN_POINT('',(-49.9999999999997,72.7500000000002,5.03339973134559));
#734=CARTESIAN_POINT('Origin',(-49.9999999999997,72.7500000000002,12.5));
#735=CARTESIAN_POINT('Origin',(-49.9999999999997,72.7500000000002,12.5));
#736=CARTESIAN_POINT('Origin',(1.80324505327789E-13,49.9999999999999,5.55));
#737=CARTESIAN_POINT('',(-9.74999999999998,90.,5.87886326563219));
#738=CARTESIAN_POINT('',(-11.3000000000002,88.3706919405942,7.05));
#739=CARTESIAN_POINT('Ctrl Pts',(-9.74999999999997,90.,5.87886326563219));
#740=CARTESIAN_POINT('Ctrl Pts',(-10.5361816959296,89.1735921462353,6.49558275965759));
#741=CARTESIAN_POINT('Ctrl Pts',(-11.3000000000002,88.3706919405942,7.05));
#742=CARTESIAN_POINT('',(-27.4230123229046,79.1200685977524,7.05));
#743=CARTESIAN_POINT('Origin',(1.8027246362351E-13,49.9999999999999,7.05));
#744=CARTESIAN_POINT('',(-29.5452212199685,81.2422774948163,4.05));
#745=CARTESIAN_POINT('Ctrl Pts',(-27.4230123229046,79.1200685977524,7.05));
#746=CARTESIAN_POINT('Ctrl Pts',(-28.4457635987699,80.1428198736177,5.60426229617603));
#747=CARTESIAN_POINT('Ctrl Pts',(-29.5452212199685,81.2422774948163,4.05));
#748=CARTESIAN_POINT('',(-15.7797338380591,90.,4.05));
#749=CARTESIAN_POINT('Origin',(1.80376547032068E-13,49.9999999999999,4.05));
#750=CARTESIAN_POINT('Ctrl Pts',(-15.7797338380591,90.,4.05));
#751=CARTESIAN_POINT('Ctrl Pts',(-12.6993601482527,90.,5.18040644062216));
#752=CARTESIAN_POINT('Ctrl Pts',(-9.74999999999998,90.,5.87886326563219));
#753=CARTESIAN_POINT('Origin',(-11.3000000000002,88.3706919405942,4.));
#754=CARTESIAN_POINT('',(-9.74999999999998,90.,19.1211367343679));
#755=CARTESIAN_POINT('',(-9.74999999999998,90.,4.));
#756=CARTESIAN_POINT('',(-11.3000000000002,88.3706919405942,17.95));
#757=CARTESIAN_POINT('Ctrl Pts',(-11.3000000000002,88.3706919405942,17.95));
#758=CARTESIAN_POINT('Ctrl Pts',(-10.5361816959718,89.173592146191,18.504417240308));
#759=CARTESIAN_POINT('Ctrl Pts',(-9.74999999999998,90.,19.1211367343679));
#760=CARTESIAN_POINT('',(-11.3000000000002,88.3706919405942,4.));
#761=CARTESIAN_POINT('Origin',(-9.74999999999998,90.,4.));
#762=CARTESIAN_POINT('',(-35.75,90.,4.05));
#763=CARTESIAN_POINT('',(-22.1550171494381,90.,4.05));
#764=CARTESIAN_POINT('',(-35.75,90.,20.95));
#765=CARTESIAN_POINT('',(-35.75,90.,4.));
#766=CARTESIAN_POINT('',(-15.779733838059,90.,20.95));
#767=CARTESIAN_POINT('',(-24.875,90.,20.95));
#768=CARTESIAN_POINT('Ctrl Pts',(-9.74999999999998,90.,19.1211367343679));
#769=CARTESIAN_POINT('Ctrl Pts',(-12.6993601483088,90.,19.8195935593833));
#770=CARTESIAN_POINT('Ctrl Pts',(-15.779733838059,90.,20.95));
#771=CARTESIAN_POINT('Origin',(-34.5600342988762,74.875,4.05));
#772=CARTESIAN_POINT('',(-30.6941865145162,82.3912427893639,4.05));
#773=CARTESIAN_POINT('',(-29.7815877632652,81.478644038113,4.05));
#774=CARTESIAN_POINT('',(-32.3912427893639,80.6941865145162,4.05));
#775=CARTESIAN_POINT('Origin',(-31.5427146519401,81.5427146519401,4.05));
#776=CARTESIAN_POINT('',(-31.2422774948163,79.5452212199685,4.05));
#777=CARTESIAN_POINT('',(-29.8430569423072,78.1460006674594,4.05));
#778=CARTESIAN_POINT('Origin',(1.80376547032068E-13,49.9999999999999,4.05));
#779=CARTESIAN_POINT('Origin',(-35.75,85.75,4.05));
#780=CARTESIAN_POINT('',(-37.9,85.75,4.05));
#781=CARTESIAN_POINT('Origin',(-35.75,85.75,4.05));
#782=CARTESIAN_POINT('Origin',(1.80324505327789E-13,49.9999999999999,5.55));
#783=CARTESIAN_POINT('',(-29.1200685977524,77.4230123229046,7.05));
#784=CARTESIAN_POINT('Ctrl Pts',(-31.2422774948163,79.5452212199685,4.05));
#785=CARTESIAN_POINT('Ctrl Pts',(-30.142819873171,78.4457635983232,5.60426229680765));
#786=CARTESIAN_POINT('Ctrl Pts',(-29.1200685977524,77.4230123229046,7.05));
#787=CARTESIAN_POINT('',(-38.3706919405942,61.3000000000002,7.05));
#788=CARTESIAN_POINT('Origin',(1.8027246362351E-13,49.9999999999999,7.05));
#789=CARTESIAN_POINT('Ctrl Pts',(-38.3706919405942,61.3000000000002,7.05));
#790=CARTESIAN_POINT('Ctrl Pts',(-39.173592146191,60.5361816959718,6.495582759692));
#791=CARTESIAN_POINT('Ctrl Pts',(-40.,59.75,5.87886326563213));
#792=CARTESIAN_POINT('Origin',(-40.,59.75,4.));
#793=CARTESIAN_POINT('',(-38.3706919405942,61.3000000000002,17.95));
#794=CARTESIAN_POINT('',(-38.3706919405942,61.3000000000002,4.));
#795=CARTESIAN_POINT('Ctrl Pts',(-40.,59.75,19.1211367343679));
#796=CARTESIAN_POINT('Ctrl Pts',(-39.1735921462353,60.5361816959296,18.5044172403424));
#797=CARTESIAN_POINT('Ctrl Pts',(-38.3706919405942,61.3000000000002,17.95));
#798=CARTESIAN_POINT('Origin',(-30.6941865145162,82.391242789364,4.));
#799=CARTESIAN_POINT('',(-27.4230123229046,79.1200685977524,17.95));
#800=CARTESIAN_POINT('',(-27.4230123229046,79.1200685977524,4.));
#801=CARTESIAN_POINT('',(-29.5452212199685,81.2422774948163,20.95));
#802=CARTESIAN_POINT('Ctrl Pts',(-29.5452212199685,81.2422774948163,20.95));
#803=CARTESIAN_POINT('Ctrl Pts',(-28.4457635988198,80.1428198736676,19.3957377038946));
#804=CARTESIAN_POINT('Ctrl Pts',(-27.4230123229046,79.1200685977524,17.95));
#805=CARTESIAN_POINT('',(-30.6941865145162,82.3912427893639,20.95));
#806=CARTESIAN_POINT('',(-29.4828634874224,81.1799197622702,20.95));
#807=CARTESIAN_POINT('',(-30.6941865145162,82.3912427893639,4.));
#808=CARTESIAN_POINT('Origin',(1.8027246362351E-13,49.9999999999999,4.));
#809=CARTESIAN_POINT('',(-29.1200685977524,77.4230123229046,17.95));
#810=CARTESIAN_POINT('',(-29.1200685977524,77.4230123229046,4.));
#811=CARTESIAN_POINT('Origin',(1.8027246362351E-13,49.9999999999999,17.95));
#812=CARTESIAN_POINT('Origin',(-29.1200685977524,77.4230123229046,4.));
#813=CARTESIAN_POINT('',(-32.3912427893639,80.6941865145162,20.95));
#814=CARTESIAN_POINT('',(-32.3912427893639,80.6941865145162,4.));
#815=CARTESIAN_POINT('',(-31.2422774948163,79.5452212199685,20.95));
#816=CARTESIAN_POINT('',(-31.1799197622702,79.4828634874224,20.95));
#817=CARTESIAN_POINT('Ctrl Pts',(-29.1200685977524,77.4230123229046,17.95));
#818=CARTESIAN_POINT('Ctrl Pts',(-30.1428198738627,78.4457635990149,19.3957377041704));
#819=CARTESIAN_POINT('Ctrl Pts',(-31.2422774948163,79.5452212199685,20.95));
#820=CARTESIAN_POINT('Origin',(1.8027246362351E-13,49.9999999999999,4.));
#821=CARTESIAN_POINT('Origin',(1.00475183728577E-13,49.9999999999998,17.95));
#822=CARTESIAN_POINT('Origin',(1.00423142024298E-13,49.9999999999998,19.45));
#823=CARTESIAN_POINT('Origin',(1.00371100320018E-13,49.9999999999998,20.95));
#824=CARTESIAN_POINT('Origin',(-34.5600342988762,74.875,20.95));
#825=CARTESIAN_POINT('Origin',(-35.75,85.75,20.95));
#826=CARTESIAN_POINT('Origin',(1.80168380214951E-13,49.9999999999999,20.95));
#827=CARTESIAN_POINT('Origin',(-31.5427146519401,81.5427146519401,20.95));
#828=CARTESIAN_POINT('',(-37.9,85.75,20.95));
#829=CARTESIAN_POINT('Origin',(-35.75,85.75,20.95));
#830=CARTESIAN_POINT('Origin',(1.80220421919231E-13,49.9999999999999,19.45));
#831=CARTESIAN_POINT('Origin',(-35.75,85.75,4.));
#832=CARTESIAN_POINT('',(-37.9,85.75,4.));
#833=CARTESIAN_POINT('Origin',(-35.75,85.75,4.));
#834=CARTESIAN_POINT('Origin',(-31.5427146519401,81.5427146519401,4.));
#835=UNCERTAINTY_MEASURE_WITH_UNIT(LENGTH_MEASURE(0.01),#839,
'DISTANCE_ACCURACY_VALUE',
'Maximum model space distance between geometric entities at asserted c
onnectivities');
#836=UNCERTAINTY_MEASURE_WITH_UNIT(LENGTH_MEASURE(0.01),#839,
'DISTANCE_ACCURACY_VALUE',
'Maximum model space distance between geometric entities at asserted c
onnectivities');
#837=(
GEOMETRIC_REPRESENTATION_CONTEXT(3)
GLOBAL_UNCERTAINTY_ASSIGNED_CONTEXT((#835))
GLOBAL_UNIT_ASSIGNED_CONTEXT((#839,#841,#842))
REPRESENTATION_CONTEXT('','3D')
);
#838=(
GEOMETRIC_REPRESENTATION_CONTEXT(3)
GLOBAL_UNCERTAINTY_ASSIGNED_CONTEXT((#836))
GLOBAL_UNIT_ASSIGNED_CONTEXT((#839,#841,#842))
REPRESENTATION_CONTEXT('','3D')
);
#839=(
LENGTH_UNIT()
NAMED_UNIT(*)
SI_UNIT(.MILLI.,.METRE.)
);
#840=(
LENGTH_UNIT()
NAMED_UNIT(*)
SI_UNIT($,.METRE.)
);
#841=(
NAMED_UNIT(*)
PLANE_ANGLE_UNIT()
SI_UNIT($,.RADIAN.)
);
#842=(
NAMED_UNIT(*)
SI_UNIT($,.STERADIAN.)
SOLID_ANGLE_UNIT()
);
#843=SHAPE_DEFINITION_REPRESENTATION(#844,#845);
#844=PRODUCT_DEFINITION_SHAPE('',$,#847);
#845=SHAPE_REPRESENTATION('',(#467),#837);
#846=PRODUCT_DEFINITION_CONTEXT('part definition',#851,'design');
#847=PRODUCT_DEFINITION('FusionComponent','FusionComponent',#848,#846);
#848=PRODUCT_DEFINITION_FORMATION('',$,#853);
#849=PRODUCT_RELATED_PRODUCT_CATEGORY('FusionComponent',
'FusionComponent',(#853));
#850=APPLICATION_PROTOCOL_DEFINITION('international standard',
'automotive_design',2009,#851);
#851=APPLICATION_CONTEXT(
'Core Data for Automotive Mechanical Design Process');
#852=PRODUCT_CONTEXT('part definition',#851,'mechanical');
#853=PRODUCT('FusionComponent','FusionComponent',$,(#852));
#854=PRESENTATION_STYLE_ASSIGNMENT((#855));
#855=SURFACE_STYLE_USAGE(.BOTH.,#856);
#856=SURFACE_SIDE_STYLE('',(#857));
#857=SURFACE_STYLE_FILL_AREA(#858);
#858=FILL_AREA_STYLE('Steel - Satin',(#859));
#859=FILL_AREA_STYLE_COLOUR('Steel - Satin',#860);
#860=COLOUR_RGB('Steel - Satin',0.627450980392157,0.627450980392157,0.627450980392157);
ENDSEC;
END-ISO-10303-21;
