ISO-10303-21;
HEADER;
/* Generated by software containing ST-Developer
 * from STEP Tools, Inc. (www.steptools.com) 
 */

FILE_DESCRIPTION(
/* description */ (''),
/* implementation_level */ '2;1');

FILE_NAME(
/* name */ 'light_holder.step',
/* time_stamp */ '2026-10-03T22:25:47+03:00',
/* author */ (''),
/* organization */ (''),
/* preprocessor_version */ 'ST-DEVELOPER v20.2',
/* originating_system */ 'Autodesk Translation Framework v15.15.0.0',
/* authorisation */ '');

FILE_SCHEMA (('AUTOMOTIVE_DESIGN { 1 0 10303 214 3 1 1 }'));
ENDSEC;

DATA;
#10=MECHANICAL_DESIGN_GEOMETRIC_PRESENTATION_REPRESENTATION('',(#13),#776);
#11=SHAPE_REPRESENTATION_RELATIONSHIP('SRR','None',#783,#12);
#12=ADVANCED_BREP_SHAPE_REPRESENTATION('',(#14),#775);
#13=STYLED_ITEM('',(#792),#14);
#14=MANIFOLD_SOLID_BREP('Body1',#450);
#15=FACE_BOUND('',#80,.T.);
#16=FACE_BOUND('',#81,.T.);
#17=FACE_BOUND('',#82,.T.);
#18=FACE_BOUND('',#84,.T.);
#19=FACE_BOUND('',#85,.T.);
#20=FACE_BOUND('',#86,.T.);
#21=FACE_BOUND('',#87,.T.);
#22=FACE_BOUND('',#88,.T.);
#23=FACE_BOUND('',#91,.T.);
#24=ELLIPSE('',#496,3.46410161513776,3.);
#25=ELLIPSE('',#505,8.66025403784439,7.5);
#26=CONICAL_SURFACE('',#490,2.3,0.785398163397449);
#27=PLANE('',#467);
#28=PLANE('',#468);
#29=PLANE('',#476);
#30=PLANE('',#477);
#31=PLANE('',#482);
#32=PLANE('',#485);
#33=PLANE('',#486);
#34=PLANE('',#489);
#35=PLANE('',#497);
#36=PLANE('',#501);
#37=PLANE('',#508);
#38=FACE_OUTER_BOUND('',#62,.T.);
#39=FACE_OUTER_BOUND('',#63,.T.);
#40=FACE_OUTER_BOUND('',#64,.T.);
#41=FACE_OUTER_BOUND('',#65,.T.);
#42=FACE_OUTER_BOUND('',#66,.T.);
#43=FACE_OUTER_BOUND('',#67,.T.);
#44=FACE_OUTER_BOUND('',#68,.T.);
#45=FACE_OUTER_BOUND('',#69,.T.);
#46=FACE_OUTER_BOUND('',#70,.T.);
#47=FACE_OUTER_BOUND('',#71,.T.);
#48=FACE_OUTER_BOUND('',#72,.T.);
#49=FACE_OUTER_BOUND('',#73,.T.);
#50=FACE_OUTER_BOUND('',#74,.T.);
#51=FACE_OUTER_BOUND('',#75,.T.);
#52=FACE_OUTER_BOUND('',#76,.T.);
#53=FACE_OUTER_BOUND('',#77,.T.);
#54=FACE_OUTER_BOUND('',#78,.T.);
#55=FACE_OUTER_BOUND('',#79,.T.);
#56=FACE_OUTER_BOUND('',#83,.T.);
#57=FACE_OUTER_BOUND('',#89,.T.);
#58=FACE_OUTER_BOUND('',#90,.T.);
#59=FACE_OUTER_BOUND('',#92,.T.);
#60=FACE_OUTER_BOUND('',#93,.T.);
#61=FACE_OUTER_BOUND('',#94,.T.);
#62=EDGE_LOOP('',(#292,#293,#294,#295));
#63=EDGE_LOOP('',(#296,#297,#298,#299));
#64=EDGE_LOOP('',(#300,#301,#302,#303,#304,#305,#306,#307,#308,#309,#310,
#311,#312,#313));
#65=EDGE_LOOP('',(#314,#315,#316,#317));
#66=EDGE_LOOP('',(#318,#319,#320,#321));
#67=EDGE_LOOP('',(#322,#323,#324,#325));
#68=EDGE_LOOP('',(#326,#327,#328,#329));
#69=EDGE_LOOP('',(#330,#331,#332,#333));
#70=EDGE_LOOP('',(#334,#335,#336,#337));
#71=EDGE_LOOP('',(#338,#339,#340,#341));
#72=EDGE_LOOP('',(#342,#343,#344,#345));
#73=EDGE_LOOP('',(#346,#347,#348,#349,#350,#351,#352,#353,#354,#355,#356,
#357,#358,#359));
#74=EDGE_LOOP('',(#360,#361,#362,#363));
#75=EDGE_LOOP('',(#364,#365,#366,#367));
#76=EDGE_LOOP('',(#368,#369,#370,#371));
#77=EDGE_LOOP('',(#372,#373,#374,#375));
#78=EDGE_LOOP('',(#376,#377,#378,#379));
#79=EDGE_LOOP('',(#380));
#80=EDGE_LOOP('',(#381));
#81=EDGE_LOOP('',(#382));
#82=EDGE_LOOP('',(#383));
#83=EDGE_LOOP('',(#384));
#84=EDGE_LOOP('',(#385,#386,#387,#388));
#85=EDGE_LOOP('',(#389,#390,#391,#392));
#86=EDGE_LOOP('',(#393));
#87=EDGE_LOOP('',(#394));
#88=EDGE_LOOP('',(#395));
#89=EDGE_LOOP('',(#396,#397,#398,#399));
#90=EDGE_LOOP('',(#400));
#91=EDGE_LOOP('',(#401));
#92=EDGE_LOOP('',(#402,#403,#404,#405));
#93=EDGE_LOOP('',(#406,#407,#408,#409));
#94=EDGE_LOOP('',(#410,#411,#412,#413));
#95=LINE('',#653,#132);
#96=LINE('',#656,#133);
#97=LINE('',#659,#134);
#98=LINE('',#661,#135);
#99=LINE('',#662,#136);
#100=LINE('',#665,#137);
#101=LINE('',#669,#138);
#102=LINE('',#673,#139);
#103=LINE('',#675,#140);
#104=LINE('',#679,#141);
#105=LINE('',#683,#142);
#106=LINE('',#685,#143);
#107=LINE('',#691,#144);
#108=LINE('',#692,#145);
#109=LINE('',#695,#146);
#110=LINE('',#696,#147);
#111=LINE('',#698,#148);
#112=LINE('',#702,#149);
#113=LINE('',#705,#150);
#114=LINE('',#708,#151);
#115=LINE('',#711,#152);
#116=LINE('',#712,#153);
#117=LINE('',#715,#154);
#118=LINE('',#718,#155);
#119=LINE('',#720,#156);
#120=LINE('',#723,#157);
#121=LINE('',#724,#158);
#122=LINE('',#726,#159);
#123=LINE('',#729,#160);
#124=LINE('',#731,#161);
#125=LINE('',#736,#162);
#126=LINE('',#740,#163);
#127=LINE('',#745,#164);
#128=LINE('',#765,#165);
#129=LINE('',#768,#166);
#130=LINE('',#770,#167);
#131=LINE('',#772,#168);
#132=VECTOR('',#518,10.);
#133=VECTOR('',#521,10.);
#134=VECTOR('',#524,10.);
#135=VECTOR('',#525,10.);
#136=VECTOR('',#526,10.);
#137=VECTOR('',#529,10.);
#138=VECTOR('',#532,10.);
#139=VECTOR('',#535,10.);
#140=VECTOR('',#536,10.);
#141=VECTOR('',#539,10.);
#142=VECTOR('',#542,10.);
#143=VECTOR('',#543,10.);
#144=VECTOR('',#550,10.);
#145=VECTOR('',#551,10.);
#146=VECTOR('',#554,10.);
#147=VECTOR('',#555,10.);
#148=VECTOR('',#558,10.);
#149=VECTOR('',#563,10.);
#150=VECTOR('',#566,10.);
#151=VECTOR('',#569,10.);
#152=VECTOR('',#572,10.);
#153=VECTOR('',#573,10.);
#154=VECTOR('',#576,10.);
#155=VECTOR('',#579,10.);
#156=VECTOR('',#582,10.);
#157=VECTOR('',#585,10.);
#158=VECTOR('',#586,10.);
#159=VECTOR('',#587,10.);
#160=VECTOR('',#592,10.);
#161=VECTOR('',#595,10.);
#162=VECTOR('',#600,2.3);
#163=VECTOR('',#605,1.6);
#164=VECTOR('',#612,3.);
#165=VECTOR('',#635,7.5);
#166=VECTOR('',#640,1.625);
#167=VECTOR('',#643,1.625);
#168=VECTOR('',#646,27.5);
#169=CIRCLE('',#465,2.5);
#170=CIRCLE('',#466,2.5);
#171=CIRCLE('',#469,2.5);
#172=CIRCLE('',#470,1.);
#173=CIRCLE('',#471,1.);
#174=CIRCLE('',#472,1.);
#175=CIRCLE('',#473,1.);
#176=CIRCLE('',#475,2.5);
#177=CIRCLE('',#479,1.);
#178=CIRCLE('',#481,1.);
#179=CIRCLE('',#484,1.);
#180=CIRCLE('',#487,1.);
#181=CIRCLE('',#491,1.6);
#182=CIRCLE('',#492,3.);
#183=CIRCLE('',#494,1.6);
#184=CIRCLE('',#498,27.5);
#185=CIRCLE('',#499,1.625);
#186=CIRCLE('',#500,1.625);
#187=CIRCLE('',#502,27.5);
#188=CIRCLE('',#503,1.625);
#189=CIRCLE('',#504,1.625);
#190=CIRCLE('',#507,7.5);
#191=VERTEX_POINT('',#649);
#192=VERTEX_POINT('',#650);
#193=VERTEX_POINT('',#652);
#194=VERTEX_POINT('',#654);
#195=VERTEX_POINT('',#658);
#196=VERTEX_POINT('',#660);
#197=VERTEX_POINT('',#664);
#198=VERTEX_POINT('',#666);
#199=VERTEX_POINT('',#668);
#200=VERTEX_POINT('',#670);
#201=VERTEX_POINT('',#672);
#202=VERTEX_POINT('',#674);
#203=VERTEX_POINT('',#676);
#204=VERTEX_POINT('',#678);
#205=VERTEX_POINT('',#680);
#206=VERTEX_POINT('',#682);
#207=VERTEX_POINT('',#684);
#208=VERTEX_POINT('',#688);
#209=VERTEX_POINT('',#689);
#210=VERTEX_POINT('',#694);
#211=VERTEX_POINT('',#700);
#212=VERTEX_POINT('',#704);
#213=VERTEX_POINT('',#706);
#214=VERTEX_POINT('',#710);
#215=VERTEX_POINT('',#714);
#216=VERTEX_POINT('',#716);
#217=VERTEX_POINT('',#722);
#218=VERTEX_POINT('',#725);
#219=VERTEX_POINT('',#733);
#220=VERTEX_POINT('',#735);
#221=VERTEX_POINT('',#739);
#222=VERTEX_POINT('',#743);
#223=VERTEX_POINT('',#747);
#224=VERTEX_POINT('',#749);
#225=VERTEX_POINT('',#751);
#226=VERTEX_POINT('',#754);
#227=VERTEX_POINT('',#756);
#228=VERTEX_POINT('',#758);
#229=VERTEX_POINT('',#760);
#230=VERTEX_POINT('',#763);
#231=EDGE_CURVE('',#191,#192,#169,.T.);
#232=EDGE_CURVE('',#192,#193,#95,.T.);
#233=EDGE_CURVE('',#193,#194,#170,.T.);
#234=EDGE_CURVE('',#194,#191,#96,.T.);
#235=EDGE_CURVE('',#195,#194,#97,.T.);
#236=EDGE_CURVE('',#196,#195,#98,.T.);
#237=EDGE_CURVE('',#191,#196,#99,.T.);
#238=EDGE_CURVE('',#193,#197,#100,.T.);
#239=EDGE_CURVE('',#198,#197,#171,.T.);
#240=EDGE_CURVE('',#198,#199,#101,.T.);
#241=EDGE_CURVE('',#200,#199,#172,.T.);
#242=EDGE_CURVE('',#201,#200,#102,.T.);
#243=EDGE_CURVE('',#201,#202,#103,.T.);
#244=EDGE_CURVE('',#203,#202,#173,.T.);
#245=EDGE_CURVE('',#203,#204,#104,.T.);
#246=EDGE_CURVE('',#205,#204,#174,.T.);
#247=EDGE_CURVE('',#205,#206,#105,.T.);
#248=EDGE_CURVE('',#207,#206,#106,.T.);
#249=EDGE_CURVE('',#195,#207,#175,.T.);
#250=EDGE_CURVE('',#208,#209,#176,.T.);
#251=EDGE_CURVE('',#209,#198,#107,.T.);
#252=EDGE_CURVE('',#197,#208,#108,.T.);
#253=EDGE_CURVE('',#210,#209,#109,.T.);
#254=EDGE_CURVE('',#199,#210,#110,.T.);
#255=EDGE_CURVE('',#208,#192,#111,.T.);
#256=EDGE_CURVE('',#211,#196,#177,.T.);
#257=EDGE_CURVE('',#207,#211,#112,.T.);
#258=EDGE_CURVE('',#202,#212,#113,.T.);
#259=EDGE_CURVE('',#212,#213,#178,.T.);
#260=EDGE_CURVE('',#213,#203,#114,.T.);
#261=EDGE_CURVE('',#201,#214,#115,.T.);
#262=EDGE_CURVE('',#212,#214,#116,.T.);
#263=EDGE_CURVE('',#204,#215,#117,.T.);
#264=EDGE_CURVE('',#215,#216,#179,.T.);
#265=EDGE_CURVE('',#216,#205,#118,.T.);
#266=EDGE_CURVE('',#215,#213,#119,.T.);
#267=EDGE_CURVE('',#217,#211,#120,.T.);
#268=EDGE_CURVE('',#217,#216,#121,.T.);
#269=EDGE_CURVE('',#218,#214,#122,.T.);
#270=EDGE_CURVE('',#210,#218,#180,.T.);
#271=EDGE_CURVE('',#218,#200,#123,.T.);
#272=EDGE_CURVE('',#206,#217,#124,.T.);
#273=EDGE_CURVE('',#219,#219,#181,.T.);
#274=EDGE_CURVE('',#219,#220,#125,.T.);
#275=EDGE_CURVE('',#220,#220,#182,.T.);
#276=EDGE_CURVE('',#219,#221,#126,.T.);
#277=EDGE_CURVE('',#221,#221,#183,.T.);
#278=EDGE_CURVE('',#222,#222,#24,.T.);
#279=EDGE_CURVE('',#222,#220,#127,.T.);
#280=EDGE_CURVE('',#223,#223,#184,.T.);
#281=EDGE_CURVE('',#224,#224,#185,.T.);
#282=EDGE_CURVE('',#225,#225,#186,.T.);
#283=EDGE_CURVE('',#226,#226,#187,.T.);
#284=EDGE_CURVE('',#227,#227,#188,.T.);
#285=EDGE_CURVE('',#228,#228,#189,.T.);
#286=EDGE_CURVE('',#229,#229,#25,.T.);
#287=EDGE_CURVE('',#230,#230,#190,.T.);
#288=EDGE_CURVE('',#230,#229,#128,.T.);
#289=EDGE_CURVE('',#228,#225,#129,.T.);
#290=EDGE_CURVE('',#227,#224,#130,.T.);
#291=EDGE_CURVE('',#226,#223,#131,.T.);
#292=ORIENTED_EDGE('',*,*,#231,.T.);
#293=ORIENTED_EDGE('',*,*,#232,.T.);
#294=ORIENTED_EDGE('',*,*,#233,.T.);
#295=ORIENTED_EDGE('',*,*,#234,.T.);
#296=ORIENTED_EDGE('',*,*,#234,.F.);
#297=ORIENTED_EDGE('',*,*,#235,.F.);
#298=ORIENTED_EDGE('',*,*,#236,.F.);
#299=ORIENTED_EDGE('',*,*,#237,.F.);
#300=ORIENTED_EDGE('',*,*,#233,.F.);
#301=ORIENTED_EDGE('',*,*,#238,.T.);
#302=ORIENTED_EDGE('',*,*,#239,.F.);
#303=ORIENTED_EDGE('',*,*,#240,.T.);
#304=ORIENTED_EDGE('',*,*,#241,.F.);
#305=ORIENTED_EDGE('',*,*,#242,.F.);
#306=ORIENTED_EDGE('',*,*,#243,.T.);
#307=ORIENTED_EDGE('',*,*,#244,.F.);
#308=ORIENTED_EDGE('',*,*,#245,.T.);
#309=ORIENTED_EDGE('',*,*,#246,.F.);
#310=ORIENTED_EDGE('',*,*,#247,.T.);
#311=ORIENTED_EDGE('',*,*,#248,.F.);
#312=ORIENTED_EDGE('',*,*,#249,.F.);
#313=ORIENTED_EDGE('',*,*,#235,.T.);
#314=ORIENTED_EDGE('',*,*,#250,.T.);
#315=ORIENTED_EDGE('',*,*,#251,.T.);
#316=ORIENTED_EDGE('',*,*,#239,.T.);
#317=ORIENTED_EDGE('',*,*,#252,.T.);
#318=ORIENTED_EDGE('',*,*,#251,.F.);
#319=ORIENTED_EDGE('',*,*,#253,.F.);
#320=ORIENTED_EDGE('',*,*,#254,.F.);
#321=ORIENTED_EDGE('',*,*,#240,.F.);
#322=ORIENTED_EDGE('',*,*,#232,.F.);
#323=ORIENTED_EDGE('',*,*,#255,.F.);
#324=ORIENTED_EDGE('',*,*,#252,.F.);
#325=ORIENTED_EDGE('',*,*,#238,.F.);
#326=ORIENTED_EDGE('',*,*,#256,.T.);
#327=ORIENTED_EDGE('',*,*,#236,.T.);
#328=ORIENTED_EDGE('',*,*,#249,.T.);
#329=ORIENTED_EDGE('',*,*,#257,.T.);
#330=ORIENTED_EDGE('',*,*,#244,.T.);
#331=ORIENTED_EDGE('',*,*,#258,.T.);
#332=ORIENTED_EDGE('',*,*,#259,.T.);
#333=ORIENTED_EDGE('',*,*,#260,.T.);
#334=ORIENTED_EDGE('',*,*,#258,.F.);
#335=ORIENTED_EDGE('',*,*,#243,.F.);
#336=ORIENTED_EDGE('',*,*,#261,.T.);
#337=ORIENTED_EDGE('',*,*,#262,.F.);
#338=ORIENTED_EDGE('',*,*,#246,.T.);
#339=ORIENTED_EDGE('',*,*,#263,.T.);
#340=ORIENTED_EDGE('',*,*,#264,.T.);
#341=ORIENTED_EDGE('',*,*,#265,.T.);
#342=ORIENTED_EDGE('',*,*,#260,.F.);
#343=ORIENTED_EDGE('',*,*,#266,.F.);
#344=ORIENTED_EDGE('',*,*,#263,.F.);
#345=ORIENTED_EDGE('',*,*,#245,.F.);
#346=ORIENTED_EDGE('',*,*,#231,.F.);
#347=ORIENTED_EDGE('',*,*,#237,.T.);
#348=ORIENTED_EDGE('',*,*,#256,.F.);
#349=ORIENTED_EDGE('',*,*,#267,.F.);
#350=ORIENTED_EDGE('',*,*,#268,.T.);
#351=ORIENTED_EDGE('',*,*,#264,.F.);
#352=ORIENTED_EDGE('',*,*,#266,.T.);
#353=ORIENTED_EDGE('',*,*,#259,.F.);
#354=ORIENTED_EDGE('',*,*,#262,.T.);
#355=ORIENTED_EDGE('',*,*,#269,.F.);
#356=ORIENTED_EDGE('',*,*,#270,.F.);
#357=ORIENTED_EDGE('',*,*,#253,.T.);
#358=ORIENTED_EDGE('',*,*,#250,.F.);
#359=ORIENTED_EDGE('',*,*,#255,.T.);
#360=ORIENTED_EDGE('',*,*,#241,.T.);
#361=ORIENTED_EDGE('',*,*,#254,.T.);
#362=ORIENTED_EDGE('',*,*,#270,.T.);
#363=ORIENTED_EDGE('',*,*,#271,.T.);
#364=ORIENTED_EDGE('',*,*,#265,.F.);
#365=ORIENTED_EDGE('',*,*,#268,.F.);
#366=ORIENTED_EDGE('',*,*,#272,.F.);
#367=ORIENTED_EDGE('',*,*,#247,.F.);
#368=ORIENTED_EDGE('',*,*,#273,.T.);
#369=ORIENTED_EDGE('',*,*,#274,.T.);
#370=ORIENTED_EDGE('',*,*,#275,.F.);
#371=ORIENTED_EDGE('',*,*,#274,.F.);
#372=ORIENTED_EDGE('',*,*,#273,.F.);
#373=ORIENTED_EDGE('',*,*,#276,.T.);
#374=ORIENTED_EDGE('',*,*,#277,.F.);
#375=ORIENTED_EDGE('',*,*,#276,.F.);
#376=ORIENTED_EDGE('',*,*,#278,.F.);
#377=ORIENTED_EDGE('',*,*,#279,.T.);
#378=ORIENTED_EDGE('',*,*,#275,.T.);
#379=ORIENTED_EDGE('',*,*,#279,.F.);
#380=ORIENTED_EDGE('',*,*,#280,.F.);
#381=ORIENTED_EDGE('',*,*,#278,.T.);
#382=ORIENTED_EDGE('',*,*,#281,.T.);
#383=ORIENTED_EDGE('',*,*,#282,.T.);
#384=ORIENTED_EDGE('',*,*,#283,.T.);
#385=ORIENTED_EDGE('',*,*,#248,.T.);
#386=ORIENTED_EDGE('',*,*,#272,.T.);
#387=ORIENTED_EDGE('',*,*,#267,.T.);
#388=ORIENTED_EDGE('',*,*,#257,.F.);
#389=ORIENTED_EDGE('',*,*,#269,.T.);
#390=ORIENTED_EDGE('',*,*,#261,.F.);
#391=ORIENTED_EDGE('',*,*,#242,.T.);
#392=ORIENTED_EDGE('',*,*,#271,.F.);
#393=ORIENTED_EDGE('',*,*,#284,.T.);
#394=ORIENTED_EDGE('',*,*,#285,.T.);
#395=ORIENTED_EDGE('',*,*,#286,.T.);
#396=ORIENTED_EDGE('',*,*,#287,.F.);
#397=ORIENTED_EDGE('',*,*,#288,.T.);
#398=ORIENTED_EDGE('',*,*,#286,.F.);
#399=ORIENTED_EDGE('',*,*,#288,.F.);
#400=ORIENTED_EDGE('',*,*,#287,.T.);
#401=ORIENTED_EDGE('',*,*,#277,.T.);
#402=ORIENTED_EDGE('',*,*,#285,.F.);
#403=ORIENTED_EDGE('',*,*,#289,.T.);
#404=ORIENTED_EDGE('',*,*,#282,.F.);
#405=ORIENTED_EDGE('',*,*,#289,.F.);
#406=ORIENTED_EDGE('',*,*,#284,.F.);
#407=ORIENTED_EDGE('',*,*,#290,.T.);
#408=ORIENTED_EDGE('',*,*,#281,.F.);
#409=ORIENTED_EDGE('',*,*,#290,.F.);
#410=ORIENTED_EDGE('',*,*,#283,.F.);
#411=ORIENTED_EDGE('',*,*,#291,.T.);
#412=ORIENTED_EDGE('',*,*,#280,.T.);
#413=ORIENTED_EDGE('',*,*,#291,.F.);
#414=CYLINDRICAL_SURFACE('',#464,2.5);
#415=CYLINDRICAL_SURFACE('',#474,2.5);
#416=CYLINDRICAL_SURFACE('',#478,1.);
#417=CYLINDRICAL_SURFACE('',#480,1.);
#418=CYLINDRICAL_SURFACE('',#483,1.);
#419=CYLINDRICAL_SURFACE('',#488,1.);
#420=CYLINDRICAL_SURFACE('',#493,1.6);
#421=CYLINDRICAL_SURFACE('',#495,3.);
#422=CYLINDRICAL_SURFACE('',#506,7.5);
#423=CYLINDRICAL_SURFACE('',#509,1.625);
#424=CYLINDRICAL_SURFACE('',#510,1.625);
#425=CYLINDRICAL_SURFACE('',#511,27.5);
#426=ADVANCED_FACE('',(#38),#414,.T.);
#427=ADVANCED_FACE('',(#39),#27,.F.);
#428=ADVANCED_FACE('',(#40),#28,.T.);
#429=ADVANCED_FACE('',(#41),#415,.T.);
#430=ADVANCED_FACE('',(#42),#29,.F.);
#431=ADVANCED_FACE('',(#43),#30,.F.);
#432=ADVANCED_FACE('',(#44),#416,.F.);
#433=ADVANCED_FACE('',(#45),#417,.F.);
#434=ADVANCED_FACE('',(#46),#31,.F.);
#435=ADVANCED_FACE('',(#47),#418,.F.);
#436=ADVANCED_FACE('',(#48),#32,.F.);
#437=ADVANCED_FACE('',(#49),#33,.F.);
#438=ADVANCED_FACE('',(#50),#419,.F.);
#439=ADVANCED_FACE('',(#51),#34,.F.);
#440=ADVANCED_FACE('',(#52),#26,.F.);
#441=ADVANCED_FACE('',(#53),#420,.F.);
#442=ADVANCED_FACE('',(#54),#421,.F.);
#443=ADVANCED_FACE('',(#55,#15,#16,#17),#35,.F.);
#444=ADVANCED_FACE('',(#56,#18,#19,#20,#21,#22),#36,.T.);
#445=ADVANCED_FACE('',(#57),#422,.T.);
#446=ADVANCED_FACE('',(#58,#23),#37,.T.);
#447=ADVANCED_FACE('',(#59),#423,.F.);
#448=ADVANCED_FACE('',(#60),#424,.F.);
#449=ADVANCED_FACE('',(#61),#425,.T.);
#450=CLOSED_SHELL('',(#426,#427,#428,#429,#430,#431,#432,#433,#434,#435,
#436,#437,#438,#439,#440,#441,#442,#443,#444,#445,#446,#447,#448,#449));
#451=DERIVED_UNIT_ELEMENT(#453,1.);
#452=DERIVED_UNIT_ELEMENT(#778,-3.);
#453=(
MASS_UNIT()
NAMED_UNIT(*)
SI_UNIT(.KILO.,.GRAM.)
);
#454=DERIVED_UNIT((#451,#452));
#455=MEASURE_REPRESENTATION_ITEM('density measure',
POSITIVE_RATIO_MEASURE(7850.),#454);
#456=PROPERTY_DEFINITION_REPRESENTATION(#461,#458);
#457=PROPERTY_DEFINITION_REPRESENTATION(#462,#459);
#458=REPRESENTATION('material name',(#460),#775);
#459=REPRESENTATION('density',(#455),#775);
#460=DESCRIPTIVE_REPRESENTATION_ITEM('Steel','Steel');
#461=PROPERTY_DEFINITION('material property','material name',#785);
#462=PROPERTY_DEFINITION('material property','density of part',#785);
#463=AXIS2_PLACEMENT_3D('',#647,#512,#513);
#464=AXIS2_PLACEMENT_3D('',#648,#514,#515);
#465=AXIS2_PLACEMENT_3D('',#651,#516,#517);
#466=AXIS2_PLACEMENT_3D('',#655,#519,#520);
#467=AXIS2_PLACEMENT_3D('',#657,#522,#523);
#468=AXIS2_PLACEMENT_3D('',#663,#527,#528);
#469=AXIS2_PLACEMENT_3D('',#667,#530,#531);
#470=AXIS2_PLACEMENT_3D('',#671,#533,#534);
#471=AXIS2_PLACEMENT_3D('',#677,#537,#538);
#472=AXIS2_PLACEMENT_3D('',#681,#540,#541);
#473=AXIS2_PLACEMENT_3D('',#686,#544,#545);
#474=AXIS2_PLACEMENT_3D('',#687,#546,#547);
#475=AXIS2_PLACEMENT_3D('',#690,#548,#549);
#476=AXIS2_PLACEMENT_3D('',#693,#552,#553);
#477=AXIS2_PLACEMENT_3D('',#697,#556,#557);
#478=AXIS2_PLACEMENT_3D('',#699,#559,#560);
#479=AXIS2_PLACEMENT_3D('',#701,#561,#562);
#480=AXIS2_PLACEMENT_3D('',#703,#564,#565);
#481=AXIS2_PLACEMENT_3D('',#707,#567,#568);
#482=AXIS2_PLACEMENT_3D('',#709,#570,#571);
#483=AXIS2_PLACEMENT_3D('',#713,#574,#575);
#484=AXIS2_PLACEMENT_3D('',#717,#577,#578);
#485=AXIS2_PLACEMENT_3D('',#719,#580,#581);
#486=AXIS2_PLACEMENT_3D('',#721,#583,#584);
#487=AXIS2_PLACEMENT_3D('',#727,#588,#589);
#488=AXIS2_PLACEMENT_3D('',#728,#590,#591);
#489=AXIS2_PLACEMENT_3D('',#730,#593,#594);
#490=AXIS2_PLACEMENT_3D('',#732,#596,#597);
#491=AXIS2_PLACEMENT_3D('',#734,#598,#599);
#492=AXIS2_PLACEMENT_3D('',#737,#601,#602);
#493=AXIS2_PLACEMENT_3D('',#738,#603,#604);
#494=AXIS2_PLACEMENT_3D('',#741,#606,#607);
#495=AXIS2_PLACEMENT_3D('',#742,#608,#609);
#496=AXIS2_PLACEMENT_3D('',#744,#610,#611);
#497=AXIS2_PLACEMENT_3D('',#746,#613,#614);
#498=AXIS2_PLACEMENT_3D('',#748,#615,#616);
#499=AXIS2_PLACEMENT_3D('',#750,#617,#618);
#500=AXIS2_PLACEMENT_3D('',#752,#619,#620);
#501=AXIS2_PLACEMENT_3D('',#753,#621,#622);
#502=AXIS2_PLACEMENT_3D('',#755,#623,#624);
#503=AXIS2_PLACEMENT_3D('',#757,#625,#626);
#504=AXIS2_PLACEMENT_3D('',#759,#627,#628);
#505=AXIS2_PLACEMENT_3D('',#761,#629,#630);
#506=AXIS2_PLACEMENT_3D('',#762,#631,#632);
#507=AXIS2_PLACEMENT_3D('',#764,#633,#634);
#508=AXIS2_PLACEMENT_3D('',#766,#636,#637);
#509=AXIS2_PLACEMENT_3D('',#767,#638,#639);
#510=AXIS2_PLACEMENT_3D('',#769,#641,#642);
#511=AXIS2_PLACEMENT_3D('',#771,#644,#645);
#512=DIRECTION('axis',(0.,0.,1.));
#513=DIRECTION('refdir',(1.,0.,0.));
#514=DIRECTION('center_axis',(0.,0.,1.));
#515=DIRECTION('ref_axis',(-0.707106781186547,0.707106781186547,0.));
#516=DIRECTION('center_axis',(0.,0.,-1.));
#517=DIRECTION('ref_axis',(-0.707106781186547,0.707106781186547,0.));
#518=DIRECTION('',(0.,0.,-1.));
#519=DIRECTION('center_axis',(0.,0.,1.));
#520=DIRECTION('ref_axis',(-0.707106781186547,0.707106781186547,0.));
#521=DIRECTION('',(0.,0.,1.));
#522=DIRECTION('center_axis',(1.,0.,0.));
#523=DIRECTION('ref_axis',(0.,0.,-1.));
#524=DIRECTION('',(0.,1.,0.));
#525=DIRECTION('',(0.,0.,-1.));
#526=DIRECTION('',(0.,-1.,0.));
#527=DIRECTION('center_axis',(0.,0.,-1.));
#528=DIRECTION('ref_axis',(0.,1.,0.));
#529=DIRECTION('',(1.,0.,0.));
#530=DIRECTION('center_axis',(0.,0.,1.));
#531=DIRECTION('ref_axis',(0.707106781186547,0.707106781186547,0.));
#532=DIRECTION('',(0.,-1.,0.));
#533=DIRECTION('center_axis',(0.,0.,-1.));
#534=DIRECTION('ref_axis',(-0.707106781186548,-0.707106781186548,0.));
#535=DIRECTION('',(1.,0.,0.));
#536=DIRECTION('',(0.,1.,0.));
#537=DIRECTION('center_axis',(0.,0.,-1.));
#538=DIRECTION('ref_axis',(0.707106781186548,0.707106781186547,0.));
#539=DIRECTION('',(-1.,0.,0.));
#540=DIRECTION('center_axis',(0.,0.,-1.));
#541=DIRECTION('ref_axis',(-0.707106781186548,0.707106781186548,0.));
#542=DIRECTION('',(0.,-1.,0.));
#543=DIRECTION('',(1.,0.,0.));
#544=DIRECTION('center_axis',(0.,0.,-1.));
#545=DIRECTION('ref_axis',(0.707106781186548,-0.707106781186548,0.));
#546=DIRECTION('center_axis',(0.,0.,1.));
#547=DIRECTION('ref_axis',(0.707106781186547,0.707106781186547,0.));
#548=DIRECTION('center_axis',(0.,0.,-1.));
#549=DIRECTION('ref_axis',(0.707106781186547,0.707106781186547,0.));
#550=DIRECTION('',(0.,0.,-1.));
#551=DIRECTION('',(0.,0.,1.));
#552=DIRECTION('center_axis',(-1.,0.,0.));
#553=DIRECTION('ref_axis',(0.,0.,1.));
#554=DIRECTION('',(0.,1.,0.));
#555=DIRECTION('',(0.,0.,1.));
#556=DIRECTION('center_axis',(0.,-1.,0.));
#557=DIRECTION('ref_axis',(0.,0.,-1.));
#558=DIRECTION('',(-1.,0.,0.));
#559=DIRECTION('center_axis',(0.,0.,-1.));
#560=DIRECTION('ref_axis',(0.707106781186548,-0.707106781186548,0.));
#561=DIRECTION('center_axis',(0.,0.,1.));
#562=DIRECTION('ref_axis',(0.707106781186548,-0.707106781186548,0.));
#563=DIRECTION('',(0.,0.,1.));
#564=DIRECTION('center_axis',(0.,0.,1.));
#565=DIRECTION('ref_axis',(0.707106781186548,0.707106781186547,0.));
#566=DIRECTION('',(0.,0.,1.));
#567=DIRECTION('center_axis',(0.,0.,1.));
#568=DIRECTION('ref_axis',(0.707106781186548,0.707106781186547,0.));
#569=DIRECTION('',(0.,0.,-1.));
#570=DIRECTION('center_axis',(1.,0.,0.));
#571=DIRECTION('ref_axis',(0.,1.,0.));
#572=DIRECTION('',(0.,0.,1.));
#573=DIRECTION('',(0.,-1.,0.));
#574=DIRECTION('center_axis',(0.,0.,1.));
#575=DIRECTION('ref_axis',(-0.707106781186548,0.707106781186548,0.));
#576=DIRECTION('',(0.,0.,1.));
#577=DIRECTION('center_axis',(0.,0.,1.));
#578=DIRECTION('ref_axis',(-0.707106781186548,0.707106781186548,0.));
#579=DIRECTION('',(0.,0.,-1.));
#580=DIRECTION('center_axis',(0.,1.,0.));
#581=DIRECTION('ref_axis',(-1.,0.,0.));
#582=DIRECTION('',(1.,0.,0.));
#583=DIRECTION('center_axis',(0.,0.,-1.));
#584=DIRECTION('ref_axis',(0.,1.,0.));
#585=DIRECTION('',(-1.,0.,0.));
#586=DIRECTION('',(0.,1.,0.));
#587=DIRECTION('',(-1.,0.,0.));
#588=DIRECTION('center_axis',(0.,0.,1.));
#589=DIRECTION('ref_axis',(-0.707106781186548,-0.707106781186548,0.));
#590=DIRECTION('center_axis',(0.,0.,1.));
#591=DIRECTION('ref_axis',(-0.707106781186548,-0.707106781186548,0.));
#592=DIRECTION('',(0.,0.,-1.));
#593=DIRECTION('center_axis',(-1.,0.,0.));
#594=DIRECTION('ref_axis',(0.,-1.,0.));
#595=DIRECTION('',(0.,0.,1.));
#596=DIRECTION('center_axis',(0.,-0.866025403784439,0.5));
#597=DIRECTION('ref_axis',(-1.,0.,0.));
#598=DIRECTION('center_axis',(0.,0.866025403784439,-0.5));
#599=DIRECTION('ref_axis',(-1.,0.,0.));
#600=DIRECTION('',(0.707106781186548,-0.612372435695794,0.353553390593274));
#601=DIRECTION('center_axis',(0.,0.866025403784439,-0.5));
#602=DIRECTION('ref_axis',(-1.,0.,0.));
#603=DIRECTION('center_axis',(0.,0.866025403784439,-0.5));
#604=DIRECTION('ref_axis',(-1.,0.,0.));
#605=DIRECTION('',(0.,0.866025403784438,-0.5));
#606=DIRECTION('center_axis',(0.,-0.866025403784439,0.5));
#607=DIRECTION('ref_axis',(-1.,0.,0.));
#608=DIRECTION('center_axis',(0.,0.866025403784439,-0.5));
#609=DIRECTION('ref_axis',(-1.,0.,0.));
#610=DIRECTION('center_axis',(0.,1.,0.));
#611=DIRECTION('ref_axis',(0.,0.,1.));
#612=DIRECTION('',(0.,0.866025403784439,-0.5));
#613=DIRECTION('center_axis',(0.,1.,0.));
#614=DIRECTION('ref_axis',(1.,0.,0.));
#615=DIRECTION('center_axis',(0.,1.,0.));
#616=DIRECTION('ref_axis',(1.,0.,0.));
#617=DIRECTION('center_axis',(0.,1.,0.));
#618=DIRECTION('ref_axis',(-1.,0.,0.));
#619=DIRECTION('center_axis',(0.,1.,0.));
#620=DIRECTION('ref_axis',(-1.,0.,0.));
#621=DIRECTION('center_axis',(0.,1.,0.));
#622=DIRECTION('ref_axis',(1.,0.,0.));
#623=DIRECTION('center_axis',(0.,1.,0.));
#624=DIRECTION('ref_axis',(1.,0.,0.));
#625=DIRECTION('center_axis',(0.,-1.,0.));
#626=DIRECTION('ref_axis',(-1.,0.,0.));
#627=DIRECTION('center_axis',(0.,-1.,0.));
#628=DIRECTION('ref_axis',(-1.,0.,0.));
#629=DIRECTION('center_axis',(0.,-1.,0.));
#630=DIRECTION('ref_axis',(0.,0.,1.));
#631=DIRECTION('center_axis',(0.,0.866025403784439,-0.5));
#632=DIRECTION('ref_axis',(-1.,0.,0.));
#633=DIRECTION('center_axis',(0.,0.866025403784439,-0.5));
#634=DIRECTION('ref_axis',(-1.,0.,0.));
#635=DIRECTION('',(0.,-0.866025403784439,0.5));
#636=DIRECTION('center_axis',(0.,0.866025403784439,-0.5));
#637=DIRECTION('ref_axis',(-1.,0.,0.));
#638=DIRECTION('center_axis',(0.,-1.,0.));
#639=DIRECTION('ref_axis',(-1.,0.,0.));
#640=DIRECTION('',(0.,-1.,0.));
#641=DIRECTION('center_axis',(0.,-1.,0.));
#642=DIRECTION('ref_axis',(-1.,0.,0.));
#643=DIRECTION('',(0.,-1.,0.));
#644=DIRECTION('center_axis',(0.,1.,0.));
#645=DIRECTION('ref_axis',(1.,0.,0.));
#646=DIRECTION('',(0.,-1.,0.));
#647=CARTESIAN_POINT('',(0.,0.,0.));
#648=CARTESIAN_POINT('Origin',(-2.50000005960464,4.50000008940697,-24.5));
#649=CARTESIAN_POINT('',(-5.00000005960464,4.50000008940697,-23.));
#650=CARTESIAN_POINT('',(-2.50000005960464,7.00000008940697,-23.));
#651=CARTESIAN_POINT('Origin',(-2.50000005960464,4.50000008940697,-23.));
#652=CARTESIAN_POINT('',(-2.50000005960464,7.00000008940697,-26.));
#653=CARTESIAN_POINT('',(-2.50000005960464,7.00000008940697,-24.5));
#654=CARTESIAN_POINT('',(-5.00000005960464,4.50000008940697,-26.));
#655=CARTESIAN_POINT('Origin',(-2.50000005960464,4.50000008940697,-26.));
#656=CARTESIAN_POINT('',(-5.00000005960464,4.50000008940697,-24.5));
#657=CARTESIAN_POINT('Origin',(-5.00000005960464,4.50000008940697,-24.5));
#658=CARTESIAN_POINT('',(-5.00000005960464,3.,-26.));
#659=CARTESIAN_POINT('',(-5.00000005960464,4.50000008940697,-26.));
#660=CARTESIAN_POINT('',(-5.00000005960464,3.,-23.));
#661=CARTESIAN_POINT('',(-5.00000005960464,3.,-12.25));
#662=CARTESIAN_POINT('',(-5.00000005960464,4.50000008940697,-23.));
#663=CARTESIAN_POINT('Origin',(-5.9604644553346E-8,4.50000008940697,-26.));
#664=CARTESIAN_POINT('',(2.49999994039536,7.00000008940697,-26.));
#665=CARTESIAN_POINT('',(-5.9604644553346E-8,7.00000008940697,-26.));
#666=CARTESIAN_POINT('',(4.99999994039536,4.50000008940697,-26.));
#667=CARTESIAN_POINT('Origin',(2.49999994039536,4.50000008940697,-26.));
#668=CARTESIAN_POINT('',(4.99999994039536,3.,-26.));
#669=CARTESIAN_POINT('',(4.99999994039536,4.50000008940697,-26.));
#670=CARTESIAN_POINT('',(5.99999994039536,2.,-26.));
#671=CARTESIAN_POINT('Origin',(5.99999994039536,3.,-26.));
#672=CARTESIAN_POINT('',(3.24999994039536,2.00000008940697,-26.));
#673=CARTESIAN_POINT('',(-2.9802322276673E-8,2.,-26.));
#674=CARTESIAN_POINT('',(3.24999994039536,4.25000014901161,-26.));
#675=CARTESIAN_POINT('',(3.24999994039536,3.25000008940697,-26.));
#676=CARTESIAN_POINT('',(2.24999994039535,5.25000014901161,-26.));
#677=CARTESIAN_POINT('Origin',(2.24999994039535,4.25000014901161,-26.));
#678=CARTESIAN_POINT('',(-2.25000005960464,5.25000014901161,-26.));
#679=CARTESIAN_POINT('',(1.62499994039536,5.25000014901161,-26.));
#680=CARTESIAN_POINT('',(-3.25000005960464,4.25000014901161,-26.));
#681=CARTESIAN_POINT('Origin',(-2.25000005960464,4.25000014901161,-26.));
#682=CARTESIAN_POINT('',(-3.25000005960464,2.00000008940697,-26.));
#683=CARTESIAN_POINT('',(-3.25000005960464,4.87500011920929,-26.));
#684=CARTESIAN_POINT('',(-6.00000005960464,2.,-26.));
#685=CARTESIAN_POINT('',(-2.9802322276673E-8,2.,-26.));
#686=CARTESIAN_POINT('Origin',(-6.00000005960464,3.,-26.));
#687=CARTESIAN_POINT('Origin',(2.49999994039536,4.50000008940697,-24.5));
#688=CARTESIAN_POINT('',(2.49999994039536,7.00000008940697,-23.));
#689=CARTESIAN_POINT('',(4.99999994039536,4.50000008940697,-23.));
#690=CARTESIAN_POINT('Origin',(2.49999994039536,4.50000008940697,-23.));
#691=CARTESIAN_POINT('',(4.99999994039536,4.50000008940697,-24.5));
#692=CARTESIAN_POINT('',(2.49999994039536,7.00000008940697,-24.5));
#693=CARTESIAN_POINT('Origin',(4.99999994039536,4.50000008940697,-24.5));
#694=CARTESIAN_POINT('',(4.99999994039536,3.,-23.));
#695=CARTESIAN_POINT('',(4.99999994039536,4.50000008940697,-23.));
#696=CARTESIAN_POINT('',(4.99999994039536,3.,-12.25));
#697=CARTESIAN_POINT('Origin',(-5.9604644553346E-8,7.00000008940697,-24.5));
#698=CARTESIAN_POINT('',(-5.9604644553346E-8,7.00000008940697,-23.));
#699=CARTESIAN_POINT('Origin',(-6.00000005960464,3.,-12.25));
#700=CARTESIAN_POINT('',(-6.00000005960464,2.,-23.));
#701=CARTESIAN_POINT('Origin',(-6.00000005960464,3.,-23.));
#702=CARTESIAN_POINT('',(-6.00000005960464,2.,-12.25));
#703=CARTESIAN_POINT('Origin',(2.24999994039535,4.25000014901161,-26.));
#704=CARTESIAN_POINT('',(3.24999994039536,4.25000014901161,-23.));
#705=CARTESIAN_POINT('',(3.24999994039536,4.25000014901161,-26.));
#706=CARTESIAN_POINT('',(2.24999994039535,5.25000014901161,-23.));
#707=CARTESIAN_POINT('Origin',(2.24999994039535,4.25000014901161,-23.));
#708=CARTESIAN_POINT('',(2.24999994039535,5.25000014901161,-26.));
#709=CARTESIAN_POINT('Origin',(3.24999994039536,2.00000008940697,-26.));
#710=CARTESIAN_POINT('',(3.24999994039536,2.00000008940697,-23.));
#711=CARTESIAN_POINT('',(3.24999994039536,2.00000008940697,-26.));
#712=CARTESIAN_POINT('',(3.24999994039536,3.25000008940697,-23.));
#713=CARTESIAN_POINT('Origin',(-2.25000005960464,4.25000014901161,-26.));
#714=CARTESIAN_POINT('',(-2.25000005960464,5.25000014901161,-23.));
#715=CARTESIAN_POINT('',(-2.25000005960464,5.25000014901161,-26.));
#716=CARTESIAN_POINT('',(-3.25000005960464,4.25000014901161,-23.));
#717=CARTESIAN_POINT('Origin',(-2.25000005960464,4.25000014901161,-23.));
#718=CARTESIAN_POINT('',(-3.25000005960464,4.25000014901161,-26.));
#719=CARTESIAN_POINT('Origin',(3.24999994039536,5.25000014901161,-26.));
#720=CARTESIAN_POINT('',(1.62499994039536,5.25000014901161,-23.));
#721=CARTESIAN_POINT('Origin',(-5.9604644553346E-8,4.50000008940697,-23.));
#722=CARTESIAN_POINT('',(-3.25000005960464,2.00000008940697,-23.));
#723=CARTESIAN_POINT('',(-2.9802322276673E-8,2.,-23.));
#724=CARTESIAN_POINT('',(-3.25000005960464,4.87500011920929,-23.));
#725=CARTESIAN_POINT('',(5.99999994039536,2.,-23.));
#726=CARTESIAN_POINT('',(-2.9802322276673E-8,2.,-23.));
#727=CARTESIAN_POINT('Origin',(5.99999994039536,3.,-23.));
#728=CARTESIAN_POINT('Origin',(5.99999994039536,3.,-12.25));
#729=CARTESIAN_POINT('',(5.99999994039536,2.,-12.25));
#730=CARTESIAN_POINT('Origin',(-3.25000005960464,5.25000014901161,-26.));
#731=CARTESIAN_POINT('',(-3.25000005960464,2.00000008940697,-26.));
#732=CARTESIAN_POINT('Origin',(0.,10.2664718353947,-4.77264972220719));
#733=CARTESIAN_POINT('',(1.6,10.8726896180438,-5.12264972220719));
#734=CARTESIAN_POINT('Origin',(0.,10.8726896180438,-5.12264972220719));
#735=CARTESIAN_POINT('',(3.,9.66025405274555,-4.42264972220719));
#736=CARTESIAN_POINT('',(2.3,10.2664718353947,-4.77264972220719));
#737=CARTESIAN_POINT('Origin',(0.,9.66025405274555,-4.42264972220719));
#738=CARTESIAN_POINT('Origin',(0.,0.,1.15470055558563));
#739=CARTESIAN_POINT('',(1.6,19.3205081054911,-10.));
#740=CARTESIAN_POINT('',(1.6,-9.79717439317883E-17,1.15470055558563));
#741=CARTESIAN_POINT('Origin',(0.,19.3205081054911,-10.));
#742=CARTESIAN_POINT('Origin',(0.,0.,1.15470055558563));
#743=CARTESIAN_POINT('',(3.,0.,1.15470055558563));
#744=CARTESIAN_POINT('Origin',(0.,0.,1.15470055558563));
#745=CARTESIAN_POINT('',(3.,-1.83697019872103E-16,1.15470055558563));
#746=CARTESIAN_POINT('Origin',(0.,0.,0.));
#747=CARTESIAN_POINT('',(-27.5,0.,3.36777869765522E-15));
#748=CARTESIAN_POINT('Origin',(0.,0.,0.));
#749=CARTESIAN_POINT('',(12.4503175473055,0.,6.25));
#750=CARTESIAN_POINT('Origin',(10.8253175473055,0.,6.25));
#751=CARTESIAN_POINT('',(-9.20031754730548,0.,6.25));
#752=CARTESIAN_POINT('Origin',(-10.8253175473055,0.,6.25));
#753=CARTESIAN_POINT('Origin',(0.,2.,0.));
#754=CARTESIAN_POINT('',(-27.5,2.,3.36777869765522E-15));
#755=CARTESIAN_POINT('Origin',(0.,2.,0.));
#756=CARTESIAN_POINT('',(12.4503175473055,2.,6.25));
#757=CARTESIAN_POINT('Origin',(10.8253175473055,2.,6.25));
#758=CARTESIAN_POINT('',(-9.20031754730548,2.,6.25));
#759=CARTESIAN_POINT('Origin',(-10.8253175473055,2.,6.25));
#760=CARTESIAN_POINT('',(7.5,2.,1.72063776729879E-8));
#761=CARTESIAN_POINT('Origin',(0.,2.,1.72063787889131E-8));
#762=CARTESIAN_POINT('Origin',(0.,2.00000002980232,0.));
#763=CARTESIAN_POINT('',(7.5,19.3205081054911,-10.));
#764=CARTESIAN_POINT('Origin',(0.,19.3205081054911,-10.));
#765=CARTESIAN_POINT('',(7.5,2.00000002980232,-7.9543142904368E-16));
#766=CARTESIAN_POINT('Origin',(0.,19.3205081054911,-10.));
#767=CARTESIAN_POINT('Origin',(-10.8253175473055,2.,6.25));
#768=CARTESIAN_POINT('',(-9.20031754730548,2.,6.25));
#769=CARTESIAN_POINT('Origin',(10.8253175473055,2.,6.25));
#770=CARTESIAN_POINT('',(12.4503175473055,2.,6.25));
#771=CARTESIAN_POINT('Origin',(0.,0.,0.));
#772=CARTESIAN_POINT('',(-27.5,0.,3.36777869765522E-15));
#773=UNCERTAINTY_MEASURE_WITH_UNIT(LENGTH_MEASURE(0.01),#777,
'DISTANCE_ACCURACY_VALUE',
'Maximum model space distance between geometric entities at asserted c
onnectivities');
#774=UNCERTAINTY_MEASURE_WITH_UNIT(LENGTH_MEASURE(0.01),#777,
'DISTANCE_ACCURACY_VALUE',
'Maximum model space distance between geometric entities at asserted c
onnectivities');
#775=(
GEOMETRIC_REPRESENTATION_CONTEXT(3)
GLOBAL_UNCERTAINTY_ASSIGNED_CONTEXT((#773))
GLOBAL_UNIT_ASSIGNED_CONTEXT((#777,#779,#780))
REPRESENTATION_CONTEXT('','3D')
);
#776=(
GEOMETRIC_REPRESENTATION_CONTEXT(3)
GLOBAL_UNCERTAINTY_ASSIGNED_CONTEXT((#774))
GLOBAL_UNIT_ASSIGNED_CONTEXT((#777,#779,#780))
REPRESENTATION_CONTEXT('','3D')
);
#777=(
LENGTH_UNIT()
NAMED_UNIT(*)
SI_UNIT(.MILLI.,.METRE.)
);
#778=(
LENGTH_UNIT()
NAMED_UNIT(*)
SI_UNIT($,.METRE.)
);
#779=(
NAMED_UNIT(*)
PLANE_ANGLE_UNIT()
SI_UNIT($,.RADIAN.)
);
#780=(
NAMED_UNIT(*)
SI_UNIT($,.STERADIAN.)
SOLID_ANGLE_UNIT()
);
#781=SHAPE_DEFINITION_REPRESENTATION(#782,#783);
#782=PRODUCT_DEFINITION_SHAPE('',$,#785);
#783=SHAPE_REPRESENTATION('',(#463),#775);
#784=PRODUCT_DEFINITION_CONTEXT('part definition',#789,'design');
#785=PRODUCT_DEFINITION('FusionComponent','FusionComponent',#786,#784);
#786=PRODUCT_DEFINITION_FORMATION('',$,#791);
#787=PRODUCT_RELATED_PRODUCT_CATEGORY('FusionComponent',
'FusionComponent',(#791));
#788=APPLICATION_PROTOCOL_DEFINITION('international standard',
'automotive_design',2009,#789);
#789=APPLICATION_CONTEXT(
'Core Data for Automotive Mechanical Design Process');
#790=PRODUCT_CONTEXT('part definition',#789,'mechanical');
#791=PRODUCT('FusionComponent','FusionComponent',$,(#790));
#792=PRESENTATION_STYLE_ASSIGNMENT((#793));
#793=SURFACE_STYLE_USAGE(.BOTH.,#794);
#794=SURFACE_SIDE_STYLE('',(#795));
#795=SURFACE_STYLE_FILL_AREA(#796);
#796=FILL_AREA_STYLE('Steel - Satin',(#797));
#797=FILL_AREA_STYLE_COLOUR('Steel - Satin',#798);
#798=COLOUR_RGB('Steel - Satin',0.627450980392157,0.627450980392157,0.627450980392157);
ENDSEC;
END-ISO-10303-21;
